<svg width="940" height="472" viewBox="0 0 940 472" fill="none" xmlns="http://www.w3.org/2000/svg">
<path d="M484.136 40.7224L480.456 52.6904H478.28L475.672 43.6184L473.064 52.6904H470.904L467.24 40.7224H469.368L471.976 50.0504L474.584 40.7224H476.76L479.384 50.0504L482.008 40.7224H484.136ZM487.82 52.8824C485.5 52.8824 483.836 50.9944 483.836 48.0824C483.836 45.1704 485.484 43.2824 487.82 43.2824C488.972 43.2824 489.996 43.9064 490.556 44.9464L490.7 43.4744H492.396V52.6904H490.7L490.556 51.2184C489.996 52.2584 488.972 52.8824 487.82 52.8824ZM488.172 51.1224C489.532 51.1224 490.46 49.9384 490.46 48.0824C490.46 46.2264 489.532 45.0424 488.172 45.0424C486.748 45.0424 485.804 46.2104 485.804 48.0824C485.804 49.9544 486.748 51.1224 488.172 51.1224ZM494.387 52.6904V43.4744H496.083L496.227 44.9464C496.515 44.0504 497.203 43.4744 498.131 43.4744H499.587L499.811 45.1704H498.259C496.963 45.1704 496.339 46.2264 496.339 47.8584V52.6904H494.387ZM504.052 52.8824C501.972 52.8824 500.212 51.6344 500.004 49.6824H501.908C502.068 50.6904 503.092 51.3624 504.116 51.3624C505.06 51.3624 505.7 50.8984 505.7 50.2104C505.7 47.9224 500.308 49.6984 500.308 46.0184C500.308 44.4024 501.7 43.2824 503.78 43.2824C505.7 43.2824 507.348 44.4504 507.588 46.1624H505.652C505.444 45.3784 504.676 44.7864 503.7 44.7864C502.804 44.7864 502.228 45.2024 502.228 45.8264C502.228 47.8104 507.636 46.1784 507.636 50.0344C507.636 51.7144 506.132 52.8824 504.052 52.8824ZM512.578 52.8824C510.258 52.8824 508.594 50.9944 508.594 48.0824C508.594 45.1704 510.242 43.2824 512.578 43.2824C513.73 43.2824 514.754 43.9064 515.314 44.9464L515.458 43.4744H517.154V52.6904H515.458L515.314 51.2184C514.754 52.2584 513.73 52.8824 512.578 52.8824ZM512.93 51.1224C514.29 51.1224 515.218 49.9384 515.218 48.0824C515.218 46.2264 514.29 45.0424 512.93 45.0424C511.506 45.0424 510.562 46.2104 510.562 48.0824C510.562 49.9544 511.506 51.1224 512.93 51.1224ZM521.018 52.6904L518.218 43.4744H520.234L522.122 50.3384L523.962 43.4744H525.962L527.85 50.3704L529.754 43.4744H531.722L528.954 52.6904H526.794L524.97 46.3704L523.13 52.6904H521.018Z" fill="#6C6E79" fill-opacity="0.8"/>
<line y1="-0.5" x2="24" y2="-0.5" transform="matrix(-4.37114e-08 -1 -1 4.37114e-08 475 79.6904)" stroke="#6C6E79" stroke-opacity="0.8"/>
<circle cx="475" cy="87.6904" r="6" fill="#6C6E79" fill-opacity="0.8"/>
</svg>
