<svg width="940" height="472" viewBox="0 0 940 472" fill="none" xmlns="http://www.w3.org/2000/svg">
<path d="M128.296 100.722C132.008 100.722 134.408 103.282 134.408 106.69C134.408 110.114 132.008 112.69 128.296 112.69H124.344V100.722H128.296ZM128.296 102.402H126.36V111.01H128.296C130.824 111.01 132.344 109.346 132.344 106.69C132.344 104.002 130.808 102.402 128.296 102.402ZM139.367 112.882C137.047 112.882 135.383 110.994 135.383 108.082C135.383 105.17 137.031 103.282 139.367 103.282C140.519 103.282 141.543 103.906 142.103 104.946L142.247 103.474H143.943V112.69H142.247L142.103 111.218C141.543 112.258 140.519 112.882 139.367 112.882ZM139.719 111.122C141.079 111.122 142.007 109.938 142.007 108.082C142.007 106.226 141.079 105.042 139.719 105.042C138.295 105.042 137.351 106.21 137.351 108.082C137.351 109.954 138.295 111.122 139.719 111.122ZM145.934 112.69V100.722H147.886V112.69H145.934ZM149.848 112.69V100.722H151.8V112.69H149.848ZM157.235 112.882C154.915 112.882 153.251 110.994 153.251 108.082C153.251 105.17 154.899 103.282 157.235 103.282C158.387 103.282 159.411 103.906 159.971 104.946L160.115 103.474H161.811V112.69H160.115L159.971 111.218C159.411 112.258 158.387 112.882 157.235 112.882ZM157.587 111.122C158.947 111.122 159.875 109.938 159.875 108.082C159.875 106.226 158.947 105.042 157.587 105.042C156.163 105.042 155.219 106.21 155.219 108.082C155.219 109.954 156.163 111.122 157.587 111.122ZM167.178 112.882C165.098 112.882 163.338 111.634 163.13 109.682H165.034C165.194 110.69 166.218 111.362 167.242 111.362C168.186 111.362 168.826 110.898 168.826 110.21C168.826 107.922 163.434 109.698 163.434 106.018C163.434 104.402 164.826 103.282 166.906 103.282C168.826 103.282 170.474 104.45 170.714 106.162H168.778C168.57 105.378 167.802 104.786 166.826 104.786C165.93 104.786 165.354 105.202 165.354 105.826C165.354 107.81 170.762 106.178 170.762 110.034C170.762 111.714 169.258 112.882 167.178 112.882Z" fill="#6C6E79" fill-opacity="0.8"/>
<line y1="-0.5" x2="24" y2="-0.5" transform="matrix(-4.37114e-08 -1 -1 4.37114e-08 128 140.69)" stroke="#6C6E79" stroke-opacity="0.8"/>
<circle cx="128" cy="148.69" r="6" fill="#6C6E79" fill-opacity="0.8"/>
</svg>
