<svg width="940" height="472" viewBox="0 0 940 472" fill="none" xmlns="http://www.w3.org/2000/svg">
<path d="M449.8 169.722V181.69H447.768V172.346L447.144 174.074L444.056 181.69H442.024L439.016 174.186L438.36 172.362V181.69H436.344V169.722H439.32L443.048 179.37L446.84 169.722H449.8ZM455.001 181.882C453.033 181.882 451.689 180.57 451.689 178.474V172.474H453.625V178.074C453.625 179.338 454.393 180.122 455.561 180.122C456.841 180.122 457.609 179.066 457.609 177.706V172.474H459.545V181.69H457.865L457.705 180.17C457.161 181.258 456.201 181.882 455.001 181.882ZM467.448 181.69V176.09C467.448 174.81 466.68 174.042 465.512 174.042C464.232 174.042 463.48 175.098 463.48 176.458V181.69H461.528V172.474H463.224L463.384 173.962C463.928 172.89 464.888 172.282 466.072 172.282C468.056 172.282 469.4 173.594 469.4 175.69V181.69H467.448ZM473.222 172.474V181.69H471.27V172.474H473.222ZM472.246 171.21C471.51 171.21 470.982 170.714 470.982 169.994C470.982 169.274 471.51 168.778 472.246 168.778C472.982 168.778 473.51 169.274 473.51 169.994C473.51 170.714 472.982 171.21 472.246 171.21ZM479.153 181.882C476.449 181.882 474.673 179.994 474.673 177.082C474.673 174.138 476.449 172.282 479.153 172.282C481.409 172.282 482.977 173.738 483.153 175.866H481.201C481.057 174.842 480.257 174.042 479.153 174.042C477.633 174.042 476.625 175.21 476.625 177.082C476.625 178.938 477.633 180.122 479.153 180.122C480.321 180.122 481.185 179.354 481.345 178.314H483.313C483.057 180.522 481.393 181.882 479.153 181.882ZM486.598 169.722V173.786C487.158 172.826 488.07 172.282 489.19 172.282C491.174 172.282 492.518 173.594 492.518 175.69V181.69H490.566V176.09C490.566 174.81 489.798 174.042 488.63 174.042C487.35 174.042 486.598 175.098 486.598 176.458V181.69H484.646V169.722H486.598Z" fill="#6C6E79" fill-opacity="0.8"/>
<circle cx="439" cy="102.69" r="6" fill="#6C6E79" fill-opacity="0.8"/>
<line y1="-0.5" x2="56" y2="-0.5" transform="matrix(-4.37114e-08 -1 -1 4.37114e-08 439 166.69)" stroke="#6C6E79" stroke-opacity="0.8"/>
</svg>
