<svg width="940" height="472" viewBox="0 0 940 472" fill="none" xmlns="http://www.w3.org/2000/svg">
<path opacity="0.6" d="M190.811 212.264C189.748 211.868 188.593 211.791 187.487 212.042C186.163 212.283 184.8 212.19 183.521 211.772C181.895 211.137 182.037 211.066 184.766 211.129C188.78 211.217 189.859 210.582 188.828 208.75C188.098 207.425 188.32 207.322 191.922 207.322C195.523 207.322 200.442 208.909 201.29 210.217C201.885 211.106 192.168 213.057 190.811 212.264ZM205.09 212.859C205.884 213.795 208.652 213.081 209.009 211.827C209.215 211.137 208.589 210.717 207.359 210.717C205.32 210.741 204.17 211.827 205.098 212.882L205.09 212.859ZM212.047 210.035C211.341 210.392 210.762 210.884 210.762 211.129C210.762 211.375 211.341 211.574 212.047 211.574C212.362 211.596 212.673 211.493 212.914 211.289C213.154 211.084 213.304 210.793 213.333 210.479C213.341 209.884 212.761 209.702 212.055 210.059L212.047 210.035ZM197.911 231.728C197.924 232.366 198.128 232.985 198.498 233.505C198.815 233.886 199.291 233.957 199.529 233.664C199.767 233.37 199.529 232.569 198.95 231.887C198.371 231.205 197.919 231.094 197.919 231.752L197.911 231.728ZM174.715 213.279C176.905 213.319 176.944 213.279 175.509 212.01C173.858 210.566 170.471 210.233 170.471 211.518C170.51 211.794 170.618 212.055 170.786 212.277C170.954 212.499 171.176 212.675 171.431 212.787V212.787C172.495 213.129 173.606 213.303 174.723 213.303L174.715 213.279ZM194.944 231.3C194.698 231.3 194.492 231.689 194.492 232.157C194.528 232.412 194.661 232.644 194.863 232.803C195.066 232.963 195.322 233.038 195.579 233.013C196.182 233.013 196.372 232.625 196.039 232.157C195.706 231.689 195.198 231.3 194.944 231.3ZM217.577 216.737C219.005 216.737 218.695 215.944 216.974 215.214C216.085 214.842 215.689 215.024 216.038 215.651C216.192 215.939 216.412 216.187 216.679 216.376C216.946 216.565 217.253 216.688 217.577 216.737V216.737ZM220.599 215.024C220.845 215.024 221.051 214.635 221.051 214.167C221.016 213.912 220.883 213.68 220.68 213.521C220.478 213.361 220.221 213.286 219.965 213.311C219.362 213.311 219.171 213.699 219.512 214.167C219.853 214.635 220.345 215.024 220.599 215.024V215.024ZM222.765 159.969C222.765 159.366 222.376 159.176 221.908 159.517C221.44 159.858 221.051 160.35 221.051 160.604C221.051 160.857 221.44 161.056 221.908 161.056C222.164 161.02 222.395 160.887 222.555 160.685C222.715 160.482 222.79 160.226 222.765 159.969V159.969ZM220.226 241.611C220.595 241.601 220.95 241.469 221.237 241.237C221.524 241.005 221.726 240.685 221.813 240.326C222.067 239.351 221.813 239.042 220.837 239.042C220.123 239.042 219.719 239.232 219.949 239.462C220.179 239.692 220.044 240.255 219.663 240.747C219.116 241.389 219.235 241.611 220.226 241.611ZM223.852 215.056C224.455 215.056 224.645 214.667 224.312 214.199C223.979 213.731 223.471 213.342 223.217 213.342C222.963 213.342 222.765 213.731 222.765 214.199C222.808 214.449 222.944 214.673 223.146 214.826C223.347 214.979 223.6 215.05 223.852 215.024V215.056ZM224.478 220.005C224.987 219.552 225.295 218.916 225.335 218.236C225.335 217.634 224.946 217.443 224.478 217.816C223.97 218.269 223.662 218.905 223.622 219.585C223.622 220.196 224.01 220.346 224.51 219.973L224.478 220.005ZM179.062 205.268C179.594 205.839 181.331 205.736 183.783 204.982C185.948 204.324 185.94 204.316 179.237 200.485C171.082 195.821 168.758 194.877 164.601 194.544C160.254 194.187 154.225 196.051 154.225 197.717C154.225 198.645 154.486 198.597 157.929 197.13C161.602 195.543 164.648 196.297 170.114 200.08C172.899 202.016 173.708 202.976 173.145 203.705C172.581 204.435 173.145 204.705 175.524 204.736C177.246 204.736 178.848 204.99 179.078 205.236L179.062 205.268ZM175.754 182.916C176.81 181.774 176.778 181.631 175.437 181.631C175.068 181.607 174.704 181.727 174.422 181.967C174.141 182.207 173.964 182.548 173.93 182.916C173.93 183.622 174.073 184.201 174.247 184.201C174.829 183.875 175.341 183.438 175.754 182.916ZM381.732 47.6386C380.035 48.1224 377.996 48.3286 377.195 48.0828C374.91 47.3847 368.143 49.8198 367.675 51.5093C367.374 52.6118 367.588 52.8656 368.564 52.5722C369.27 52.3501 370.888 52.8339 372.157 53.643C373.435 54.4361 374.989 54.9676 375.624 54.801C382.645 52.9608 385.548 51.9456 387.111 50.7716L388.967 49.3756L386.897 48.0748C385.096 46.9247 384.39 46.8692 381.732 47.6386ZM369.04 36.2485C368.413 35.4553 367.295 35.2887 365.303 35.6377C362.178 36.185 360.171 34.67 363.011 33.9006C364.272 33.5596 364.439 33.2264 363.804 32.3857C362.059 30.2203 365.319 30.2282 368.35 32.3857C370.579 33.972 371.666 34.3131 373.006 33.7975L374.759 33.1313L372.824 31.6083C371.417 30.5439 369.947 29.5665 368.421 28.6815C365.549 27.0475 365.938 26.2306 369.651 26.0957C372.998 25.9767 379.741 22.7485 380.273 21.0193C380.937 19.6913 381.835 18.4931 382.922 17.4818C384.62 15.7923 385.001 14.9277 384.469 13.9124C383.256 11.5329 387.857 7.86044 392.862 7.17831C395.171 6.86103 397.749 6.08371 398.582 5.44917C399.962 4.40217 399.613 4.33871 395.036 4.80669C390.792 5.25087 389.483 5.06844 386.952 3.74382C382.7 1.49912 371.88 0.111046 367.723 1.26909C365.382 1.79582 362.969 1.9325 360.583 1.67362C358.005 1.34841 353.222 1.77673 346.724 2.91098C340.67 4.05769 334.513 4.57338 328.352 4.44976C309.654 3.99764 309.059 4.0611 301.221 7.51938C296.893 9.52808 292.284 10.8654 287.553 11.4853C283.999 11.9453 280.905 12.2785 280.683 12.2785C280.461 12.2785 280.239 13.1589 280.175 14.2297C280.033 16.8075 281.651 17.3073 290.329 17.4024C296.676 17.4024 297.469 17.6245 299.373 19.4251C301.904 21.8681 304.442 26.8572 303.903 28.3166C303.665 28.9591 304.252 29.7602 305.323 30.2679C307.449 31.2673 308.543 35.3125 307.322 37.6762C306.877 38.5328 304.878 40.2699 302.879 41.5469C298.659 44.2279 297.009 47.0992 298.278 49.5343C298.881 50.7082 298.865 51.7473 298.199 53.3971C296.803 56.895 299.111 61.083 303.934 63.8036C306.037 64.9855 308.266 65.9532 308.892 65.9452C311.225 65.9452 313.47 63.883 317.198 58.3862C321.839 51.549 324.441 49.7881 332.144 48.2652C335.833 47.5355 338.982 46.3774 340.465 45.2114C345.011 41.6421 348.097 40.3651 352.365 40.3016C356.021 40.0764 359.654 39.5699 363.233 38.7866C368.81 37.5969 369.778 37.1686 369.04 36.2485ZM344.424 220.989C344.254 220.989 344.089 221.039 343.948 221.133C343.807 221.227 343.697 221.361 343.632 221.517C343.568 221.674 343.551 221.846 343.584 222.012C343.617 222.179 343.698 222.331 343.818 222.451C343.938 222.571 344.091 222.652 344.257 222.686C344.423 222.719 344.595 222.702 344.752 222.637C344.908 222.572 345.042 222.462 345.136 222.321C345.23 222.18 345.281 222.015 345.281 221.845C345.279 221.619 345.188 221.402 345.027 221.242C344.867 221.082 344.651 220.991 344.424 220.989ZM436.953 274.306C436.485 274.655 436.097 275.1 436.097 275.393C436.097 275.687 436.485 275.845 436.953 275.845C437.209 275.81 437.441 275.677 437.6 275.474C437.76 275.272 437.835 275.015 437.81 274.759C437.81 274.132 437.421 273.957 436.953 274.306ZM227.049 225.454C226.581 225.803 226.192 226.247 226.192 226.541C226.192 226.834 226.581 226.993 227.049 226.993C227.304 226.957 227.536 226.825 227.696 226.622C227.855 226.419 227.93 226.163 227.905 225.906C227.905 225.327 227.517 225.129 227.049 225.478V225.454ZM173.898 189.261C174.549 190.055 175.286 190.411 175.532 190.134C175.778 189.856 175.588 189.483 175.104 189.341C174.62 189.198 174.406 188.333 174.62 187.493C174.834 186.652 174.62 185.97 174.215 185.97C172.843 185.898 172.669 187.786 173.898 189.261ZM179.753 184.169C180.038 183.971 179.967 183.249 179.594 182.583C179.221 181.917 178.682 181.512 178.388 181.718C178.095 181.924 178.174 182.638 178.547 183.305C178.92 183.971 179.459 184.336 179.753 184.129V184.169ZM185.924 198.772C185.924 197.653 185.203 197.653 183.886 198.772C183.092 199.462 183.164 199.636 184.401 199.644C185.234 199.612 185.924 199.216 185.924 198.732V198.772ZM338.236 215.064C337.633 215.064 337.443 215.452 337.784 215.92C338.125 216.388 338.617 216.777 338.871 216.777C339.125 216.777 339.323 216.388 339.323 215.92C339.31 215.786 339.271 215.657 339.207 215.538C339.143 215.42 339.056 215.316 338.95 215.233C338.845 215.149 338.724 215.087 338.595 215.052C338.465 215.016 338.33 215.006 338.197 215.024L338.236 215.064ZM190.018 197.027C191.065 196.939 191.922 196.519 191.922 196.091C191.922 194.98 189.05 195.107 188.542 196.241C188.312 196.757 188.979 197.106 190.018 197.027ZM397.249 83.3794C396.531 84.1735 395.605 84.7506 394.576 85.0451C392.696 85.5765 392.196 86.7028 393.497 87.5833C393.957 87.9005 393.83 88.9634 393.132 90.4625C392.529 91.7713 392.244 93.4369 392.497 94.1746C392.751 94.9123 393.378 95.3009 394.147 94.9281C394.917 94.5553 396.757 93.8097 398.479 93.1355C401.105 92.1203 401.612 91.5492 401.612 89.7328C401.671 88.3175 402.065 86.9363 402.763 85.7034C403.389 84.6961 403.707 83.4984 403.453 83.0462C402.77 81.8168 398.241 82.0627 397.249 83.3794ZM238.377 22.3043L248.777 23.1609C250.142 22.9488 251.451 22.4632 252.624 21.7332L255.322 20.2182L253.14 19.6392C251.942 19.3219 248.475 19.2506 245.437 19.4806C240.931 19.8216 239.368 19.6075 236.941 18.3067C234.514 17.0058 233.617 16.871 231.8 17.6642C229.984 18.4574 228.231 20.6545 228.921 21.3208C229.032 21.4159 233.292 21.8522 238.377 22.2805V22.3043ZM441.237 264.027C440.769 264.376 440.38 264.86 440.38 265.113C440.38 265.367 440.769 265.566 441.237 265.566C441.493 265.53 441.724 265.397 441.884 265.194C442.044 264.992 442.119 264.736 442.094 264.479C442.094 263.876 441.705 263.678 441.237 264.027ZM252.148 12.3816C255.322 13.8648 252.751 15.237 246.841 15.1815C242.081 15.1815 241.74 15.2529 243.287 16.2127C244.414 16.9027 246.46 17.1407 249.181 16.871C252.069 16.5855 253.941 16.8234 255.242 17.6642C256.281 18.3225 257.13 18.8778 257.13 18.8857C257.13 18.8936 259.137 17.807 261.589 16.4585C264.04 15.1101 266.555 13.968 267.094 13.968C267.633 13.968 270.045 12.8654 272.385 11.5091C274.725 10.1527 277.407 9.05022 278.335 9.05022C282.159 9.05022 291.472 6.1551 297.191 3.17273L303.3 0L299.603 0.499706C297.564 0.769388 291.266 1.29289 285.601 1.69741C274.678 2.443 258.035 4.11662 257.678 4.49735C257.186 5.03671 268.926 5.79024 270.624 5.33019C273.067 4.66392 273.908 6.24235 271.766 7.48765C270.651 8.12748 267.916 8.29669 263.564 7.99528C256.527 7.50351 254.354 8.05874 256.329 9.83547C258.185 11.5012 256.86 12.4847 253.457 11.9771C250.847 11.5884 250.633 11.6598 252.148 12.3816ZM240.249 9.93065C243.248 10.6366 244.35 10.4383 247.079 8.73294C249.808 7.0276 249.776 6.92449 248.444 5.88542C246.762 4.5608 243.057 5.09223 239.146 7.26556C236.497 8.72501 236.632 9.04228 240.281 9.90685L240.249 9.93065ZM231.332 34.5193C233.389 34.2914 235.469 34.4039 237.488 34.8525C240.431 35.5187 241.51 35.4473 243.375 34.4797C245.501 33.3771 245.818 33.4009 248.198 34.8763C250.027 36.2092 251.568 37.8982 252.727 39.8416C253.806 41.6976 254.957 43.2205 255.274 43.2205C256.022 43.4378 256.718 43.8048 257.321 44.2993C258.733 45.3383 258.701 45.4177 256.527 46.2426C255.909 46.5365 255.235 46.6936 254.55 46.7032C253.866 46.7128 253.187 46.5746 252.561 46.2981C250.522 45.3621 246.857 46.8692 246.056 48.9632C245.651 50.0023 244.898 50.1292 241.479 49.7008C236.981 49.1298 232.943 50.3671 235.18 51.6203C235.822 51.9852 237.441 51.9455 238.877 51.5331C243.129 50.3116 244.58 50.6289 246.159 53.1195C247.354 54.7682 248.851 56.1757 250.57 57.2678C253.497 59.0683 257.233 59.6949 257.963 58.5131C258.169 58.172 257.336 57.2916 256.107 56.5619C252.14 54.2378 255.012 52.8022 259.225 54.9755C261.366 56.086 261.485 56.0622 262.279 54.3251C262.913 52.9132 262.834 51.9931 261.89 50.1688C260.74 47.94 260.756 47.7893 262.183 46.9961C263.35 46.3695 264.357 46.5281 266.673 47.7179C269.997 49.4153 271.179 49.2408 272.687 46.8295C273.781 45.0687 273.892 45.2432 268.823 41.5786C268.229 41.1551 267.757 40.5823 267.454 39.918C267.152 39.2537 267.031 38.5215 267.102 37.7952C267.102 35.4156 266.864 35.1697 263.421 34.0751C261.37 33.4648 259.516 32.3271 258.042 30.7755C256.607 28.967 256.123 28.7767 254.798 29.4826C252.601 30.6645 252.299 30.5931 248.412 28.0073C245.485 26.064 244.485 25.7784 242.153 26.2147C240.214 26.7123 238.413 27.6424 236.885 28.9353C233.657 31.7828 232.538 30.3155 235.513 27.1348L237.671 24.8266L234.648 25.366C230.856 26.0719 224.51 30.6248 224.51 32.6712C224.51 33.7975 228.937 34.9714 231.364 34.5193H231.332ZM268.284 107.318C270.941 106.588 271.076 106.413 270.291 104.724C269.978 104.147 269.545 103.644 269.02 103.248C268.496 102.853 267.893 102.574 267.253 102.432C264.333 101.805 263.246 99.8538 264.873 98.1247C265.579 97.3315 265.729 96.808 265.23 96.808C264.73 96.808 261.945 99.1875 258.987 102.035L253.608 107.254L256.472 107.548C262.199 108.143 265.531 108.071 268.316 107.318H268.284ZM452.121 14.2456C453.708 14.7532 454.501 14.6739 454.929 13.968C455.358 13.262 455.723 13.1748 456.389 13.9124C456.665 14.1786 457.005 14.3678 457.377 14.461C457.749 14.5543 458.138 14.5484 458.507 14.4439C459.57 14.079 459.586 14.1425 458.602 14.9039C457.622 15.4918 456.501 15.8017 455.358 15.8002C452.431 15.8002 452.795 16.7441 456.516 18.7984L459.689 20.5672L462.156 17.6325C463.513 16.0461 464.615 14.3963 464.615 14.0235C464.615 12.8972 467.408 13.2858 468.384 14.547C468.625 14.8318 468.789 15.1745 468.859 15.5416C468.928 15.9087 468.901 16.2875 468.78 16.641C468.415 17.2755 469.074 17.3786 470.986 16.9979C472.747 16.641 473.715 16.752 473.715 17.3231C473.715 17.8942 474.214 17.9973 474.833 17.7435C475.793 17.3469 475.801 17.1248 474.889 16.1571C474.42 15.5909 473.784 15.1882 473.072 15.007C471.922 15.007 467.662 12.2309 467.654 11.4774C467.654 11.1125 468.249 11.0014 468.979 11.2315C472.556 12.3657 475.825 12.5799 477.705 11.8105C481.322 10.3352 480.085 9.28817 474.635 9.28817C471.636 9.28817 469.082 8.87572 468.566 8.30463C467.86 7.51144 467.662 7.51144 467.662 8.30463C467.645 8.57816 467.522 8.83436 467.319 9.01825C467.116 9.20214 466.849 9.29904 466.575 9.28817C465.98 9.28817 465.337 10.0814 465.155 11.1284L464.877 12.9447L464.314 11.1125C463.751 9.28817 461.649 8.49499 461.649 10.1052C461.649 10.6524 459.173 10.7476 454.453 10.3907C448.25 9.92272 447.25 10.0258 447.25 11.1046C447.234 12.3816 448.123 12.9606 452.121 14.2456ZM406.967 87.385C407.222 87.3493 407.454 87.2164 407.614 87.0139C407.774 86.8113 407.849 86.555 407.824 86.2983C407.824 85.6955 407.435 85.5051 406.967 85.8462C406.499 86.1873 406.11 86.6394 406.11 86.9328C406.11 87.1787 406.499 87.385 406.967 87.385ZM406.301 35.1301C407.134 35.1301 407.824 34.7414 407.824 34.2576C407.824 33.1392 407.102 33.1392 405.785 34.2576C404.968 34.9476 405.063 35.1221 406.301 35.1301V35.1301ZM544.896 33.7975C546.633 34.4887 548.461 34.9216 550.323 35.0825H552.647L550.902 33.8451C548.617 32.2588 548.696 30.3155 551.187 27.3014C553.567 24.4459 557.137 22.7406 563.087 21.646C569.036 20.5514 570.147 20.1627 569.6 19.2664C569.314 18.7984 567.783 18.6795 565.903 18.9729C564.023 19.2664 560.429 19.663 557.661 19.8851C555.151 20.0533 552.676 20.5548 550.299 21.3763C548.07 22.4074 544.912 25.485 544.889 26.6509C544.889 26.9603 544.175 27.7455 543.302 28.4039C542.429 29.0622 542.049 29.6095 542.421 29.6254C542.794 29.6412 542.659 30.1885 542.12 30.8548C541.033 32.3063 540.93 32.2112 544.896 33.7975ZM260.462 110.942C260.462 111.648 260.66 112.227 260.906 112.227C261.152 112.227 261.644 111.648 262.001 110.942C262.358 110.237 262.16 109.658 261.557 109.658C261.242 109.686 260.952 109.836 260.747 110.077C260.542 110.317 260.44 110.628 260.462 110.942V110.942ZM406.539 59.1159C407.245 59.1159 407.824 58.7273 407.824 58.2593C407.824 57.7913 407.245 57.4026 406.539 57.4026C405.833 57.4026 405.253 57.7913 405.253 58.2593C405.253 58.7273 405.833 59.1159 406.539 59.1159ZM406.221 98.2754C407.681 97.9977 411.521 97.3711 414.765 96.8794C419.176 96.221 420.445 95.7689 419.802 95.1026C419.16 94.4364 419.43 93.8653 420.905 92.8659C423.079 91.3905 422.801 89.7566 420.485 90.3911C419.358 90.6925 418.724 90.1135 417.756 87.9005C415.741 83.2683 413.789 80.627 411.703 79.818L409.783 79.0248L411.489 77.145L413.186 75.2731L411.409 75.043C410.426 74.8923 409.712 74.3292 409.823 73.7977C409.934 73.2663 409.759 72.838 409.45 72.8459C407.364 72.8935 405.127 76.9625 406.102 78.9376C406.477 79.671 406.597 80.5081 406.443 81.3171C406.118 82.261 407.054 82.6338 409.077 82.3562C409.95 82.2372 411.528 85.2989 411.528 87.1153C411.528 87.5436 410.505 88.2654 409.26 88.7016C408.014 89.1379 407.205 89.8835 407.483 90.3515C407.76 90.8194 407.348 91.6523 406.586 92.2313C405.309 93.2069 405.388 93.3259 407.625 93.8177C410.886 94.4919 411.314 95.523 408.736 96.4907C407.562 96.9269 405.92 97.6408 405.087 98.0771C403.921 98.6006 404.19 98.664 406.221 98.2754V98.2754ZM213.285 53.0639C211.524 55.0231 212.738 55.729 216.212 54.7693C218.251 54.1982 219.385 54.2616 220.845 55.039C222.495 55.9115 222.86 55.9035 223.384 54.9676C224.177 53.4923 222.852 51.9773 219.79 51.0017C217.069 50.0657 215.538 50.5575 213.285 53.0719V53.0639ZM71.0242 79.4373C70.0802 80.2305 70.0326 80.6588 70.7862 81.5789C71.5398 82.499 71.8175 82.499 72.4442 81.0792C73.3564 79.009 72.579 78.1206 71.0242 79.4373ZM298.873 294.897C296.151 294.114 293.686 292.619 291.734 290.567C289.021 287.751 288.275 287.394 282.619 286.601C277.304 285.847 276.217 285.895 274.622 286.982C272.623 288.338 271.941 287.679 272.242 284.681C272.361 283.603 271.449 282.587 269.133 281.247C265.587 279.192 264.643 279.351 260.652 282.698C259.113 283.991 258.344 284.158 256.868 283.547C255.79 283.103 255.512 282.754 256.202 282.754C256.892 282.754 258.154 281.865 259.082 280.842C260.668 279.121 260.668 278.875 259.542 277.67C257.67 275.726 256.424 276.083 252.696 279.66C250.133 282.111 249.07 282.698 248.42 282.04C247.769 281.382 248.317 280.39 250.625 278.074C254.243 274.505 255.893 271.681 254.79 270.935C254.378 270.674 253.632 268.857 253.14 266.914C251.482 260.386 244.414 255.016 239.226 256.357C236.711 257.015 230.999 254.294 229.206 251.598C225.454 245.918 215.451 239.613 211.754 240.572C209.327 241.207 200.846 238.827 199.26 237.067C197.094 234.687 195.15 234.465 192.636 236.392C190.121 238.32 189.827 239.367 191.128 240.715C191.676 241.278 191.47 242.103 190.478 243.38C189.074 245.173 189.018 245.181 188.249 243.69C187.321 241.897 188.146 236.131 189.574 234.338C191.279 232.204 187.789 232.918 185.805 235.131C184.83 236.21 183.322 237.106 182.458 237.114C180.387 237.114 177.928 239.256 176.468 242.278C175.767 243.693 174.762 244.936 173.525 245.918C171.891 247.029 171.598 246.981 169.519 245.252C166.917 243.087 164.878 242.92 161.134 244.546C158.754 245.569 158.191 245.569 156.319 244.546C154.778 243.54 153.482 242.201 152.527 240.628C150.94 237.891 150.893 237.725 152.027 230.317C152.654 226.176 153.003 222.313 152.82 221.742C152.281 220.275 147.64 219.696 142.563 220.457C137.01 221.29 136.756 220.632 140.009 213.319C144.768 202.666 145.125 201.516 144.062 200.818C142.777 199.969 141.389 200.025 138.049 200.969C135.828 201.611 135.09 202.325 134.4 204.49C133.321 207.893 130.37 210.106 125.476 211.193C118.971 212.644 115.853 209.956 113.576 200.969L112.355 196.075L114.734 188.5C116.051 184.328 117.448 180.013 117.836 178.902C118.288 177.633 119.994 176.118 122.485 174.786C124.651 173.628 127.61 171.97 129.053 171.105C132.163 169.249 133.71 169.146 136.479 170.614C137.873 171.301 139.339 171.833 140.85 172.2C142.825 172.644 143.293 172.43 144.023 170.804C144.782 169.479 146.001 168.48 147.45 167.996C149.631 167.251 150.623 167.37 153.661 168.726C155.652 169.614 157.945 170.122 158.754 169.852C159.722 169.535 160.864 169.987 162.102 171.201C163.633 172.692 163.895 173.509 163.506 175.642C162.951 178.72 164.934 185.66 166.56 186.303C167.242 186.58 168.067 185.898 168.773 184.486C169.717 182.591 169.757 181.139 169.043 175.373C168.25 169.186 168.321 168.234 169.575 165.855C170.987 163.126 177.96 157.471 182.87 155.083C187.63 152.751 189.835 149.697 189.915 145.232C189.994 140.766 191.422 138.371 192.374 140.933C192.874 142.297 192.969 142.249 193.373 140.481C193.619 139.402 194.96 137.752 196.436 136.816C198.074 135.707 199.601 134.442 200.997 133.041C202.525 131.64 204.331 130.575 206.296 129.915C212.055 128.099 213.698 127.02 214.181 124.752C214.57 122.904 215.768 122.095 222.455 119.017C226.763 117.05 231.467 115.21 232.919 114.924C236.647 114.202 237.203 115.797 233.712 117.304C229.817 118.993 228.556 120.143 229.746 120.913C230.269 121.246 232.205 120.715 234.133 119.707C235.96 118.738 237.882 117.959 239.868 117.383C241.489 116.933 243.022 116.214 244.406 115.257L246.659 113.671L243.732 114.179C240.019 114.829 236.917 113.528 235.727 110.824C234.934 109.015 235.013 108.571 236.275 107.508C237.226 106.657 238.03 105.654 238.654 104.542C239.503 102.892 239.4 102.804 236.679 102.804C235.093 102.804 231.745 103.828 229.159 105.097C224.756 107.262 223.606 107.397 223.606 105.779C223.606 105.398 226.589 103.606 230.222 101.813C236.425 98.7195 237.274 98.5133 243.652 98.4499C252.291 98.3705 255.242 97.736 261.858 94.4839C267.94 91.5122 269.839 88.9449 267.554 86.7821C266.007 85.3227 263.492 85.1958 261.295 86.3856C259.098 87.5753 257.789 86.0603 259.804 84.593C261.335 83.4825 261.335 83.4825 259.589 80.2939C258.376 78.0651 258.058 76.7166 258.534 75.8283C258.741 75.3873 258.84 74.9036 258.824 74.4169C258.807 73.9301 258.675 73.4542 258.439 73.0284C258.007 72.2313 257.869 71.3073 258.05 70.4188C258.25 69.4764 258.176 68.4965 257.836 67.595L257.217 65.8659L254.655 67.952C252.948 69.2419 251.157 70.4158 249.292 71.4658L246.556 72.9332L244.874 71.0771C243.478 69.4908 243.343 68.9435 244.081 67.5475C244.557 66.5962 244.707 65.515 244.509 64.4699C243.938 62.598 239.186 59.9488 235.172 59.2666C230.642 58.4734 227.953 59.8298 226.279 63.6767C225.457 65.5061 224.241 67.1312 222.717 68.4358C220.797 69.8556 220.583 70.4029 221.004 72.7349C221.646 76.3121 219.227 79.4928 213.396 82.729C209.43 84.9182 208.819 85.6162 207.438 89.3679C205.995 93.3338 203.67 95.7134 201.195 95.753C200.688 95.753 199.751 94.7298 199.117 93.4528C198.054 91.3271 198.078 90.8115 199.45 87.2025C201.037 82.9907 201.037 82.9035 197.586 82.1262C195.234 81.3959 192.955 80.4479 190.779 79.2945C188.655 78.1681 186.429 77.2439 184.132 76.5342C183.459 76.3834 182.833 76.0704 182.309 75.6225C181.785 75.1745 181.379 74.6053 181.125 73.9643C180.719 72.9133 180.082 71.9672 179.261 71.1961C176.437 69.348 184.227 62.3204 193.421 58.4179C196.253 57.2202 197.578 56.2129 197.578 55.2452C197.578 54.1268 198.268 53.8254 200.989 53.7302C203.256 53.6052 205.502 53.241 207.692 52.6436L210.984 51.6759L209.334 49.8436C207.399 47.71 208.335 46.6709 211.04 47.9241C212.484 48.6062 213.38 48.5269 215.213 47.5355C217.299 46.6739 219.54 46.2474 221.797 46.2822C226.787 46.2822 228.484 45.489 231.808 41.7294C234.601 38.5566 234.751 38.0093 233.07 37.3351C231.861 36.8308 230.527 36.7125 229.248 36.9966C227.97 37.2806 226.811 37.9529 225.93 38.9215C221.519 43.8313 214.999 45.14 217.902 40.5079C218.957 38.8342 218.973 38.517 218.013 38.1283C217.306 37.8866 216.539 37.8866 215.831 38.1283C214.189 38.7866 212.873 35.6932 213.928 33.6389C214.546 32.4412 214.554 31.7511 213.928 31.1245C213.301 30.4979 211.928 30.8548 208.835 32.4332C204.686 34.5431 204.614 34.6304 206.193 35.7805C208.43 37.3668 207.169 39.6988 203.448 40.7696C201.769 41.2805 200.186 42.0629 198.76 43.0857C196.927 44.5689 196.864 44.5689 194.793 43.0381C193.151 41.8245 191.985 41.5866 189.47 41.9673C187.18 42.2321 184.86 42.0049 182.664 41.301C179.538 40.3096 178.594 40.3096 175.524 41.301C173.536 41.8967 171.743 43.0109 170.328 44.5293L168.742 46.6392L167.393 44.1089C166.156 41.6262 166.116 41.6104 161.674 42.0942C159.214 42.356 156.581 42.3242 155.827 42.0228C154.51 41.4914 154.51 41.42 155.914 40.3413C157.318 39.2626 157.342 39.2229 155.7 39.2229C153.518 38.9068 151.376 38.3536 149.314 37.5731C145.919 36.3754 143.594 36.0422 140.937 36.3674C138.414 36.6768 136.566 36.4468 135.067 35.6377C133.409 34.7493 132.504 34.67 131.338 35.3125C130.433 35.7926 129.385 35.9306 128.387 35.7012C127.594 35.4394 124.238 35.955 120.914 36.8354C113.378 38.8342 109.015 38.858 102.24 36.9306C99.0153 36.0381 95.7343 35.3624 92.4192 34.908C89.9283 34.6224 84.8988 33.8689 81.2576 33.2423C75.3476 32.227 73.6738 32.2429 65.7885 33.3692C60.9256 34.0672 54.7696 35.4949 52.0963 36.5419C49.4229 37.5889 46.3132 38.4376 45.1708 38.4376C42.8941 38.4376 38.3406 39.8971 38.3406 40.6268C38.7331 41.4533 39.2704 42.2028 39.9272 42.8398L41.5137 44.6007L39.1339 45.8936C37.5216 46.7816 35.6445 47.063 33.8426 46.6867C30.6695 46.1395 25.9097 47.1944 23.6092 48.9473C22.2209 50.0102 22.324 50.1371 25.3941 50.9937C27.9405 51.7076 29.186 51.6997 30.9074 50.9937C34.5249 49.4074 35.104 51.2317 31.7404 53.6033C29.8365 54.9517 26.9807 55.9273 23.2839 56.5063C16.3664 57.593 13.1457 59.338 13.7327 61.7493C14.3197 64.1606 13.5106 65.8342 10.8848 67.246L8.56838 68.4913L10.7023 69.6494C12.3603 70.5536 13.2409 70.6171 14.6688 69.9349C16.6203 69.0148 18.2465 69.467 17.5008 70.7281C16.89 71.7513 10.3612 75.1779 3.92763 77.8112C0.167427 79.3976 -0.792456 80.0084 0.619602 80.0401C2.81702 80.0877 10.7341 77.1767 16.2633 74.2816C18.236 73.2479 20.3128 72.4263 22.4589 71.8306C25.3741 70.8683 28.1879 69.6223 30.8598 68.1106C35.5482 65.5645 36.8968 65.1441 38.1264 65.8262C39.7685 66.7384 43.7984 65.9135 47.6062 63.883C49.4387 62.8994 50.3748 62.9549 55.674 64.3589C58.0715 65.049 60.5123 65.579 62.9802 65.9452C63.7021 65.9452 65.3601 66.8019 66.6849 67.8409C68.2853 69.0533 70.0114 70.0904 71.8333 70.9343C74.6495 72.1558 75.4745 73.7977 75.2603 77.7319C75.1176 80.1908 75.5618 81.8803 76.5375 82.6259C76.9739 82.959 76.7755 83.2049 76.0616 83.2128C74.3481 83.2128 72.7694 87.3929 73.769 89.2569C74.3401 90.3118 74.237 91.0336 73.3802 92.0171C72.3252 93.2228 72.5314 93.6511 75.7046 96.8556C77.6244 98.783 79.1871 100.901 79.1871 101.551C79.1648 101.832 79.2176 102.114 79.3403 102.368C79.463 102.621 79.6511 102.838 79.8852 102.995C80.2739 103.138 79.6631 104.668 78.5287 106.398C76.601 109.324 74.8875 110.022 75.1334 107.77C75.1889 107.23 74.5067 106.794 73.6182 106.802C72.3807 106.802 71.5715 107.841 70.1833 111.165C68.8446 114.1 67.1212 116.845 65.0586 119.326C63.2594 121.386 61.7489 123.681 60.5686 126.148C59.7953 127.996 58.7498 129.717 57.4668 131.256C56.4197 132.414 55.7771 133.707 56.0389 134.143C56.3007 134.579 56.1103 135.833 55.6343 136.927C54.9283 138.514 54.9918 139.307 55.9913 140.893C56.6735 141.972 56.9195 143.051 56.5387 143.273C56.1579 143.495 56.1262 144.803 56.4832 146.263C56.8401 147.722 57.3161 150.094 57.57 151.665C57.9349 153.885 58.5457 154.742 60.3227 155.504C63.4006 156.828 65.0824 160.263 64.4319 164.11C64.0511 166.449 64.3685 167.972 65.9074 171.121C67.4464 174.27 67.6924 175.484 67.0974 176.674C66.074 178.657 66.669 180.037 69.4773 182.17C71.3098 183.574 71.6826 184.32 71.3098 185.874C70.9369 187.429 71.405 188.548 73.1819 190.848C76.1726 194.766 77.3943 194.814 75.4983 190.975C74.5361 188.797 73.8589 186.504 73.4834 184.153C72.9212 181.187 72.0243 178.295 70.81 175.531C67.9383 169.091 67.5654 167.147 68.8664 165.307C69.7866 163.999 70.2388 163.903 71.8492 164.665C73.4596 165.426 73.8483 166.33 74.2291 169.424C74.8172 172.555 75.9848 175.549 77.672 178.252C79.2585 180.973 80.4167 183.511 80.1946 183.884C79.9725 184.256 81.1069 186.057 82.7173 187.85C84.5616 190.006 86.136 192.379 87.4056 194.917C88.9446 198.208 89.0636 199.097 88.3576 201.984C87.5643 205.157 87.6595 205.411 89.9442 207.949C91.4355 209.583 96.2905 212.565 102.454 215.69L112.545 220.767L115.837 219.458C118.82 218.276 119.328 218.268 121.39 219.371C122.944 220.318 124.293 221.567 125.357 223.043C126.332 224.463 128.776 226.303 131.116 227.374C135.59 229.436 137.462 229.682 138.684 228.381C139.279 227.762 139.747 228.286 140.374 230.253C140.868 231.777 141.679 233.18 142.754 234.37C143.613 235.231 144.139 236.369 144.237 237.582C144.216 238.532 144.553 239.455 145.181 240.168C145.697 240.596 147.561 242.198 149.243 243.729C150.924 245.26 152.733 246.521 153.209 246.521C154.582 246.897 155.898 247.457 157.12 248.187C160.293 249.9 161.245 249.734 161.261 247.465C161.261 245.577 164.91 244.451 167.322 245.593C168.972 246.386 169.146 246.751 168.456 248.084C168.012 248.956 167.941 249.67 168.305 249.67C168.67 249.67 168.996 250.114 169.043 250.654C169.091 251.193 169.503 253.216 169.963 255.159C171.185 260.243 169.892 264.677 165.481 270.428C158.841 279.153 157.287 284.261 160.991 285.268C162.491 285.673 162.467 285.808 160.238 289.171C158.183 292.272 158.016 292.962 158.651 295.429C159.09 297.011 160.001 298.422 161.261 299.474C163.197 300.791 166.021 305.978 167.607 311.134C168.538 313.52 169.793 315.768 171.336 317.813C173.202 320.407 174.842 323.156 176.238 326.03C178.142 330.115 178.824 330.789 183.703 333.454C190.518 337.174 196.039 342.806 197.237 347.263C197.809 349.969 198.059 352.732 197.982 355.497C197.61 368.148 198.347 382.021 199.799 389.469C200.751 394.218 201.018 399.079 200.592 403.905C200.267 409.274 200.394 411.995 200.997 412.757C201.481 413.359 201.933 415.445 202.012 417.397C202.131 420.411 202.631 421.45 205.336 424.305C207.478 426.574 208.359 428.097 208.041 428.961C207.772 429.699 208.248 431.238 209.144 432.554C211.032 435.307 210.62 439.415 208.351 440.153C206.391 440.796 206.574 441.478 209.104 442.969C210.532 443.818 211.738 445.555 212.627 448.077C214.396 453.066 217.577 458.388 219.1 458.959C220.061 459.511 220.832 460.341 221.313 461.339C222.011 462.695 222.741 463.163 223.693 462.854C224.594 462.619 225.551 462.729 226.374 463.163C228.223 464.242 232.348 461.26 231.134 459.729C229.793 458.039 230.055 454.486 231.8 450.948C233.546 447.411 233.157 444.309 230.88 443.405C229.886 442.791 229.055 441.944 228.461 440.938C227.247 439.011 227.271 438.828 229.175 436.243C230.341 434.656 230.96 433.07 230.682 432.277C230.593 431.792 230.618 431.292 230.756 430.819C230.894 430.345 231.14 429.91 231.475 429.548C232.681 428.152 232.665 428.049 231.182 427.557C229.964 426.917 228.991 425.894 228.413 424.646C226.827 421.41 227.929 420.323 231.118 422.037C232.451 422.751 233.633 423.219 233.744 423.084C235.14 421.355 235.624 419.118 234.902 417.706C233.736 415.437 234.577 414.581 237.956 414.581C241.78 414.581 245.889 412.526 246.96 410.076C247.65 408.489 247.508 407.537 246.167 404.769C245.271 402.913 243.732 401.009 242.74 400.541C241.748 400.074 240.947 399.328 240.947 398.892C240.947 397.718 243.113 397.9 247.166 399.407C251.839 401.144 253.775 400.121 256.995 394.212C258.258 391.878 259.637 389.609 261.128 387.414C262.074 386.138 262.677 384.642 262.882 383.068C262.966 381.76 263.378 380.494 264.079 379.387C265.058 378.03 265.721 376.47 266.019 374.823C266.317 373.176 266.242 371.484 265.801 369.869C265.008 367.283 265.063 367.045 267.506 364.88C269.244 363.413 271.157 362.169 273.202 361.176C274.924 360.383 276.574 359.336 276.867 358.836C277.161 358.336 278.454 358.098 280.167 358.376C282.238 358.709 283.341 358.439 284.665 357.289C288.679 353.768 292.844 337.277 291.948 328.441C291.496 323.92 291.599 323.444 293.431 321.54C294.681 320.16 295.748 318.625 296.604 316.972C297.677 314.975 298.917 313.073 300.309 311.285C303.482 307.2 304.672 302.893 303.665 299.022C303.117 296.405 302.697 296.048 298.873 294.897ZM214.308 27.8487C214.54 28.0842 214.843 28.2368 215.17 28.2827C215.497 28.3286 215.83 28.2652 216.117 28.1025C217.654 27.6009 219.23 27.2269 220.829 26.9841C225.01 26.2861 226.612 24.9773 224.217 24.2159C220.924 23.1768 213.174 26.0164 214.308 27.8487V27.8487ZM256.607 459.253C252.743 459.031 251.395 459.253 251.91 459.927C252.172 460.3 251.91 460.609 251.363 460.617C250.816 460.625 250.99 460.966 251.839 461.41C253.021 461.997 253.537 461.926 254.274 461.061C254.67 460.531 255.226 460.144 255.861 459.959C256.218 459.959 256.091 460.324 255.575 460.752C255.126 461.083 254.795 461.551 254.631 462.085C254.631 463.013 256.273 462.672 258.257 461.339C260.407 459.887 260.065 459.459 256.607 459.253ZM69.5962 75.043C68.7395 75.5903 68.319 76.3914 68.676 76.8356C69.033 77.2798 69.6756 77.2005 70.2626 76.5422C71.6588 74.7813 71.3018 73.9326 69.5962 75.043ZM230.063 230.443C229.817 230.443 229.611 230.832 229.611 231.3C229.647 231.555 229.78 231.787 229.982 231.947C230.185 232.106 230.441 232.182 230.698 232.157C231.301 232.157 231.491 231.768 231.158 231.3C230.825 230.832 230.325 230.443 230.063 230.443ZM70.5482 97.7836C68.7316 98.4895 69.0409 99.5841 71.7699 102.186C73.1185 103.471 74.8875 104.518 75.7363 104.518C77.4895 104.518 77.5054 104.415 76.3154 101.757C75.1255 99.1003 72.1982 97.149 70.5482 97.7836ZM161.61 27.92C159.008 29.0622 159 29.0939 160.817 29.5699C163.379 30.2282 163.197 31.4418 160.444 31.878C158.81 32.1398 159.421 32.346 162.697 32.6712C165.18 32.9012 167.203 33.4644 167.203 33.853C167.203 34.2417 164.823 34.789 161.991 35.0032L156.771 35.3839L160.484 37.0892C162.276 37.9456 164.15 38.6205 166.076 39.1039C169.757 39.6988 170.503 39.5957 174.057 38.0411C177.23 36.6609 178.103 36.5737 181.196 37.3351C184.29 38.0966 185.163 38.0331 188.749 36.3516L192.715 34.4955L190.288 33.2026L187.868 31.9097L189.351 29.4192C189.977 28.4674 190.476 27.4381 190.835 26.3575C190.835 25.0566 187.971 25.9133 186.313 27.7217C184.528 29.665 183.029 29.8792 182.854 28.2135C182.799 27.7217 182.72 26.9365 182.664 26.4606C182.608 25.9847 181.918 26.0481 180.752 26.8254C179.11 27.928 178.563 27.928 175.08 26.873C170.609 25.608 165.832 25.9792 161.61 27.92V27.92ZM201.624 38.0728C204.464 36.7402 204.503 36.6609 202.639 36.1374C201.135 35.8691 199.587 36.0004 198.149 36.5181C196.142 37.2558 195.817 37.6603 196.562 38.4852C197.824 39.794 198.006 39.7781 201.624 38.0728ZM202.71 29.9744C202.71 32.5284 209.509 28.9908 210.945 25.6833C211.556 24.2793 211.802 23.1371 211.5 23.1371C209.683 23.1371 205.154 25.2074 204.63 26.2306C204.218 27.0951 203.282 27.3014 201.409 26.9524L198.776 26.4606L200.711 27.8011C201.83 28.5467 202.71 29.5223 202.71 29.9744ZM150.441 31.6163C156.731 28.9194 164.72 26.175 168.472 25.4056L173.073 24.4697L169.622 23.391C163.387 21.4318 159.897 21.9553 152.963 25.8736C147.029 29.2129 146.752 29.4905 147.989 30.7596C148.287 31.1052 148.67 31.3663 149.1 31.5167C149.53 31.6671 149.993 31.7014 150.441 31.6163V31.6163ZM239.686 467.137C237.258 465.551 234.815 464.305 234.26 464.305C233.704 464.305 232.903 465.194 232.491 466.273C231.594 468.605 232.649 469.977 236.409 471.373C237.87 471.882 239.42 472.085 240.963 471.968C242.561 471.764 244.168 471.642 245.778 471.603L248.467 471.539L246.286 470.746C243.991 469.725 241.784 468.518 239.686 467.137V467.137ZM26.4174 73.8612C22.9904 74.6544 20.5709 75.5427 20.5709 76.0662C20.5709 76.3201 21.1976 76.3042 21.9671 76.0662C23.1493 75.6828 24.355 75.3755 25.5765 75.1461C26.7903 74.9161 27.9564 74.4323 28.2341 74.0595C28.5117 73.6867 27.7184 73.5677 26.4174 73.8612ZM592.883 347.977C592.415 348.326 592.026 348.77 592.026 349.064C592.026 349.357 592.415 349.516 592.883 349.516C593.138 349.48 593.37 349.347 593.53 349.145C593.689 348.942 593.764 348.686 593.739 348.429C593.739 347.827 593.39 347.628 592.883 347.977ZM747.804 291.463C747.256 289.64 746.338 287.95 745.107 286.498L741.204 281.889C740.438 281.083 739.847 280.127 739.467 279.081C739.332 276.741 738.031 274.87 735.278 273.069C732.526 271.269 731.193 270.015 725.156 263.329C722.966 260.902 717.866 257.896 715.882 257.856C714.359 257.856 716.596 261.734 720.245 265.455C721.917 267.133 723.365 269.021 724.553 271.07C725.761 273.291 727.11 275.431 728.591 277.479C730.343 279.967 731.842 282.625 733.065 285.411C734.699 289.44 739.705 295.937 742.481 297.61C745.464 299.458 748.685 295.714 747.804 291.463ZM757.165 209.765C758.633 207.346 758.633 207.33 756.919 207.33C753.056 207.33 750.97 209.757 753.08 211.788C754.428 213.057 755.452 212.565 757.165 209.749V209.765ZM885.734 313.521C881.268 310.016 876.952 303.773 878.055 302.417C879.396 300.735 877.047 297.658 871.637 293.954C868.886 292.071 865.965 290.451 862.911 289.115C860.952 288.385 857.16 286.736 854.494 285.522L849.647 283.254L846.149 285.332C844.414 286.314 842.83 287.54 841.445 288.972C840.255 290.503 840.215 290.495 838.597 288.37C837.776 287.37 837.213 286.186 836.955 284.919C836.955 282.786 834.709 280.16 832.925 280.16C831.74 280.259 830.588 280.605 829.545 281.175C827.871 282.143 827.959 282.214 831.425 283.975C834.725 285.641 834.908 285.879 833.646 286.831C831.52 288.417 832.687 291.138 835.503 291.138C836.74 291.138 840.389 292.518 843.626 294.199C848.322 296.642 849.758 297.824 850.766 300.085C852.067 302.901 852.067 302.917 850.131 304.233C848.465 305.36 848.362 305.645 849.401 306.248C850.278 306.649 851.271 306.716 852.194 306.438C853.288 306.073 854.367 306.502 855.779 307.866C857.172 309.081 858.847 309.929 860.65 310.333C863.316 310.825 863.601 310.69 865.069 308.112C865.925 306.597 867.298 305.137 868.115 304.868C870.138 304.201 874.089 306.724 876.246 310.047C878.134 312.95 880.316 314.41 885.115 315.98C890.565 317.709 890.644 317.352 885.734 313.506V313.521ZM875.009 354.243C873.704 351.282 872.007 348.51 869.963 346.002C867.544 343.44 867.409 343.036 868.115 340.521C869.178 336.73 867.806 330.313 865.434 328.021C864.418 327.037 863.054 324.348 862.403 322.048C861.753 319.748 860.928 317.86 860.563 317.86C859.476 317.86 857.39 324.206 856.906 328.814C856.717 331.696 855.676 334.457 853.915 336.746C852.503 338.76 850.94 340.545 850.44 340.712C849.941 340.878 846.91 339.125 843.698 336.785C836.724 331.733 835.971 330.004 838.811 325.578C841.024 322.143 840.826 321.874 834.892 320.232C832.131 319.439 831.267 319.55 828.815 320.819C827.29 321.614 825.697 322.273 824.056 322.786C822.112 323.278 818.13 328.417 819.002 329.314C819.264 329.591 819.113 330.281 818.653 330.845C817.709 332.018 815.734 331.257 812.957 328.647C811.45 327.236 811.173 327.22 808.396 328.37C806.496 329.241 804.856 330.591 803.636 332.288C802.653 333.771 801.201 335.199 800.423 335.461C799.984 335.608 799.614 335.912 799.383 336.314C799.152 336.716 799.076 337.188 799.17 337.642C799.345 339.332 798.908 339.506 796.687 338.626C795.894 338.308 794.974 339.292 793.649 341.878C791.507 346.058 787.62 349.135 784.478 349.135C783.32 349.135 778.592 350.785 773.967 352.8C765.82 356.353 765.527 356.567 764.321 359.82C763.639 361.66 763.274 363.928 763.527 364.856C763.781 365.784 763.599 369.687 763.155 373.534C762.568 378.626 762.583 381.759 763.218 385.066C764.011 389.032 763.908 390.024 762.623 393.125C761.83 395.053 760.624 396.853 759.958 397.091C758.133 397.813 759.307 399.788 762.123 400.74C764.226 401.462 765.408 401.287 769.556 399.677C772.842 398.488 776.246 397.658 779.711 397.202C782.726 396.869 785.67 396.066 788.437 394.823C792.729 392.602 799.289 390.857 806.088 390.175C810.72 389.699 811.538 389.834 813.957 391.475C815.871 392.949 817.392 394.873 818.384 397.075C819.336 399.145 820.24 400.486 820.391 400.05C820.541 399.613 822.199 398.202 824.079 396.877C828.435 393.863 829.72 394.918 826.459 398.789C825.119 400.375 824.238 401.874 824.508 402.152C824.777 402.429 825.301 402.033 825.729 401.287C826.721 399.463 827.919 399.558 827.919 401.454C827.986 402.63 828.254 403.786 828.712 404.872C829.023 405.439 829.178 406.078 829.163 406.724C829.148 407.37 828.962 408.001 828.625 408.553C827.832 410.139 827.919 410.52 829.498 411.773C832.441 414.153 836.122 414.898 838.081 413.573C839.62 412.534 839.914 412.606 841.516 414.367L843.261 416.286L845.935 414.192C847.587 412.796 849.681 412.031 851.845 412.035C854.827 411.971 855.351 411.63 858.191 407.902C859.904 405.673 861.642 403.841 862.054 403.841C862.467 403.841 864.006 402.096 865.497 399.97C866.989 397.845 868.861 395.878 869.67 395.608C871.931 394.87 876.207 389.889 879.07 384.67C880.927 381.311 882.087 377.613 882.482 373.795L883.275 367.624L880.34 363.658C878.292 360.681 876.508 357.531 875.009 354.243V354.243ZM826.412 127.306C827.935 127.742 828.443 127.591 828.443 126.679C828.504 126.279 828.677 125.903 828.94 125.595C829.204 125.286 829.548 125.058 829.934 124.934C832.102 124.157 831.103 123.068 826.935 121.666C824.681 120.851 822.57 119.68 820.684 118.2C817.804 115.717 817.566 115.932 819.232 119.572C820.24 121.777 820.248 122.253 819.232 123.84C818.217 125.426 818.273 125.846 819.621 127.996C821.43 130.859 821.93 130.978 821.62 128.488C821.414 126.41 822.525 126.14 826.428 127.266L826.412 127.306ZM845.332 424.369C844.998 424.313 843.507 424.218 842.008 424.163C840.495 424.108 838.994 423.879 837.534 423.48C835.947 422.949 835.788 423.123 835.788 425.217C835.776 426.548 835.484 427.861 834.932 429.072C834.265 430.246 834.313 430.746 835.122 431.238C836.542 432.102 836.391 432.134 840.08 430.072C843.19 428.303 846.633 424.559 845.348 424.329L845.332 424.369ZM769.913 306.763C772.634 307.128 775.268 307.477 775.76 307.557C776.003 307.587 776.249 307.555 776.476 307.465C776.704 307.375 776.905 307.229 777.061 307.041C777.45 306.438 772.88 303.971 771.381 303.971C770.336 303.659 769.36 303.147 768.509 302.464C766.645 301.132 765.987 301.045 762.821 301.735C759.958 302.353 758.855 302.298 757.538 301.457C753.921 299.197 747.098 299.371 747.098 301.727C747.098 302.758 754.508 304.9 756.245 304.336C757.11 304.067 759.418 304.336 761.394 304.987C764.188 305.78 767.035 306.374 769.913 306.763V306.763ZM796.33 238.478C796.973 239.343 797.274 239.2 797.988 237.685C798.702 236.17 798.694 235.829 797.774 235.599C796.306 235.266 795.354 237.154 796.33 238.478V238.478ZM808.19 236.345C807.119 234.711 805.104 233.434 804.525 234.013C804.382 234.156 804.929 235.131 805.754 236.178C807.746 238.708 809.84 238.851 808.19 236.345V236.345ZM803.43 238.153C802.891 238.153 802.637 238.391 802.875 238.677C803.287 239.268 803.66 239.885 803.993 240.525V240.525C804.374 241.255 804.898 241.715 805.144 241.548C805.913 241.025 804.461 238.153 803.43 238.153V238.153ZM785.867 190.308C784.589 192.347 784.502 193.077 785.351 194.584C785.84 195.497 786.503 196.305 787.302 196.963C788.532 197.717 790.476 191.641 789.801 189.134C789.159 186.763 787.834 187.159 785.867 190.308V190.308ZM807.285 311.261C809.221 309.952 811.656 308.842 812.704 308.794C814.465 308.723 814.433 308.651 812.212 307.89C809.158 306.843 805.865 308.199 803.747 311.372C801.772 314.291 802.819 314.259 807.254 311.261H807.285ZM815.655 160.271C816.837 159.176 816.813 157.613 815.615 157.629C813.878 157.629 812.727 158.763 813.235 159.945C813.759 161.325 814.385 161.405 815.623 160.271H815.655ZM795.029 233.807C795.235 233.616 794.759 232.855 793.958 232.109C793.157 231.364 792.506 231.086 792.506 231.475C792.675 232.139 793.05 232.733 793.577 233.172V233.172C794.164 233.719 794.823 234.005 795.029 233.807V233.807ZM923.709 348.556C921.44 344.551 921.02 344.313 921.02 347.041C921.02 348.271 922.519 350.706 924.986 353.545C928.73 357.789 930.404 358.987 930.404 357.424C930.404 357.059 929.333 355.703 928.024 354.402C926.371 352.622 924.923 350.661 923.709 348.556V348.556ZM917.188 314.394C916.522 314.394 916.593 314.949 917.386 315.869C918.092 316.662 918.87 317.146 919.124 316.9C919.822 316.226 918.402 314.394 917.188 314.394V314.394ZM917.529 311.642C917.719 311.261 917.442 310.23 916.91 309.341C916.276 308.278 915.927 308.112 915.879 308.85C915.897 309.653 916.113 310.44 916.506 311.142C916.879 311.792 917.339 312.022 917.529 311.642V311.642ZM938.71 333.335C938.377 332.994 938.139 333.605 938.178 334.699C938.218 335.794 938.472 336.151 938.789 335.326C938.94 335.013 939.012 334.668 938.998 334.321C938.985 333.973 938.886 333.635 938.71 333.335V333.335ZM935.537 334.691C935.989 335.77 936.584 336.666 936.862 336.666C937.552 336.666 937.52 336.571 936.068 333.327C934.656 330.21 934.18 331.455 935.537 334.691V334.691ZM913.951 311.459C912.293 310.666 912.071 310.817 912.991 312.252C913.928 313.712 915.022 313.997 915.022 312.784C914.962 312.494 914.834 312.222 914.648 311.991C914.461 311.761 914.223 311.578 913.951 311.459V311.459ZM891.009 295.548C889.438 297.033 887.534 298.121 885.456 298.721L882.489 299.339L884.401 300.521C886.916 302.06 886.781 302.108 889.78 299.625C892.659 297.245 893.611 295.921 893.627 294.176C893.611 293.438 892.572 293.962 891.009 295.548ZM900.323 299.141C899.482 297.666 899.434 297.761 899.886 299.934C900.1 301.185 900.541 302.387 901.187 303.48C901.632 304.051 902.345 304.273 902.774 304.027C903.202 303.781 903.059 302.964 902.401 302.163C901.636 301.196 900.942 300.175 900.323 299.109V299.141ZM888.495 287.164C888.273 287.394 889.209 288.179 890.573 288.909C892.1 289.786 893.419 290.985 894.436 292.423C895.23 293.66 895.96 294.168 896.142 293.605C896.737 291.756 889.748 285.871 888.495 287.164ZM907.153 304.971C907.494 304.971 907.264 304.392 906.645 303.686C906.202 303.096 905.595 302.649 904.9 302.401C904.559 302.401 904.789 302.98 905.408 303.686C905.851 304.276 906.458 304.723 907.153 304.971V304.971ZM912.991 307.35C910.881 305.106 909.779 305.463 911.833 307.723C912.389 308.44 913.146 308.976 914.007 309.262C914.435 309.254 913.975 308.397 912.991 307.342V307.35ZM905.852 305.835C905.376 305.835 905.487 306.407 906.098 307.12C906.547 307.729 907.177 308.179 907.898 308.405C908.287 308.405 908.176 307.826 907.653 307.12C907.243 306.495 906.615 306.046 905.892 305.859L905.852 305.835ZM517.385 150.959C517.853 149.753 516.592 149.515 515.886 150.681C515.625 150.946 515.312 151.153 514.966 151.29C514.621 151.426 514.25 151.489 513.879 151.474C512.387 151.474 511.888 152.267 512.824 153.219C513.506 153.862 516.901 152.196 517.385 150.959ZM494.285 151.752C494.848 150.697 491.976 149.848 488.065 149.927L484.892 149.983L487.272 151.228C489.985 152.656 493.658 152.934 494.285 151.752ZM461.173 144.883C461.438 144.353 461.648 143.798 461.799 143.225C461.894 142.495 457.27 141.908 455.183 142.384C453.446 142.781 453.597 142.963 456.936 144.454C460.276 145.946 460.657 145.969 461.173 144.883ZM441.681 135.69C442.768 139.148 444.664 138.458 444.664 134.603C444.664 131.343 443.466 130.138 441.935 131.851C441.079 132.795 441.031 133.596 441.681 135.69ZM444.664 126.6C444.664 125.236 444.307 124.839 443.379 125.156C443.086 125.223 442.817 125.369 442.602 125.579C442.386 125.788 442.233 126.053 442.158 126.344C442.084 126.635 442.091 126.941 442.179 127.228C442.267 127.515 442.432 127.773 442.657 127.972C443.823 129.027 444.664 128.448 444.664 126.6ZM568.418 322.08L567.204 324.777C565.617 328.298 559.033 334.295 555.987 334.993C552.758 335.731 551.568 338.745 552.266 344.511C552.75 348.477 552.591 349.191 550.41 352.855C548.228 356.52 548.03 357.258 548.522 360.97C549.085 365.602 549.387 366.268 551.536 367.521C553.432 368.632 553.123 368.632 556.518 367.577C559.691 366.585 560.834 364.587 562.793 356.29C563.404 353.696 565.514 346.986 567.474 341.37C571.147 330.884 571.361 328.782 569.251 324.007L568.418 322.08ZM823.358 289.758C824.69 289.155 824.524 288.964 822.239 288.433C820.988 288.127 819.715 287.92 818.431 287.814C816.845 287.814 817.059 289.456 818.733 289.956C820.819 290.598 821.604 290.567 823.365 289.781L823.358 289.758ZM469.51 67.1667C470.978 67.9996 471.224 67.8885 471.224 66.3735C471.236 66.2003 471.21 66.0266 471.149 65.8642C471.087 65.7018 470.992 65.5545 470.868 65.4325C470.744 65.3105 470.596 65.2166 470.433 65.1572C470.27 65.0979 470.096 65.0745 469.923 65.0886C468.431 65.279 468.201 66.4211 469.51 67.1667ZM590.312 295.548C590.143 295.548 589.977 295.598 589.836 295.692C589.695 295.786 589.586 295.92 589.521 296.077C589.456 296.233 589.439 296.405 589.472 296.572C589.505 296.738 589.587 296.89 589.707 297.01C589.826 297.13 589.979 297.212 590.145 297.245C590.311 297.278 590.484 297.261 590.64 297.196C590.797 297.131 590.931 297.021 591.025 296.88C591.119 296.74 591.169 296.574 591.169 296.405C591.167 296.178 591.076 295.961 590.916 295.801C590.756 295.641 590.539 295.55 590.312 295.548V295.548ZM587.742 351.229C587.573 351.229 587.407 351.28 587.266 351.374C587.125 351.468 587.015 351.602 586.951 351.758C586.886 351.915 586.869 352.087 586.902 352.253C586.935 352.419 587.017 352.572 587.136 352.692C587.256 352.812 587.409 352.893 587.575 352.926C587.741 352.959 587.913 352.942 588.07 352.877C588.227 352.813 588.36 352.703 588.455 352.562C588.549 352.421 588.599 352.255 588.599 352.086C588.597 351.859 588.506 351.643 588.346 351.483C588.185 351.322 587.969 351.231 587.742 351.229ZM425.038 137.863C425.398 137.774 425.73 137.6 426.006 137.354C426.283 137.107 426.495 136.798 426.625 136.451C427.093 134.801 424.792 135.087 424.245 136.745C423.92 137.704 424.158 138.069 425.038 137.871V137.863ZM553.877 324.674C554.122 324.674 554.329 324.285 554.329 323.817C554.293 323.562 554.16 323.33 553.958 323.17C553.755 323.01 553.499 322.935 553.242 322.96C552.639 322.96 552.449 323.349 552.782 323.817C553.115 324.285 553.623 324.674 553.877 324.674ZM713.685 218.538C712.981 219.342 712.144 220.018 711.21 220.537C710.004 220.537 708.346 217.864 708.743 216.571C709.465 214.191 705.022 205.958 702.396 204.839C700.732 203.964 699.452 202.503 698.803 200.739C697.288 197.249 695.63 195.916 693.9 196.884C692.132 197.583 690.302 198.115 688.435 198.47C684.048 199.406 682.477 200.786 683.08 203.174C683.294 204.054 682.532 204.903 680.7 205.815C679.212 206.544 677.969 207.691 677.122 209.115C676.672 210.18 675.852 211.048 674.814 211.558C673.657 212.162 672.704 213.094 672.077 214.239C670.757 216.094 669.179 217.75 667.389 219.156C664.834 221.195 664.033 222.329 664.16 223.781C664.906 232.181 663.763 239.208 660.987 243.388C658.21 247.568 658.083 247.576 655.783 246.49C654.521 245.887 653.744 244.721 653.403 242.928C652.526 239.787 651.393 236.723 650.015 233.767C640.321 212.129 638.909 207.996 639.703 204.086C640.266 201.445 638.909 197.463 637.632 197.915C637.353 198.042 637.116 198.245 636.946 198.5C636.777 198.755 636.682 199.052 636.672 199.359C636.601 202.952 632.706 203.507 629.683 200.35L627.668 198.256L629.398 197.59C631.349 196.844 631.167 194.822 629.192 195.21C628.486 195.345 626.875 194.544 625.606 193.434C624.337 192.323 623.02 191.427 622.663 191.427C622.306 191.427 621.79 190.713 621.528 189.84C620.83 187.548 616.808 185.557 614.793 186.509C612.977 187.358 596.548 187.175 593.771 186.279C592.78 185.954 590.947 184.471 589.694 182.987C587.433 180.298 587.401 180.283 584.014 181.234C580.801 182.131 580.333 182.028 576.009 179.783C572.265 177.816 571.146 176.761 569.996 174.096C568.521 170.701 565.236 168.242 563.261 169.035C562.634 169.289 561.905 170.526 561.635 171.795C561.254 173.62 561.635 174.802 563.499 177.427C564.869 179.371 565.939 181.51 566.672 183.773C567.6 187.334 569.417 188.389 570.924 186.247C571.837 184.954 572.083 184.907 572.701 185.922C573.08 186.504 573.245 187.199 573.169 187.889C572.749 189.246 577.136 191.49 579.167 190.959C580.198 190.689 582.403 188.865 584.061 186.898C586.679 183.804 587.591 183.598 587.147 186.192C586.846 187.945 588.171 189.991 590.32 191.165C593.7 192.989 598.412 197.035 598.412 198.129C598.412 198.629 597.523 199.898 596.445 200.953C595.061 202.425 593.894 204.086 592.978 205.886C590.987 209.94 585.196 215.865 583.236 215.865C580.967 215.865 577.604 217.848 576.263 219.981C575.271 221.296 574.004 222.379 572.551 223.154C565.34 226.898 556.685 230.681 554.226 231.165C551.616 231.673 551.409 231.546 550.021 228.714C549.027 226.374 548.35 223.912 548.006 221.393C547.602 218.292 546.824 216.325 545.261 214.469C544.064 213.049 543.08 211.542 543.08 211.121C543.08 210.701 541.715 208.901 540.042 207.108C537.998 204.943 536.531 202.301 535.774 199.422C535.11 197.014 534.077 194.724 532.712 192.632C525.754 183.654 523.692 180.481 522.661 177.173C521.28 172.795 520.122 172.089 519.583 175.301L519.202 177.594L516.679 174.191C512.713 169.003 512.229 171.367 515.941 177.697C517.695 180.695 520.495 185.978 522.161 189.444C523.558 192.451 525.148 195.366 526.921 198.169C527.952 199.634 528.564 201.354 528.69 203.142C528.69 206.109 529.538 207.965 532.886 212.28C534.211 213.955 535.215 215.862 535.845 217.903C536.202 219.648 537.662 221.465 540.811 224.09C545.571 228.056 548.688 232.236 549.458 235.702C549.663 236.426 550.014 237.101 550.49 237.683C550.966 238.266 551.557 238.744 552.226 239.089C554.337 240.223 555.082 240.192 561.746 238.693C565.712 237.796 569.957 236.543 571.131 235.908L573.265 234.766L573.772 237.883C574.232 240.715 573.733 242.079 568.338 252.843C562.539 264.408 562.27 264.796 556.494 269.5C553.25 272.165 549.855 275.433 548.95 276.757C548.046 278.082 545.142 281.651 542.509 284.689C534.814 293.565 533.783 301.346 538.867 311.856C540.168 314.513 540.668 316.528 540.367 317.797C540.156 319.783 540.279 321.792 540.732 323.738C541.446 327.22 541.366 328.148 540.121 330.678C538.328 334.327 536.948 335.643 531.894 338.253C529.705 339.387 527.928 340.632 527.928 341.069C527.928 341.505 526.397 343.615 524.517 345.828C522.637 348.041 521.106 350.182 521.106 350.587C521.475 351.967 522.007 353.299 522.692 354.553C525.27 359.804 523.541 363.611 517.361 366.268C514.759 367.386 513.903 369.679 514.553 373.803C514.886 375.969 514.672 376.69 513.498 377.341C512.176 378.365 511.066 379.637 510.23 381.085C507.12 386.161 498.188 395.14 494.134 397.266C490.746 399.042 489.882 399.193 487.391 398.479C485.201 397.853 483.424 397.956 479.751 398.915C473.794 400.502 474.428 400.502 472.12 398.122C470.533 396.449 470.248 395.6 470.605 393.3C470.946 391.134 470.605 389.865 469.185 387.66C468.161 386.074 467.321 384.424 467.321 383.948C467.321 383.472 465.98 381.228 464.338 378.943C461.807 375.413 461.292 374.01 460.871 369.544C460.133 361.668 457.698 353.141 454.461 346.962C452.875 343.924 451.288 339.982 451.05 338.197C450.463 334.406 451.939 328.758 455.326 321.913L457.579 317.368L456.31 313.402C455.604 311.182 455.255 308.564 455.516 307.454C455.779 305.885 455.43 304.275 454.541 302.956C453.425 300.774 452.537 298.483 451.891 296.119C451.137 293.136 449.546 290.431 447.306 288.322C442.498 283.42 441.88 281.493 443.339 276.155C446.378 265.304 443.101 258.974 435.089 260.22C431.972 260.711 431.853 260.648 431.408 258.356C431.075 256.603 430.155 255.564 427.854 254.342C424.864 252.756 423.586 252.756 419.921 254.342C419.128 254.691 415.677 255.928 412.346 257.063C407.332 258.776 405.825 258.998 403.619 258.34C401.414 257.681 399.812 257.88 395.575 259.085C391.204 260.331 389.618 260.465 387.254 259.791C382.327 258.371 373.855 250.44 372.649 246.101C371.721 242.746 365.922 234.933 363.923 234.37C362.67 234.013 362.519 233.735 363.288 233.22C364.058 232.704 363.923 232.426 362.717 232.109C360.797 231.594 360.607 229.96 362.463 229.944C363.598 229.944 363.622 229.825 362.654 229.151C361.94 228.667 361.86 228.357 362.44 228.357C363.019 228.357 362.812 227.374 361.773 225.557C360.321 222.995 360.29 222.654 361.4 221.377C364.796 217.483 365.533 209.099 362.987 203.808C361.749 201.286 362.543 197.804 365.169 194.179C366.747 191.809 368.18 189.346 369.46 186.803C371.84 182.091 377.203 175.547 378.647 175.547C380.233 175.547 385.413 169.773 385.413 167.98C385.413 163.943 387.738 159.914 391.522 157.391C393.589 156.008 395.385 154.258 396.821 152.228C398.622 149.206 398.875 149.103 400.97 150.641C402.377 151.44 403.917 151.977 405.515 152.228C408.07 152.68 409.291 152.355 413.091 150.245C419.636 146.604 423.682 145.692 431.17 146.176C436.113 146.501 438.31 146.295 440.69 145.295C444.212 143.828 447.258 144.7 446.433 146.937C446.317 147.306 446.288 147.697 446.347 148.079C446.406 148.462 446.552 148.825 446.774 149.142C447.314 149.824 447.314 150.8 446.774 152.315C446.076 154.219 446.235 154.782 447.956 156.654C449.147 157.903 450.647 158.817 452.304 159.303C458.396 160.564 460.125 161.389 461.379 163.602C461.793 164.37 462.383 165.029 463.102 165.524C463.821 166.019 464.647 166.336 465.512 166.449C467.245 166.815 468.926 167.393 470.518 168.171C472.564 169.273 472.826 169.234 474.532 167.568C475.682 166.449 476.197 165.26 475.928 164.395C475.729 163.377 475.868 162.321 476.324 161.389C477.498 159.112 480.83 159.335 486.026 162.039C491.69 164.99 502.432 167.092 506.239 166.005C507.932 165.486 509.742 165.486 511.435 166.005C516.671 167.679 519.368 166.37 520.074 161.786C520.312 160.263 520.717 159.017 520.971 159.017C521.463 159.017 521.717 156.733 521.764 151.728C521.764 150.142 522.161 148.777 522.557 148.777C522.954 148.777 523.041 148.206 522.478 147.12C521.55 145.311 519.662 145.351 515.132 147.286C512.99 148.198 512.395 148.159 510.468 146.977C507.977 145.446 505.422 145.216 504.685 146.461C504.137 147.381 500.258 146.731 498.156 145.367C496.649 144.391 495.236 141.472 495.236 139.331C495.151 138.782 494.956 138.256 494.663 137.785C494.37 137.313 493.985 136.906 493.531 136.586C492.079 135.523 491.992 135.222 492.96 134.563C493.84 134.103 494.857 133.976 495.824 134.207C497.029 134.508 498.14 134.008 499.544 132.557C500.776 131.217 502.486 130.417 504.304 130.328C506.009 130.173 507.656 129.63 509.119 128.742C511.626 127.02 517.314 127.496 521.724 129.796C527.674 132.89 532.957 132.707 535.083 129.336C536.194 127.576 536.194 127.211 535.147 125.545C534.504 124.53 531.434 122.19 528.317 120.35L522.787 117.082L523.851 114.948C524.438 113.774 524.723 112.616 524.485 112.37C524.247 112.124 524.342 111.466 524.683 110.895C525.059 110.258 525.327 109.564 525.477 108.841C525.651 107.643 524.43 107.976 518.401 110.744C514.902 112.331 514.387 112.846 515.164 113.822C515.823 114.529 516.729 114.955 517.695 115.012C518.94 115.012 518.647 115.416 516.409 116.598C513.688 118.089 513.387 118.113 511.65 116.907C510.142 115.876 509.944 115.4 510.658 114.528C511.372 113.655 511.269 113.29 510.142 112.854C509.276 112.486 508.514 111.911 507.921 111.18C505.748 108.166 498.862 116.082 496.855 123.871C495.919 127.536 495.95 127.726 497.72 129.114L499.552 130.558L496.181 131.28C494.354 131.68 492.467 131.716 490.627 131.383C488.414 130.748 485.606 131.7 485.606 133.072C485.606 133.477 485.09 133.604 484.456 133.35C484.074 133.244 483.673 133.232 483.287 133.315C482.9 133.398 482.539 133.573 482.234 133.826C481.314 134.619 481.441 135.269 482.94 138.252C484.591 141.48 484.646 141.924 483.615 144.066C482.322 146.755 481.124 146.556 479.299 143.344C478.03 141.107 478.038 141.06 479.72 140.814C481.846 140.496 481.981 139.093 479.918 138.751C475.222 137.958 472.723 135.396 472.723 131.351C472.723 128.178 469.907 124.72 466.496 123.657C464.726 123.11 462.799 121.944 462.212 121.079C461.177 119.88 459.879 118.936 458.42 118.319C456.989 117.72 455.712 116.807 454.683 115.646C453.89 114.464 453.375 114.329 452.208 114.972C451.831 115.162 451.503 115.436 451.249 115.773C450.994 116.11 450.821 116.501 450.741 116.915C450.741 118.962 460.403 128.218 465.123 130.701C470.129 133.326 470.914 134.262 467.432 133.469C464.33 132.763 463.465 133.469 464.552 135.848C465.29 137.554 465.171 138.069 463.671 139.568L461.934 141.306L462.331 138.926C462.957 135.198 458.229 129.852 454.311 129.852C452.875 129.852 447.353 124.3 445.91 121.373C444.323 118.272 442.649 117.669 440.214 119.39C436.541 121.976 433.796 122.848 430.916 122.341C427.093 121.666 424.689 123.054 425.3 125.577C425.617 126.893 425.435 127.488 424.721 127.488C424.158 127.488 422.698 128.369 421.484 129.455C420.682 130.27 419.742 130.936 418.708 131.422C417.772 131.422 415.122 136.404 415.122 138.172C415.122 139.941 412.155 143.193 409.291 144.724C407.794 145.324 406.193 145.626 404.579 145.613C402.271 145.613 401.327 146.009 400.692 147.199C399.859 148.785 399.835 148.785 397.892 146.786C396.067 144.891 395.02 144.407 391.339 143.828C389.411 143.519 389.086 138.966 390.546 132.493C391.165 129.717 391.466 126.616 391.22 125.593C390.498 122.618 392.751 120.833 396.511 121.46C405.198 122.848 410.275 122.927 411.465 121.69C413.099 119.985 413.845 114.377 412.837 111.236C412.187 109.182 411.29 108.341 408.617 107.27C404.651 105.684 404.611 104.2 408.45 104.161C410.109 104.088 411.723 103.602 413.147 102.749C414.257 101.956 415.527 101.575 415.892 101.829C416.962 102.511 421.016 100.084 422.365 97.9422C423.042 96.886 424.04 96.0744 425.213 95.6261C426.133 95.3802 428.584 93.5321 430.671 91.5095C433.622 88.654 435.176 87.7498 437.707 87.4405C440.88 87.0518 444.006 84.3629 442.522 83.3477C441.602 82.7131 440.833 78.8979 441.348 77.5098C441.926 76.489 442.742 75.6234 443.728 74.9875L445.672 73.6629L445.172 76.907C444.743 79.7228 444.855 80.1194 446.013 79.9132C447.08 79.6558 448.105 79.25 449.059 78.7075C450.503 77.9144 450.852 77.9144 451.233 78.9534C451.883 80.7064 450.074 82.7766 448.853 81.7058C448.163 81.1109 447.726 81.1267 447.346 81.7772C446.965 82.4276 446.632 82.4117 446.179 81.6423C445.838 81.0633 445.386 80.7777 445.172 80.9998C444.958 81.2219 445.561 82.4196 446.513 83.657C448.099 85.751 448.432 85.8541 450.717 85.0213C452.684 84.3153 453.62 84.3629 455.294 85.2592C457.174 86.2745 457.817 86.2269 461.434 84.7913C464.607 83.538 465.861 83.3794 467.265 84.0457C467.792 84.3469 468.39 84.5013 468.997 84.4929C469.604 84.4846 470.197 84.3137 470.716 83.9981C474.127 82.1658 475.071 80.7857 474.682 78.2475C474.056 74.4957 475.206 73.2584 478.228 74.4481C480.291 75.2413 480.894 75.2413 481.822 74.2578C482.75 73.2742 482.718 72.8539 481.108 71.0851C479.498 69.3163 479.442 68.9355 480.394 68.2693C481.005 67.8409 483.305 67.6902 485.511 67.9282C489.533 68.3724 494.546 66.7384 493.674 65.271C492.88 63.9781 488.287 63.6053 484.376 64.4778C480.902 65.271 479.989 65.2234 477.332 63.9702C473.199 62.0348 472.715 59.7663 475.547 55.6656C479.196 50.375 479.863 48.6935 478.823 47.3847C477.284 45.4573 475.769 46.0919 472.255 50.1212C470.399 52.247 467.868 54.4282 466.63 54.9596C465.111 55.6948 463.866 56.8951 463.076 58.3862C462.045 60.4643 462.045 60.8927 463.076 62.5504C463.722 63.5913 464.66 64.4189 465.774 64.93C468.098 65.7231 467.638 67.1429 464.314 69.5066C462.939 70.7568 461.898 72.3297 461.284 74.0833C460.607 76.1524 459.196 77.9019 457.317 79.001C454.612 80.5874 454.493 80.5874 453.002 79.2231C452.035 78.2174 451.348 76.9758 451.011 75.6221C450.477 73.8894 449.618 72.2743 448.48 70.863L446.409 68.2851L443.776 69.9508C442.531 70.7931 441.118 71.3559 439.635 71.6006C437.255 71.6006 434.439 68.88 434.256 66.3894C434.166 65.1664 433.935 63.958 433.566 62.7884C432.892 61.0196 436.279 57.712 439.809 56.6967C443.339 55.6814 450.598 50.4544 451.788 47.9717C452.925 46.1677 454.302 44.5266 455.881 43.0936C457.595 41.5073 458.991 39.8416 458.991 39.4133C458.991 38.9849 460.578 38.0331 462.593 37.2955C464.608 36.5578 467.9 35.2332 469.978 34.3369C473.122 33.1307 476.464 32.5253 479.831 32.5522C486.97 32.3619 491.667 33.3454 495.53 35.8598C497.466 37.121 498.989 37.5493 500.456 37.2479C503.074 36.7006 517.02 41.2138 517.599 42.8001C518.178 44.3865 514.188 45.8777 510.745 45.3621C509.159 45.1242 505.906 44.4896 503.495 43.9582C500.258 43.2364 498.902 43.2126 498.267 43.8709C497.632 44.5293 497.95 45.0052 499.481 45.7349C500.818 46.4698 501.919 47.5703 502.654 48.9077C504.185 51.9931 509.103 54.5075 511.634 53.5081C514.164 52.5087 514.053 52.239 511.483 50.7875C509.103 49.447 510.206 49.1615 513.189 50.3354C515.569 51.2793 518.274 50.1054 517.647 48.408C517.353 47.6148 518.178 47.0278 520.519 46.4091C525.516 45.0766 525.881 44.8862 525.469 43.8313C523.882 39.8654 523.882 39.9606 526.159 40.2302C527.381 40.373 528.269 40.9124 528.166 41.4517C528.063 41.9911 528.705 42.8081 529.578 43.2999C530.895 44.0296 531.958 43.7678 535.552 41.7928C540.859 38.9056 544.984 37.9617 546.523 39.2943C547.387 40.0319 548.807 40.0399 552.933 39.2943C555.844 38.7787 558.557 38.5725 558.962 38.8342C559.066 38.8937 559.182 38.9315 559.302 38.9453C559.421 38.9591 559.542 38.9486 559.658 38.9146C559.773 38.8805 559.881 38.8236 559.974 38.7471C560.067 38.6706 560.143 38.5761 560.199 38.4694C560.794 37.47 559.144 35.1856 558.24 35.7726C557.145 36.4706 553.559 35.2173 554.345 34.4003C555.13 33.5834 576.224 38.6994 577.485 40.0081C578.334 40.8965 581.031 39.7147 581.031 38.4218C581.031 38.0014 579.524 36.8909 577.683 35.9629C571.987 33.0837 571.615 28.4753 576.977 27.0713C580.087 26.2782 581.435 27.1982 585.743 33.1709C591.296 40.9282 591.185 40.5316 589.36 43.1967C588.004 45.1718 587.925 45.6318 588.861 46.0125C590.638 46.7185 594.414 44.2358 594.977 42.0466C595.604 39.445 594.437 37.232 591.637 35.7012C589.424 34.5907 587.837 32.3936 587.837 30.6248C587.837 30.0061 588.631 29.8316 590.304 30.1647C592.764 30.6327 594.795 29.7047 600.355 25.5801C602.029 24.5261 603.97 23.9754 605.948 23.9938C610.351 23.8907 611.771 23.1213 610.51 21.5349C610.01 20.9083 609.764 20.242 609.954 20.0358C610.922 19.0285 623.44 17.22 626.272 17.6563C629.104 18.0925 629.898 17.8545 632.174 16.0699C633.634 14.9039 634.832 13.6427 634.832 13.262C634.832 12.3023 628.208 12.3895 627.637 13.3572C626.843 14.6897 625.812 14.2297 626.098 12.6671C626.344 11.3425 625.701 11.1284 620.18 10.6842C605.107 9.46267 603.878 9.17713 605.686 7.29728C607.273 5.63953 611.176 5.67126 614.413 7.36867C615.954 8.11255 617.629 8.54131 619.339 8.62983C620.703 8.62983 622.036 8.98676 622.298 9.42301C622.56 9.85926 623.884 10.2162 625.249 10.2162C629.025 10.2162 636.355 11.9136 635.879 12.683C635.657 13.0558 636.363 13.3651 637.466 13.3651C639.012 13.5046 640.512 13.9666 641.868 14.7215C643.661 15.7288 646.168 16.0858 651.491 16.1095C657.219 16.1095 659.122 16.4348 660.78 17.6007C661.923 18.3939 662.859 19.2902 662.851 19.5599C662.843 19.8296 661.098 21.0669 658.964 22.2884C653.815 25.2391 654.902 26.524 661.129 24.8504C665.167 23.7638 666.088 23.7558 669.427 24.787C672.172 25.6357 673.886 25.7388 675.774 25.1836C677.662 24.6283 679.534 24.7552 682.762 25.6198C686.134 26.532 687.879 26.6272 690.021 26.0085C694.892 24.5966 700.889 24.9932 704.372 26.9603L711.464 30.9262C715.303 33.1075 715.43 33.1313 718.143 31.886C720.372 30.8469 721.618 30.7596 724.91 31.418C728.202 32.0763 729.376 31.9891 731.256 30.9976C733.136 30.0061 733.351 29.554 732.661 28.6894C731.328 27.0237 736.056 26.4051 741.855 27.4838C744.512 27.9756 747.876 28.4673 749.336 28.5784C751.533 28.9085 753.67 29.555 755.682 30.4979C758.768 31.9494 761.1 32.2746 770.136 32.5284C778.711 32.7743 781.44 33.1313 783.51 34.2814C785.581 35.4315 788 35.7408 795.957 35.8201C803.279 35.8915 806.564 36.2564 808.737 37.2241C812.243 38.8104 813.648 38.2156 811.736 35.9946C810.363 34.4083 810.371 34.4083 815.702 34.9397C824.571 35.8598 835.209 37.8745 838.819 39.326C841.388 40.252 844.046 40.906 846.752 41.2772C849.556 41.6876 852.283 42.5136 854.843 43.7282C857.802 45.3145 858.81 45.4573 860.674 44.7672C863.276 43.8234 864.966 44.5055 868.94 48.0986L871.415 50.3275L869.551 50.8113C867.687 51.3031 862.721 50.0181 861.007 48.6142C860.801 48.4141 860.543 48.2766 860.262 48.2176C859.981 48.1586 859.689 48.1806 859.421 48.281C859.064 48.5111 857.287 48.17 855.454 47.4879C851.226 45.9729 849.346 46.544 851.273 48.757C852.59 50.2719 852.559 50.3433 850.052 50.1212C845.348 49.7802 846.641 51.2238 853.542 54.0237C857.294 55.5466 860.523 56.9505 860.682 57.1488C861.388 57.8627 859.048 58.7352 857.342 58.41C855.462 58.0372 850.845 60.1312 850.845 61.3527C850.524 62.2462 849.978 63.0414 849.258 63.6609C847.767 65.1045 847.458 65.1362 845.467 64.0654C843.602 63.058 843.007 63.0501 841.215 63.9861C839.821 64.683 838.362 65.2409 836.859 65.6518C835.728 65.9181 834.653 66.3856 833.686 67.0319C832.163 68.3486 834.852 72.1796 838.644 74.0833C840.707 75.1224 842.198 76.5184 842.611 77.8112C843.126 79.2369 843.738 80.6255 844.443 81.9675C845.459 83.8315 845.451 84.1012 844.364 84.5295C843.571 84.8468 843.333 85.4893 843.682 86.3856C844.044 87.4717 844.286 88.5941 844.404 89.7328C844.522 90.8504 844.772 91.9501 845.149 93.0086C845.538 93.9446 845.221 94.476 844.023 94.8647C842.69 95.3089 841.794 94.7774 839.612 92.263C837.901 90.3372 836.027 88.5619 834.011 86.9566C831.672 84.9267 829.58 82.6292 827.776 80.1115C824.484 75.5586 824.413 75.3524 825.507 73.1632C826.136 71.8856 826.526 70.5039 826.658 69.0862C826.763 67.7721 827.127 66.4918 827.729 65.3186C828.823 63.2563 828.403 61.6144 826.063 58.8304C825.787 58.4263 825.374 58.1358 824.9 58.0128C824.427 57.8897 823.925 57.9425 823.487 58.1613C823.049 58.3801 822.706 58.7501 822.52 59.2027C822.334 59.6553 822.319 60.1599 822.477 60.623C823.112 62.709 821.168 63.3832 818.923 61.8524C817.381 60.9922 815.7 60.4071 813.957 60.1233C810.927 59.6236 810.704 59.7187 809.919 61.8524C809.448 63.261 809.302 64.7577 809.491 66.2308C809.84 68.0392 809.602 68.412 807.809 68.8166C806.099 69.0191 804.367 68.7445 802.803 68.0234C801.296 67.2571 799.576 67.017 797.917 67.3412C795.217 67.7976 792.483 68.0153 789.746 67.9916C784.351 68.0472 783.312 68.293 781.67 69.8873C780.335 71.5009 779.39 73.4011 778.909 75.4396C778.479 77.3256 777.815 79.1507 776.934 80.8729C775.895 82.5386 775.99 82.7052 778.965 84.2836C782.186 85.989 785.7 86.4411 788.365 85.4893C790.42 84.7516 796.695 89.8359 798.678 93.8256C799.472 95.4596 800.804 97.1649 801.621 97.625C804.715 99.3462 805.35 110.649 802.756 118.034C800.963 123.15 798.956 124.823 796.013 123.657C795.264 123.344 794.495 123.079 793.712 122.864C792.97 123.87 792.342 124.955 791.84 126.1C790.666 128.432 790.444 129.614 791.047 130.336C792.157 131.716 791.34 133.509 789.127 134.563C788.112 135.047 787.279 135.785 787.279 136.205C787.279 136.626 789.658 138.664 792.546 140.734C796.235 143.376 798.202 145.406 799.107 147.484C799.813 149.126 800.257 150.594 800.09 150.752C799.924 150.911 798.369 151.783 796.647 152.688L793.474 154.33L791.586 149.824C789.476 144.788 787.667 142.765 784.447 141.892C782.86 141.448 782.281 140.806 782.281 139.426C782.281 138.046 781.488 137.046 779.822 136.071C777.386 134.587 777.339 134.587 774.753 136.253C772.166 137.919 772.127 137.919 771.333 136.372C770.892 135.512 770.623 134.575 770.54 133.612C770.475 133.191 770.312 132.792 770.066 132.445C769.819 132.098 769.496 131.813 769.12 131.613C767.962 130.97 767.232 131.359 765.106 133.754C763.89 135.166 762.523 136.44 761.029 137.554C759.775 138.291 759.704 138.609 760.568 139.695C761.852 140.935 763.292 142.002 764.852 142.868C767.716 144.526 768.263 144.621 769.223 143.661C770.183 142.702 770.889 142.67 773.65 143.447L776.982 144.391L775.125 145.676C771.69 148.056 770.604 149.317 770.112 151.474C769.707 153.243 769.953 153.782 771.476 154.504C772.5 154.988 774.047 156.884 774.927 158.787C775.814 160.681 777.145 162.333 778.806 163.602C781.583 165.299 782.384 167.116 780.782 168.044C779.179 168.972 779.988 170.209 781.971 170.209C784.351 170.209 784.351 171.677 782.067 180.124C779.306 190.356 776.807 193.775 770.286 196.257C768.048 197.149 765.717 197.787 763.337 198.161C760.426 198.327 758.173 199.612 756.197 202.206L754.611 204.276L753.881 202.285C752.929 199.684 750.755 199.033 747.622 200.406C746.32 200.906 745.149 201.694 744.194 202.71C743.24 203.726 742.527 204.945 742.109 206.275C741.426 208.599 743.838 212.692 747.836 215.984C751.12 218.681 754.801 225.462 755.666 230.396C756.42 234.687 755.087 237.534 751.509 239.184C749.883 239.977 748.336 241.199 748.122 241.96C747.566 243.801 744.195 246.093 743.584 245.062C743.325 244.336 743.325 243.543 743.584 242.817C743.839 241.923 743.839 240.975 743.584 240.081C743.211 239.065 742.791 238.978 741.601 239.636C740.411 240.295 739.879 240.16 738.872 238.637C736.397 234.909 729.226 228.921 727.242 228.921C726.536 228.921 726.267 229.793 726.386 231.681C726.414 233.888 726.193 236.091 725.727 238.248C724.981 241.667 725.053 242.294 726.465 244.277C727.363 245.56 728.056 246.976 728.52 248.472C728.789 249.575 730.979 252.105 733.486 254.199C737.666 257.681 738.102 258.371 739.832 264.154C740.578 266.442 741.208 268.766 741.72 271.118C741.72 272.458 740.133 271.911 736.833 269.444C733.533 266.977 731.233 262.861 729.416 255.73C728.623 252.629 727.758 251.304 725.299 249.385C722.284 247.076 722.197 246.878 722.435 243.039C722.578 240.874 722.919 237.804 723.228 236.218C723.625 233.981 723.3 232.379 721.784 229.119C720.627 226.571 719.685 223.931 718.968 221.227C717.858 216.642 716.35 215.889 713.685 218.538ZM571.408 132.612C572.86 133.199 574.891 132.493 574.891 131.399C574.549 130.284 574.012 129.239 573.304 128.313C572.003 126.402 571.488 126.148 570.274 126.822C569.29 127.377 568.814 127.377 568.814 126.822C568.814 126.267 567.458 125.291 565.808 124.442C562.151 122.483 560.857 120.318 561.992 118.097C562.857 116.408 565.958 115.226 567.251 116.074C569.028 117.224 569.552 115.527 568.045 113.37C564.499 108.143 559.557 108.484 553.424 114.393C549.458 118.2 549.125 119.215 551.362 120.477C551.76 120.667 552.108 120.946 552.38 121.293C552.653 121.639 552.842 122.044 552.933 122.475C552.933 123.126 554.273 125.188 555.923 127.06C559.715 131.375 560.405 133.35 559.937 138.458L559.564 142.567L564.76 145.367C567.624 146.905 570.068 148.182 570.187 148.206C571.042 147.894 571.865 147.501 572.646 147.032V147.032C574.605 145.969 574.883 145.39 574.883 142.36C574.883 140.195 574.439 138.521 573.701 137.871C572.731 136.877 571.927 135.733 571.321 134.484C570.298 132.335 570.306 132.152 571.408 132.612ZM665.151 246.244C664.485 247.957 665.009 254.413 665.945 255.849C666.452 256.642 669.737 255.698 670.538 254.524C671.339 253.351 670.538 251.003 668.031 247.433C665.913 244.443 665.858 244.427 665.151 246.244ZM793.054 308.453C793.76 309.246 794.942 309.436 797.092 309.072C801.225 308.366 801.241 308.207 797.25 307.192C793.26 306.177 791.523 306.716 793.054 308.453ZM794.974 214.976C793.006 210.606 790.325 210.439 790.325 214.675C790.313 216.012 790.043 217.334 789.532 218.569C788.429 220.759 789.159 222.496 792.935 226.612C795.6 229.523 796.584 230.134 798.012 229.785C799.058 229.531 800.16 229.649 801.129 230.118V230.118C802.787 231.11 803.367 229.904 802.042 228.207C801.742 227.844 801.343 227.576 800.894 227.435C800.445 227.295 799.965 227.287 799.511 227.413C798.393 227.707 797.33 227.176 795.91 225.605C793.95 223.432 793.926 223.305 795.029 220.513C796.068 217.911 796.06 217.396 794.974 214.976V214.976ZM783.867 309.103C784.774 308.868 785.701 308.719 786.636 308.659C787.239 308.659 787.493 308.199 787.215 307.652C786.565 306.414 781.21 306.343 780.575 307.573C780.518 307.705 780.487 307.847 780.486 307.991C780.484 308.135 780.51 308.278 780.564 308.412C780.618 308.545 780.698 308.667 780.799 308.769C780.901 308.872 781.021 308.953 781.154 309.008C782.042 309.315 783.001 309.348 783.907 309.103H783.867ZM813.418 103.288C815.567 104.137 813.925 101.797 810.593 99.2668C806.571 96.221 804.025 93.7622 801.954 90.9226C801.098 89.7487 799.971 88.9396 799.44 89.122C798.908 89.3045 800.423 91.684 803.525 95.2375C806.32 98.4421 808.764 101.936 810.816 105.66C811.788 107.752 812.932 109.76 814.235 111.664V111.664C815.266 112.862 818.201 113.6 818.201 112.656C817.18 111.134 816.042 109.695 814.798 108.349C811.601 104.637 810.982 102.313 813.457 103.288H813.418ZM786.065 240.977C783.955 243.007 782.225 244.943 782.225 245.252C782.225 246.601 784.343 245.649 787.056 243.079C788.643 241.572 789.96 239.644 789.936 238.804C789.904 237.566 789.151 237.987 786.065 240.977ZM819.256 274.061C818.606 272.411 818.725 271.641 819.819 270.475C821.089 269.127 821.089 268.992 819.875 268.992C818.36 268.992 816.488 271.816 817.233 272.958C817.345 273.335 817.374 273.732 817.316 274.121C817.259 274.51 817.117 274.882 816.9 275.211C816.321 276.242 816.361 276.987 817.027 277.59C819.145 279.684 820.573 277.392 819.256 274.061V274.061ZM812.069 252.605C813.203 253.604 813.259 253.462 812.791 250.82C812.18 247.346 809.475 240.85 809.451 242.793C809.451 243.547 808.555 245.03 807.476 246.077C806 247.529 805.032 247.878 803.509 247.529C801.986 247.18 801.328 247.425 800.669 248.726C799.876 250.313 799.947 250.36 802.073 249.868C804.199 249.377 804.398 249.527 805.786 252.938C806.865 255.587 807.547 256.412 808.396 256.111C809.001 255.86 809.64 255.702 810.292 255.643C810.744 255.643 810.673 255.167 810.117 254.461C808.753 252.66 810.379 251.13 812.069 252.605V252.605ZM800.439 243.991C801.296 242.888 801.328 242.286 800.574 241.429C799.821 240.572 799.479 240.493 798.884 241.5C798.688 241.894 798.575 242.324 798.55 242.763C798.525 243.202 798.591 243.641 798.742 244.054V244.054C799.233 245.339 799.337 245.331 800.439 243.991ZM802.026 276.464C804.62 277.86 807.071 276.972 808.301 274.195C809.269 272.006 809.094 271.943 806.143 273.489C804.406 274.417 803.152 274.497 799.955 273.87C796.243 273.14 795.822 273.22 794.172 274.925C792.959 276.17 792.205 278.098 791.792 281.033C791.483 283.412 790.658 286.141 789.96 287.172C788.81 288.869 788.802 289.21 789.857 290.876C790.496 291.867 790.745 293.06 790.555 294.223C790.292 294.97 790.292 295.785 790.555 296.531V296.531C791.126 297.483 791.753 297.507 793.085 296.635C793.879 296.119 793.926 295.326 793.292 292.946C792.586 290.313 792.673 289.726 793.958 288.393C795.434 286.878 795.449 286.886 796.6 289.726C797.234 291.312 798.44 292.954 799.273 293.414C800.606 294.152 800.788 294.009 800.788 292.232C800.69 290.748 800.307 289.297 799.662 287.957C798.289 285.236 798.797 283.587 801.447 282.096C803.827 280.787 802.304 280.581 798.527 281.699C796.33 282.349 795.672 282.238 794.482 281.009C791.245 277.67 797.377 273.957 802.026 276.456V276.464ZM831.497 150.395C832.155 149.118 832.06 148.016 831.084 145.311C830.386 143.415 830.021 141.345 830.291 140.655C830.973 138.799 828.625 134.397 826.134 132.858C822.715 130.748 822.072 132.279 824.381 137.038C826.761 141.996 826.253 143.463 820.343 148.143C817.305 150.522 815.861 151.197 814.52 150.848C813.18 150.499 812.085 150.959 810.49 152.363C809.253 153.449 807.841 154.353 807.365 154.361C806.889 154.369 807.071 154.75 807.793 155.155C808.682 155.694 809.991 155.686 811.902 155.155C816.591 153.798 818.645 154.115 820.097 156.424L821.406 158.518L822.088 156.035C822.644 154.012 823.151 153.552 824.857 153.552C827.871 153.521 830.537 152.267 831.497 150.395ZM807.976 159.208C805.215 157.399 804.39 159.208 806.722 162.016C807.698 163.182 808.507 164.609 808.507 165.188C808.507 166.6 809.705 166.521 810.26 165.077C810.998 163.158 809.959 160.508 807.976 159.208V159.208ZM792.427 313.45C792.943 312.728 790.777 310.944 789.42 310.967C788.762 310.967 789.079 311.618 790.174 312.474C791.221 313.291 792.229 313.736 792.427 313.45ZM788.223 259.569L785.803 256.999C784.47 255.587 782.979 254.429 782.487 254.429C781.995 254.429 780.702 255.627 779.615 257.094C778.42 258.646 776.851 259.869 775.054 260.648C774.26 260.88 773.53 261.291 772.919 261.849C772.309 262.408 771.834 263.098 771.532 263.868C770.725 265.491 769.425 266.818 767.819 267.66C766.295 268.459 765.023 269.668 764.146 271.15C763.353 272.95 763.044 273.085 761.6 272.284C760.156 271.483 759.783 271.625 758.911 272.839C758.283 273.858 758.071 275.079 758.316 276.25C759.244 280.311 760.981 286.022 761.568 286.942C762.306 288.108 769.787 289.678 771.667 289.06C772.85 288.902 774.053 289.142 775.086 289.742V289.742C776.537 290.535 777.521 290.63 778.37 290.083C779.584 289.29 784.431 279.026 784.423 277.241C784.423 276.718 785.264 275.71 786.303 275.012L788.191 273.743L786.676 271.554C784.177 267.945 784.066 265.32 786.263 262.274L788.223 259.569Z" fill="white"/>
</svg>
