<svg width="940" height="472" viewBox="0 0 940 472" fill="none" xmlns="http://www.w3.org/2000/svg">
<path d="M455.568 133.722C458.512 133.722 460.288 135.114 460.288 137.434C460.288 139.77 458.512 141.162 455.568 141.162H453.36V145.69H451.344V133.722H455.568ZM455.568 139.37C457.28 139.37 458.224 138.682 458.224 137.434C458.224 136.202 457.28 135.514 455.568 135.514H453.36V139.37H455.568ZM461.441 145.69V136.474H463.137L463.281 137.946C463.569 137.05 464.257 136.474 465.185 136.474H466.641L466.865 138.17H465.313C464.017 138.17 463.393 139.226 463.393 140.858V145.69H461.441ZM470.968 145.882C468.648 145.882 466.984 143.994 466.984 141.082C466.984 138.17 468.632 136.282 470.968 136.282C472.12 136.282 473.144 136.906 473.704 137.946L473.848 136.474H475.544V145.69H473.848L473.704 144.218C473.144 145.258 472.12 145.882 470.968 145.882ZM471.32 144.122C472.68 144.122 473.608 142.938 473.608 141.082C473.608 139.226 472.68 138.042 471.32 138.042C469.896 138.042 468.952 139.21 468.952 141.082C468.952 142.954 469.896 144.122 471.32 144.122ZM480.112 148.73C478.016 148.73 476.832 147.994 476.832 146.426C476.832 145.658 477.184 145.05 477.84 144.586C477.488 144.234 477.312 143.754 477.312 143.21C477.312 142.426 477.712 142.01 478.224 141.594C477.712 141.05 477.408 140.314 477.408 139.498C477.408 137.642 478.912 136.282 481.008 136.282C482.272 136.282 483.328 136.794 483.952 137.626C484.176 136.762 484.624 136.474 485.44 136.474H485.824L486.048 138.17H485.536C484.992 138.17 484.704 138.426 484.56 139.466C484.56 139.482 484.56 139.482 484.56 139.498C484.56 141.338 483.072 142.73 481.008 142.73C480.368 142.73 479.792 142.602 479.28 142.362C479.104 142.586 478.992 142.794 478.992 143.05C478.992 143.562 479.376 143.866 480.096 143.866H482.416C484.448 143.866 485.424 144.746 485.424 146.282C485.424 147.978 484.16 148.73 482.208 148.73H480.112ZM481.008 141.258C482.048 141.258 482.8 140.538 482.8 139.498C482.8 138.474 482.048 137.754 481.008 137.754C479.952 137.754 479.2 138.474 479.2 139.498C479.2 140.538 479.952 141.258 481.008 141.258ZM479.168 145.242C478.864 145.514 478.72 145.786 478.72 146.186C478.72 147.002 479.424 147.274 480.544 147.274H482.048C482.832 147.274 483.536 146.954 483.536 146.25C483.536 145.674 483.072 145.322 482.272 145.322H480C479.696 145.322 479.424 145.29 479.168 145.242ZM490.119 145.882C488.151 145.882 486.807 144.57 486.807 142.474V136.474H488.743V142.074C488.743 143.338 489.511 144.122 490.679 144.122C491.959 144.122 492.727 143.066 492.727 141.706V136.474H494.663V145.69H492.983L492.823 144.17C492.279 145.258 491.319 145.882 490.119 145.882ZM500.614 145.882C497.91 145.882 496.118 143.786 496.118 141.082C496.118 138.378 497.846 136.282 500.438 136.282C503.158 136.282 504.87 138.41 504.454 141.274H498.022C498.07 142.906 499.046 144.154 500.614 144.154C501.734 144.154 502.502 143.562 502.742 142.682H504.694C504.326 144.698 502.71 145.882 500.614 145.882ZM498.134 139.85H502.582C502.502 138.714 501.67 137.93 500.502 137.93C499.366 137.93 498.454 138.634 498.134 139.85Z" fill="#6C6E79" fill-opacity="0.8"/>
<circle cx="454" cy="98.6904" r="6" fill="#6C6E79" fill-opacity="0.8"/>
<line y1="-0.5" x2="24" y2="-0.5" transform="matrix(-4.37114e-08 -1 -1 4.37114e-08 454 130.69)" stroke="#6C6E79" stroke-opacity="0.8"/>
</svg>
