<svg width="940" height="472" viewBox="0 0 940 472" fill="none" xmlns="http://www.w3.org/2000/svg">
<path d="M219.649 67.6904V55.7224H224.369C226.769 55.7224 228.289 57.0184 228.289 59.0664C228.289 60.3304 227.649 61.2584 226.433 61.6744C227.777 62.0584 228.529 63.0344 228.529 64.3144C228.529 66.3784 227.009 67.6904 224.593 67.6904H219.649ZM221.665 65.8984H224.401C225.681 65.8984 226.465 65.2584 226.465 64.2024C226.465 63.1624 225.681 62.4904 224.401 62.5064H221.665V65.8984ZM221.665 60.8744H224.177C225.441 60.8584 226.241 60.2184 226.241 59.1944C226.241 58.1384 225.441 57.5144 224.177 57.5144H221.665V60.8744ZM233.866 67.8824C231.274 67.8824 229.562 66.0104 229.562 63.0824C229.562 60.1704 231.274 58.2824 233.866 58.2824C236.474 58.2824 238.154 60.1544 238.154 63.0824C238.154 66.0104 236.474 67.8824 233.866 67.8824ZM233.866 66.1224C235.258 66.1224 236.202 64.9704 236.202 63.0824C236.202 61.1944 235.258 60.0424 233.866 60.0424C232.49 60.0424 231.53 61.1944 231.53 63.0824C231.53 64.9864 232.49 66.1224 233.866 66.1224ZM243.021 67.8824C240.941 67.8824 239.181 66.6344 238.973 64.6824H240.877C241.037 65.6904 242.061 66.3624 243.085 66.3624C244.029 66.3624 244.669 65.8984 244.669 65.2104C244.669 62.9224 239.277 64.6984 239.277 61.0184C239.277 59.4024 240.669 58.2824 242.749 58.2824C244.669 58.2824 246.317 59.4504 246.557 61.1624H244.621C244.413 60.3784 243.645 59.7864 242.669 59.7864C241.773 59.7864 241.197 60.2024 241.197 60.8264C241.197 62.8104 246.605 61.1784 246.605 65.0344C246.605 66.7144 245.101 67.8824 243.021 67.8824ZM250.814 67.6904C249.502 67.6904 248.622 66.8264 248.622 65.5144V60.1704H247.086V58.4744H248.622V56.3784L250.574 55.5304V58.4744H252.59V60.1704H250.574V65.2424C250.574 65.6904 250.878 65.9944 251.31 65.9944H252.83L252.59 67.6904H250.814ZM257.578 67.8824C254.986 67.8824 253.274 66.0104 253.274 63.0824C253.274 60.1704 254.986 58.2824 257.578 58.2824C260.186 58.2824 261.866 60.1544 261.866 63.0824C261.866 66.0104 260.186 67.8824 257.578 67.8824ZM257.578 66.1224C258.97 66.1224 259.914 64.9704 259.914 63.0824C259.914 61.1944 258.97 60.0424 257.578 60.0424C256.202 60.0424 255.242 61.1944 255.242 63.0824C255.242 64.9864 256.202 66.1224 257.578 66.1224ZM269.277 67.6904V62.0904C269.277 60.8104 268.509 60.0424 267.341 60.0424C266.061 60.0424 265.309 61.0984 265.309 62.4584V67.6904H263.357V58.4744H265.053L265.213 59.9624C265.757 58.8904 266.717 58.2824 267.901 58.2824C269.885 58.2824 271.229 59.5944 271.229 61.6904V67.6904H269.277Z" fill="#6C6E79" fill-opacity="0.8"/>
<line y1="-0.5" x2="32" y2="-0.5" transform="matrix(-4.37114e-08 -1 -1 4.37114e-08 223 102.69)" stroke="#6C6E79" stroke-opacity="0.8"/>
<circle cx="223" cy="110.69" r="6" fill="#6C6E79" fill-opacity="0.8"/>
</svg>
