<svg width="940" height="472" viewBox="0 0 940 472" fill="none" xmlns="http://www.w3.org/2000/svg">
<path d="M407.344 19.6904V7.72243H412.064C414.464 7.72243 415.984 9.01843 415.984 11.0664C415.984 12.3304 415.344 13.2584 414.128 13.6744C415.472 14.0584 416.224 15.0344 416.224 16.3144C416.224 18.3784 414.704 19.6904 412.288 19.6904H407.344ZM409.36 17.8984H412.096C413.376 17.8984 414.16 17.2584 414.16 16.2024C414.16 15.1624 413.376 14.4904 412.096 14.5064H409.36V17.8984ZM409.36 12.8744H411.872C413.136 12.8584 413.936 12.2184 413.936 11.1944C413.936 10.1384 413.136 9.51443 411.872 9.51443H409.36V12.8744ZM421.738 19.8824C419.034 19.8824 417.242 17.7864 417.242 15.0824C417.242 12.3784 418.97 10.2824 421.562 10.2824C424.282 10.2824 425.994 12.4104 425.578 15.2744H419.146C419.194 16.9064 420.17 18.1544 421.738 18.1544C422.858 18.1544 423.626 17.5624 423.866 16.6824H425.818C425.45 18.6984 423.834 19.8824 421.738 19.8824ZM419.258 13.8504H423.706C423.626 12.7144 422.794 11.9304 421.626 11.9304C420.49 11.9304 419.578 12.6344 419.258 13.8504ZM427.215 19.6904V10.4744H428.911L429.055 11.9464C429.343 11.0504 430.031 10.4744 430.959 10.4744H432.415L432.639 12.1704H431.087C429.791 12.1704 429.167 13.2264 429.167 14.8584V19.6904H427.215ZM433.63 19.6904V7.72243H435.582V19.6904H433.63ZM439.496 10.4744V19.6904H437.544V10.4744H439.496ZM438.52 9.21043C437.784 9.21043 437.256 8.71443 437.256 7.99443C437.256 7.27443 437.784 6.77843 438.52 6.77843C439.256 6.77843 439.784 7.27443 439.784 7.99443C439.784 8.71443 439.256 9.21043 438.52 9.21043ZM447.378 19.6904V14.0904C447.378 12.8104 446.61 12.0424 445.442 12.0424C444.162 12.0424 443.41 13.0984 443.41 14.4584V19.6904H441.458V10.4744H443.154L443.314 11.9624C443.858 10.8904 444.818 10.2824 446.002 10.2824C447.986 10.2824 449.33 11.5944 449.33 13.6904V19.6904H447.378Z" fill="#6C6E79" fill-opacity="0.8"/>
<line y1="-0.5" x2="56" y2="-0.5" transform="matrix(-4.37114e-08 -1 -1 4.37114e-08 445 78.6904)" stroke="#6C6E79" stroke-opacity="0.8"/>
<circle cx="445" cy="86.6904" r="6" fill="#6C6E79" fill-opacity="0.8"/>
</svg>
