<svg width="940" height="472" viewBox="0 0 940 472" fill="none" xmlns="http://www.w3.org/2000/svg">
<circle cx="420" cy="126.69" r="6" fill="#6C6E79" fill-opacity="0.8"/>
<path d="M340.344 145.69V133.722H345.064C347.464 133.722 348.984 135.018 348.984 137.066C348.984 138.33 348.344 139.258 347.128 139.674C348.472 140.058 349.224 141.034 349.224 142.314C349.224 144.378 347.704 145.69 345.288 145.69H340.344ZM342.36 143.898H345.096C346.376 143.898 347.16 143.258 347.16 142.202C347.16 141.162 346.376 140.49 345.096 140.506H342.36V143.898ZM342.36 138.874H344.872C346.136 138.858 346.936 138.218 346.936 137.194C346.936 136.138 346.136 135.514 344.872 135.514H342.36V138.874ZM354.242 145.882C351.922 145.882 350.258 143.994 350.258 141.082C350.258 138.17 351.906 136.282 354.242 136.282C355.394 136.282 356.418 136.906 356.978 137.946L357.122 136.474H358.818V145.69H357.122L356.978 144.218C356.418 145.258 355.394 145.882 354.242 145.882ZM354.594 144.122C355.954 144.122 356.882 142.938 356.882 141.082C356.882 139.226 355.954 138.042 354.594 138.042C353.17 138.042 352.226 139.21 352.226 141.082C352.226 142.954 353.17 144.122 354.594 144.122ZM360.809 145.69V136.474H362.505L362.649 137.946C362.937 137.05 363.625 136.474 364.553 136.474H366.009L366.233 138.17H364.681C363.385 138.17 362.761 139.226 362.761 140.858V145.69H360.809ZM370.816 145.882C368.112 145.882 366.336 143.994 366.336 141.082C366.336 138.138 368.112 136.282 370.816 136.282C373.072 136.282 374.64 137.738 374.816 139.866H372.864C372.72 138.842 371.92 138.042 370.816 138.042C369.296 138.042 368.288 139.21 368.288 141.082C368.288 142.938 369.296 144.122 370.816 144.122C371.984 144.122 372.848 143.354 373.008 142.314H374.976C374.72 144.522 373.056 145.882 370.816 145.882ZM380.278 145.882C377.574 145.882 375.782 143.786 375.782 141.082C375.782 138.378 377.51 136.282 380.102 136.282C382.822 136.282 384.534 138.41 384.118 141.274H377.686C377.734 142.906 378.71 144.154 380.278 144.154C381.398 144.154 382.166 143.562 382.406 142.682H384.358C383.99 144.698 382.374 145.882 380.278 145.882ZM377.798 139.85H382.246C382.166 138.714 381.334 137.93 380.166 137.93C379.03 137.93 378.118 138.634 377.798 139.85ZM385.755 145.69V133.722H387.707V145.69H385.755ZM393.462 145.882C390.87 145.882 389.158 144.01 389.158 141.082C389.158 138.17 390.87 136.282 393.462 136.282C396.07 136.282 397.75 138.154 397.75 141.082C397.75 144.01 396.07 145.882 393.462 145.882ZM393.462 144.122C394.854 144.122 395.798 142.97 395.798 141.082C395.798 139.194 394.854 138.042 393.462 138.042C392.086 138.042 391.126 139.194 391.126 141.082C391.126 142.986 392.086 144.122 393.462 144.122ZM405.16 145.69V140.09C405.16 138.81 404.392 138.042 403.224 138.042C401.944 138.042 401.192 139.098 401.192 140.458V145.69H399.24V136.474H400.936L401.096 137.962C401.64 136.89 402.6 136.282 403.784 136.282C405.768 136.282 407.112 137.594 407.112 139.69V145.69H405.16ZM412.455 145.882C410.135 145.882 408.471 143.994 408.471 141.082C408.471 138.17 410.119 136.282 412.455 136.282C413.607 136.282 414.631 136.906 415.191 137.946L415.335 136.474H417.031V145.69H415.335L415.191 144.218C414.631 145.258 413.607 145.882 412.455 145.882ZM412.807 144.122C414.167 144.122 415.095 142.938 415.095 141.082C415.095 139.226 414.167 138.042 412.807 138.042C411.383 138.042 410.439 139.21 410.439 141.082C410.439 142.954 411.383 144.122 412.807 144.122Z" fill="#6C6E79" fill-opacity="0.8"/>
</svg>
