<svg width="940" height="472" viewBox="0 0 940 472" fill="none" xmlns="http://www.w3.org/2000/svg">
<path d="M107.176 217.69L112.04 205.722H114.2L119.064 217.69H116.888L115.848 215.114H110.376L109.336 217.69H107.176ZM111.096 213.338H115.128L113.112 208.314L111.096 213.338ZM122.892 217.882C120.924 217.882 119.58 216.57 119.58 214.474V208.474H121.516V214.074C121.516 215.338 122.284 216.122 123.452 216.122C124.732 216.122 125.5 215.066 125.5 213.706V208.474H127.436V217.69H125.756L125.596 216.17C125.052 217.258 124.092 217.882 122.892 217.882ZM132.794 217.882C130.714 217.882 128.954 216.634 128.746 214.682H130.65C130.81 215.69 131.834 216.362 132.858 216.362C133.802 216.362 134.442 215.898 134.442 215.21C134.442 212.922 129.05 214.698 129.05 211.018C129.05 209.402 130.442 208.282 132.522 208.282C134.442 208.282 136.09 209.45 136.33 211.162H134.394C134.186 210.378 133.418 209.786 132.442 209.786C131.546 209.786 130.97 210.202 130.97 210.826C130.97 212.81 136.378 211.178 136.378 215.034C136.378 216.714 134.874 217.882 132.794 217.882ZM140.588 217.69C139.276 217.69 138.396 216.826 138.396 215.514V210.17H136.86V208.474H138.396V206.378L140.348 205.53V208.474H142.364V210.17H140.348V215.242C140.348 215.69 140.652 215.994 141.084 215.994H142.604L142.364 217.69H140.588ZM145.683 208.474V217.69H143.731V208.474H145.683ZM144.707 207.21C143.971 207.21 143.443 206.714 143.443 205.994C143.443 205.274 143.971 204.778 144.707 204.778C145.443 204.778 145.971 205.274 145.971 205.994C145.971 206.714 145.443 207.21 144.707 207.21ZM153.566 217.69V212.09C153.566 210.81 152.798 210.042 151.63 210.042C150.35 210.042 149.598 211.098 149.598 212.458V217.69H147.646V208.474H149.342L149.502 209.962C150.046 208.89 151.006 208.282 152.19 208.282C154.174 208.282 155.518 209.594 155.518 211.69V217.69H153.566Z" fill="#6C6E79" fill-opacity="0.8"/>
<circle cx="113" cy="168.69" r="6" fill="#6C6E79" fill-opacity="0.8"/>
<line y1="-0.5" x2="24" y2="-0.5" transform="matrix(-4.37114e-08 -1 -1 4.37114e-08 113 200.69)" stroke="#6C6E79" stroke-opacity="0.8"/>
</svg>
