<svg width="940" height="472" viewBox="0 0 940 472" fill="none" xmlns="http://www.w3.org/2000/svg">
<path d="M346.176 57.6904L351.04 45.7224H353.2L358.064 57.6904H355.888L354.848 55.1144H349.376L348.336 57.6904H346.176ZM350.096 53.3384H354.128L352.112 48.3144L350.096 53.3384ZM370.522 57.6904V52.0904C370.522 50.8264 369.818 50.0264 368.698 50.0264C367.482 50.0264 366.73 51.0984 366.73 52.4584V57.6904H364.794V52.0904C364.794 50.8264 364.09 50.0264 362.97 50.0264C361.754 50.0264 361.018 51.0984 361.018 52.4584V57.6904H359.066V48.4744H360.762L360.922 49.9784C361.45 48.8904 362.378 48.2824 363.53 48.2824C364.89 48.2824 365.93 48.9384 366.426 50.0744C367.066 48.8744 368.058 48.2824 369.258 48.2824C371.162 48.2824 372.458 49.5784 372.458 51.6904V57.6904H370.522ZM377.716 57.8824C375.636 57.8824 373.876 56.6344 373.668 54.6824H375.572C375.732 55.6904 376.756 56.3624 377.78 56.3624C378.724 56.3624 379.364 55.8984 379.364 55.2104C379.364 52.9224 373.972 54.6984 373.972 51.0184C373.972 49.4024 375.364 48.2824 377.444 48.2824C379.364 48.2824 381.012 49.4504 381.252 51.1624H379.316C379.108 50.3784 378.34 49.7864 377.364 49.7864C376.468 49.7864 375.892 50.2024 375.892 50.8264C375.892 52.8104 381.3 51.1784 381.3 55.0344C381.3 56.7144 379.796 57.8824 377.716 57.8824ZM385.51 57.6904C384.198 57.6904 383.318 56.8264 383.318 55.5144V50.1704H381.782V48.4744H383.318V46.3784L385.27 45.5304V48.4744H387.286V50.1704H385.27V55.2424C385.27 55.6904 385.574 55.9944 386.006 55.9944H387.526L387.286 57.6904H385.51ZM392.418 57.8824C389.714 57.8824 387.922 55.7864 387.922 53.0824C387.922 50.3784 389.65 48.2824 392.242 48.2824C394.962 48.2824 396.674 50.4104 396.258 53.2744H389.826C389.874 54.9064 390.85 56.1544 392.418 56.1544C393.538 56.1544 394.306 55.5624 394.546 54.6824H396.498C396.13 56.6984 394.514 57.8824 392.418 57.8824ZM389.938 51.8504H394.386C394.306 50.7144 393.474 49.9304 392.306 49.9304C391.17 49.9304 390.258 50.6344 389.938 51.8504ZM397.896 57.6904V48.4744H399.592L399.736 49.9464C400.024 49.0504 400.712 48.4744 401.64 48.4744H403.096L403.32 50.1704H401.768C400.472 50.1704 399.848 51.2264 399.848 52.8584V57.6904H397.896ZM407.423 57.8824C405.103 57.8824 403.439 55.9944 403.439 53.0824C403.439 50.1704 405.087 48.2824 407.423 48.2824C408.511 48.2824 409.487 48.8424 410.063 49.7864V45.7224H411.999V57.6904H410.303L410.159 56.2184C409.599 57.2584 408.575 57.8824 407.423 57.8824ZM407.775 56.1224C409.135 56.1224 410.063 54.9384 410.063 53.0824C410.063 51.2264 409.135 50.0424 407.775 50.0424C406.351 50.0424 405.407 51.2104 405.407 53.0824C405.407 54.9544 406.351 56.1224 407.775 56.1224ZM417.462 57.8824C415.142 57.8824 413.478 55.9944 413.478 53.0824C413.478 50.1704 415.126 48.2824 417.462 48.2824C418.614 48.2824 419.638 48.9064 420.198 49.9464L420.342 48.4744H422.038V57.6904H420.342L420.198 56.2184C419.638 57.2584 418.614 57.8824 417.462 57.8824ZM417.814 56.1224C419.174 56.1224 420.102 54.9384 420.102 53.0824C420.102 51.2264 419.174 50.0424 417.814 50.0424C416.39 50.0424 415.446 51.2104 415.446 53.0824C415.446 54.9544 416.39 56.1224 417.814 56.1224ZM435.486 57.6904V52.0904C435.486 50.8264 434.782 50.0264 433.662 50.0264C432.446 50.0264 431.694 51.0984 431.694 52.4584V57.6904H429.758V52.0904C429.758 50.8264 429.054 50.0264 427.934 50.0264C426.718 50.0264 425.982 51.0984 425.982 52.4584V57.6904H424.03V48.4744H425.726L425.886 49.9784C426.414 48.8904 427.342 48.2824 428.494 48.2824C429.854 48.2824 430.894 48.9384 431.39 50.0744C432.03 48.8744 433.022 48.2824 434.222 48.2824C436.126 48.2824 437.422 49.5784 437.422 51.6904V57.6904H435.486Z" fill="#6C6E79" fill-opacity="0.8"/>
<line y1="-0.5" x2="24" y2="-0.5" transform="matrix(-4.37114e-08 -1 -1 4.37114e-08 430 84.6904)" stroke="#6C6E79" stroke-opacity="0.8"/>
<circle cx="430" cy="92.6904" r="6" fill="#6C6E79" fill-opacity="0.8"/>
</svg>
