<svg width="84" height="84" xmlns="http://www.w3.org/2000/svg"><path d="M57.95 24.72c-5.12-4.12-11.54-5.99-18.06-5.28C26.41 20.9 16.63 33.05 18.1 46.53c.18 1.7.55 3.36 1.08 4.98l-6.94 2.02c-.64.19-1.13.68-1.31 1.33-.18.64-.01 1.32.44 1.81l3.82 4.12-9.5 10.57c-.34.38-.52.88-.49 1.39.03.51.25.98.64 1.32.98.87 1.98 1.73 2.98 2.55.77.63 1.53 1.24 2.29 1.81.35.27.75.4 1.16.4.48 0 .96-.18 1.33-.54l10.05-9.67 3.61 2.97c.46.38 1.07.53 1.66.39.59-.14 1.06-.53 1.31-1.08l2.1-4.65c3.21 1.47 6.67 2.23 10.19 2.23.89 0 1.78-.05 2.68-.15 6.53-.71 12.39-3.92 16.51-9.04 4.12-5.12 5.99-11.53 5.28-18.06-.71-6.53-3.92-12.4-9.04-16.51zm-29.5 45.26l-3.58-2.95c-.75-.62-1.85-.58-2.55.1L12.26 76.8a93.708 93.708 0 01-5.03-4.16l9.48-10.56c.67-.74.66-1.85-.02-2.58l-3.82-4.07L38.35 48l-9.9 21.98zm-4.12-24.12c-1.09-10.04 6.19-19.1 16.23-20.19 4.86-.53 9.64.87 13.46 3.94 3.81 3.07 6.2 7.43 6.73 12.3.53 4.87-.87 9.64-3.94 13.46-3.07 3.81-7.43 6.2-12.3 6.73-3.31.36-6.62-.19-9.62-1.57l2.15-4.77c1.29.63 2.58 1.06 3.83 1.3v2.65c0 .55.45 1 1 1s1-.45 1-1V57.3c.1 0 .2.02.29.02 2.14 0 3.99-.66 5.15-1.97 1.57-1.77 1.94-4.8.87-7.2-1.39-3.13-4.63-4.02-7.49-4.81-2.43-.67-4.54-1.25-5.19-2.94-.85-2.2.67-5.96 3.66-7.21 2.35-.98 5.28-.26 7.31 1.79a.996.996 0 101.42-1.4c-1.85-1.88-4.32-2.85-6.71-2.8v-2.72c0-.55-.45-1-1-1s-1 .45-1 1v3.02c-.27.08-.54.15-.8.26-4.13 1.73-5.95 6.68-4.75 9.78 1.01 2.63 3.82 3.4 6.52 4.15 2.67.74 5.19 1.43 6.19 3.69.74 1.67.51 3.89-.53 5.06-1.35 1.52-4.84 1.96-8.96-.08l2.38-5.28c.31-.69.19-1.47-.3-2.04-.5-.57-1.26-.79-1.98-.58L25.2 49.75c-.43-1.25-.72-2.56-.87-3.89zm35.82 12.18c-3.78 4.7-9.17 7.65-15.17 8.3-4.07.44-8.14-.23-11.83-1.93l.93-2.07a20.15 20.15 0 0010.65 1.73c5.4-.59 10.24-3.24 13.64-7.47 3.4-4.23 4.95-9.53 4.37-14.92-1.21-11.14-11.26-19.22-22.39-18.01-11.14 1.21-19.21 11.25-18.01 22.39.16 1.45.47 2.87.93 4.24l-2.18.64c-.49-1.5-.84-3.05-1.01-4.63-1.34-12.38 7.64-23.55 20.02-24.9 6-.65 11.89 1.07 16.6 4.85 4.7 3.78 7.65 9.17 8.3 15.17.65 6.01-1.07 11.91-4.85 16.61zM78.7 22.35a1.01 1.01 0 00-1.34-.45l-7.03 3.52c-.49.25-.69.85-.45 1.34a1.007 1.007 0 001.35.44l7.03-3.52c.48-.23.68-.83.44-1.33zM73.24 11.6a.989.989 0 00-1.41.08l-5.04 5.61a.998.998 0 00.08 1.41c.19.17.43.26.67.26.27 0 .55-.11.74-.33l5.04-5.61c.37-.41.33-1.05-.08-1.42zM57.9 18.33c.11.04.22.06.33.06.41 0 .8-.26.94-.67.16-.45 3.8-10.94 3.9-11.22a1 1 0 00-.63-1.26 1 1 0 00-1.26.63l-3.89 11.2c-.19.51.09 1.08.61 1.26z" fill="#898d9a"/></svg>
