<svg xmlns="http://www.w3.org/2000/svg" width="128" height="100" fill="none"><path fill="#181e15" d="M87.323 53.038C85.836 64.786 75.83 73.813 63.76 73.814h-.004c12.098 0 22.08-9.059 23.568-20.776M57.426 72.957l-.17-.046zm6.335-45.648c12.5 0 22.634 10.223 22.634 22.693 0 12.533-10.132 22.688-22.634 22.688-12.504 0-22.64-10.156-22.64-22.688 0-12.538 10.136-22.693 22.64-22.693M40.226 53.293c1.146 8.316 6.577 15.257 13.986 18.518-7.404-3.257-12.84-10.185-13.986-18.518M63.758 28.76c-7.568.06-15.271 3.892-17.772 12.072-.525 1.715-.856 3.166-.856 4.816 0 3.827 2.173 4.024 2.173 5.807 0 .924-.724 1.582-1.577 1.582-1.515 0-2.699-1.714-2.699-4.619 0-2.638.691-4.765.785-5.076.004-.017-.008-.065-.066-.084-.06-.022-.104 0-.119.02-.017.028-1.059 2.997-1.062 6.724-.002 7.652 3.882 15.367 12.045 17.874 1.71.53 3.159.858 4.804.858 3.815 0 3.95-2.243 5.728-2.243.92 0 1.644.727 1.644 1.65 0 1.452-1.712 2.64-4.607 2.64-2.633 0-4.761-.672-5.06-.787-.031-.013-.084.02-.099.063-.025.059.005.116.035.133.735.332 3.215 1.051 6.704 1.051 7.565 0 15.33-3.827 17.767-12.072.525-1.648.855-3.166.855-4.748 0-3.89-2.171-4.023-2.171-5.805 0-.99.658-1.652 1.581-1.652 1.51 0 2.687 1.782 2.693 4.69.008 2.69-.785 5.038-.788 5.075 0 .038.013.066.073.086.074.025.11-.002.119-.023.011-.026 1.094-2.94 1.055-6.79-.07-7.524-3.815-15.306-12.044-17.812-1.71-.53-3.158-.857-4.798-.857-3.82 0-3.952 2.175-5.729 2.175-.984 0-1.645-.725-1.645-1.581 0-1.52 1.777-2.707 4.607-2.704 3.023 0 5.022.836 5.066.842.021.003.062-.003.09-.067.02-.053 0-.098-.021-.116-.123-.097-3.197-1.15-6.711-1.122m8.026 8.375c1.515 0 2.305 1.055 2.305 2.243 0 2.243-1.908 4.22-4.606 6.267.196.525.516.98.973 1.213.023-.008.893-.313 1.755-.279.785.03 1.874.31 1.929 1.043.115 1.666-3.653.996-3.668.996-1.45.393-4.215 2.042-4.215 6.266 0 2.838 1.777 5.472 4.543 5.472 2.1 0 3.896-1.696 3.96-4.137 0-1.582-.738-3.116-2.317-3.116-.788 0-1.584.566-1.64 1.412-.086 1.282 1.048 1.488 1.049 2.351 0 .59-.46.855-.924.855-1.313 0-2.302-1.319-2.302-2.968 0-1.978 1.711-3.629 3.947-3.629 2.899 0 4.412 2.506 4.413 5.207 0 2.97-2.567 6.072-6.317 6.072-4.543 0-6.845-3.828-6.845-7.257 0-4.815 3.29-6.862 4.67-7.588-.26-.197-.459-.46-.656-.79-1.58 1.123-3.016 2.114-6.04 3.833-.134 2.113-.345 4.416-.87 5.998-1.119 3.365-3.425 5.805-6.45 5.805-2.567 0-3.816-1.847-3.816-3.828 0-1.45.858-3.294 2.367-4.681 1.908-1.715 4.014-2.77 6.912-4.29.067-.393.133-.791.197-1.252-.725.657-1.778.921-2.635.921-1.38 0-2.498-1.186-2.762-2.441-1.84-.13-3.221-1.452-3.29-3.562 0-1.519.592-2.837 1.578-2.837.395 0 .528.328.529.591 0 .267-.33 1.12-.33 1.979s.394 1.98 1.45 1.98c0-3.428 2.497-7.85 5.46-7.85 1.972 0 2.236 1.453 2.236 2.111 0 3.102-3.094 6.532-5.596 7.39.067.266.334.992 1.12.992.99 0 2.174-.923 2.768-1.652.263-1.386 1.249-3.367 2.563-3.368.53 0 .791.398.791.86 0 .991-1.083 2.277-1.872 3.135-.193.963-.252 1.709-.253 1.998 2.302-1.386 3.575-2.167 5.287-3.417-.136-.46-.135-.992-.135-1.517 0-3.1 2.04-6.53 4.737-6.531M59.717 51.723c-2.962 1.452-6.885 4.16-6.885 6.994 0 .987.58 1.605 1.464 1.641h.18c3.382-.151 4.715-4.68 5.24-8.635m-19.709-1.107v.002zm47.499.002v-.002zM63.756 26.187c-12.849 0-23.351 10.284-23.743 23.074.39-12.809 10.87-23.076 23.742-23.075m1.222.03C77.19 26.839 86.965 36.7 87.49 48.962c-.52-12.042-10.005-21.794-21.909-22.705zm-4.876 12.694c-1.309-.437-3.453 3.699-3.453 5.876 2.171-1.188 5-5.36 3.453-5.876m11.81.049c-.998-.494-2.825 2.131-2.825 4.84 1.973-1.718 3.962-4.268 2.825-4.84m-8.154-12.774h-.002zM40.17 52.865q.01.087.02.174-.01-.087-.02-.174"/></svg>