<svg xmlns="http://www.w3.org/2000/svg" width="79" height="58" fill="none"><path fill="#898d9a" fill-rule="evenodd" d="M30.3 25.4c0 10.4 8.5 18.9 18.9 18.9 10.4 0 18.9-8.5 18.9-18.9 0-10.4-8.5-18.9-18.9-18.9-10.4 0-18.9 8.5-18.9 18.9Zm2 .1c0-9.3 7.6-16.9 16.9-16.9 9.3 0 16.9 7.5 16.9 16.9 0 9.3-7.6 16.9-16.9 16.9-9.3 0-16.9-7.6-16.9-16.9Z" clip-rule="evenodd"/><path fill="#898d9a" fill-rule="evenodd" d="M26.1 25.5c0 12.7 10.3 23.1 23.1 23.1s23.2-10.4 23.1-23.1c0-12.7-10.4-23.1-23.1-23.1-12.7 0-23.1 10.3-23.1 23.1Zm2-.1c0-11.6 9.4-21.1 21.1-21.1 11.7 0 21.1 9.5 21.1 21.1 0 11.6-9.4 21.1-21.1 21.1-11.6 0-21.1-9.5-21.1-21.1Z" clip-rule="evenodd"/><path fill="#898d9a" fill-rule="evenodd" d="M14.9 37c0 8.5 7 15.5 15.5 15.5 1.2 0 2.4-.2 3.6-.5l18.4-3.8c.3 0 .6-.2.7-.5.1-.3.1-.6 0-.9-.2-.3-.6-.6-1-.5-1 .1-2 .2-2.9.2-11.6 0-21.1-9.4-21.1-21.1 0-4.8 1.7-9.4 4.7-13.2.3-.3.3-.7.1-1.1-.2-.3-.5-.5-.8-.5-.4 0-.7.1-.9.4L20.7 24.3c-.339.44-.632.812-.882 1.13-.49.622-.82 1.04-1.018 1.37-2.5 2.8-3.9 6.4-3.9 10.2Zm2 0c0-3.3 1.2-6.5 3.4-9 .153-.229 1.937-2.497 4.24-5.425L26.8 19.7c-.5 1.8-.7 3.8-.7 5.7 0 11 7.6 20.2 17.9 22.6l-10.4 2.1c-1.1.3-2.2.4-3.2.4-7.4 0-13.5-6.1-13.5-13.5Z" clip-rule="evenodd"/><path fill="#898d9a" fill-rule="evenodd" d="M7.2 44.7c0 5.7 4.7 10.4 10.4 10.4 1.2 0 2.4-.2 3.5-.7h.2l6.4-2.4c.4-.1.6-.6.6-1s-.4-.8-.8-.9c-6.2-1.3-10.7-6.9-10.7-13.2 0-1.2.2-2.4.5-3.5.2-.4 0-.9-.4-1.1-.4-.2-.9-.2-1.2.1l-4.9 4.4c-.1 0-.1.1-.1.1-2.2 2-3.5 4.8-3.5 7.8Zm5-6.3.1-.1 2.6-2.4V37c0 6.3 3.8 11.9 9.4 14.3l-3.6 1.4h-.1c-.9.3-1.9.5-2.9.5-4.6 0-8.4-3.8-8.4-8.4 0-2.5 1-4.8 2.9-6.4Z" clip-rule="evenodd"/><path fill="#898d9a" fill-rule="evenodd" d="M.1 51.9c0 3.2 2.6 5.8 5.8 5.8.8 0 1.7-.2 2.3-.6h.1l6.5-2.7c.4-.1.6-.5.6-.9s-.3-.8-.7-.9c-3.4-1.2-5.6-4.4-5.6-7.9 0-.14.022-.279.045-.428.026-.172.055-.358.055-.572.1-.4-.1-.8-.5-1-.3-.2-.8-.2-1.1.1l-5.1 4.4C1 48.3.1 50 .1 51.9Zm3.7-3.1.1-.1 3.4-3c.4 3.2 2.1 6 4.8 7.7l-4.3 1.8c-.057.057-.082.082-.111.092-.022.008-.046.008-.089.008-.5.3-1 .4-1.6.4-2.1 0-3.8-1.7-3.8-3.8 0-1.2.6-2.4 1.6-3.1Z" clip-rule="evenodd"/><path fill="#898d9a" d="M57.3 16.1c-.2 0-.4-.1-.6-.2-1.7-1.4-3.8-2.3-6-2.7-.5-.1-.9-.6-.8-1.1.1-.5.6-.9 1.1-.8 2.5.4 5 1.5 7 3.1.4.3.5 1 .2 1.4-.3.2-.6.3-.9.3ZM60.6 33.8c-.2 0-.3 0-.5-.1-.5-.3-.6-.9-.4-1.4.4-.7.8-1.5 1-2.2.2-.7.4-1.5.6-2.2.3-2 .2-4-.5-6-.2-.5.1-1.1.6-1.3.5-.2 1.1.1 1.3.6.7 2.2.9 4.5.6 6.9-.1.9-.4 1.7-.6 2.6-.3.9-.7 1.8-1.2 2.6-.2.3-.6.5-.9.5Z"/><path fill="#898d9a" d="M13.4 46.9c-.3 0-.6-.1-.8-.3-.4-.4-.3-1 .1-1.4L44 18.1c.2-.2.6-.3.9-.2.3.1.6.3.7.6l4 9.3L75.1 2.7l-5.3.6c-.6.1-1-.3-1.1-.9-.1-.5.3-1 .9-1.1l8.2-1c.4-.1.8.2 1 .6.2.4.1.8-.2 1.1L49.9 30.2c-.2.2-.6.3-.9.3-.3-.1-.6-.3-.7-.6l-4.1-9.4L14 46.7c-.1.1-.4.2-.6.2Z"/><path fill="#898d9a" d="M76.9 10.9h-.1c-.5-.1-.9-.6-.9-1.1l1-8.6c.1-.5.6-.9 1.1-.9.5.1.9.6.9 1.1l-1 8.6c-.1.5-.5.9-1 .9Z"/></svg>
