<svg width="84" height="84" xmlns="http://www.w3.org/2000/svg"><g fill="#898d9a"><path d="M11.99 50.07c.22 0 .45-.07.63-.22a1 1 0 00.14-1.41L7.93 42.5a1 1 0 00-1.41-.14 1 1 0 00-.14 1.41l4.84 5.94c.19.24.48.36.77.36zm2.57-7.11a.993.993 0 001.23.69c.53-.15.84-.7.7-1.23L14.99 37c-.15-.53-.7-.84-1.23-.7-.53.15-.84.7-.7 1.23l1.5 5.43zm5.7 4.78c.05.01.09.01.14.01a1 1 0 00.99-.86l.7-5.05c.08-.55-.31-1.05-.85-1.13-.55-.08-1.05.31-1.13.85l-.7 5.05a.99.99 0 00.85 1.13zm40.23-23.49a.998.998 0 00-1.39.26L48.46 40.02c-.31.46-.2 1.08.26 1.39.17.12.37.18.56.18.32 0 .63-.15.83-.43l10.64-15.51c.31-.46.19-1.08-.26-1.4zm-10.15 8.42c.96-.12 1.9-.6 2.65-1.34.75-.75 1.22-1.69 1.34-2.65.13-1.04-.18-2.02-.86-2.69-1.34-1.34-3.74-1.12-5.34.48-.75.75-1.22 1.69-1.34 2.65-.13 1.04.18 2.02.86 2.69.57.57 1.37.89 2.24.89.15 0 .3-.01.45-.03zm-1.28-2.27c-.32-.32-.32-.79-.29-1.03.06-.51.34-1.05.77-1.48.51-.51 1.15-.79 1.7-.79.32 0 .61.1.82.3.32.32.32.79.29 1.04-.06.51-.34 1.05-.77 1.48-.43.43-.97.71-1.48.77-.25.03-.72.03-1.04-.29zm8.11 3.64c-1.61 1.61-1.82 4-.49 5.34.59.59 1.39.88 2.23.88 1.07 0 2.22-.46 3.12-1.36 1.61-1.61 1.83-4 .49-5.34-1.35-1.34-3.74-1.12-5.35.48zm3.45 3.45c-.81.81-1.97 1.04-2.52.49s-.33-1.7.49-2.52c.51-.51 1.15-.79 1.7-.79.32 0 .61.1.82.3.54.55.32 1.7-.49 2.52z"/><path d="M55.08 15.9c-9.34 0-16.94 7.6-16.94 16.94 0 9.34 7.6 16.94 16.94 16.94 9.34 0 16.94-7.6 16.94-16.94 0-9.35-7.6-16.94-16.94-16.94zm0 31.87c-8.24 0-14.94-6.7-14.94-14.94 0-8.24 6.7-14.94 14.94-14.94 8.24 0 14.94 6.7 14.94 14.94 0 8.24-6.7 14.94-14.94 14.94z"/><path d="M55.08 10.07c-12.55 0-22.76 10.21-22.76 22.77 0 4.6 1.37 8.99 3.94 12.77L24.41 57.1l-4.61-4.72a.996.996 0 00-1.41-.02l-3.52 3.42c-.19.19-.3.44-.3.7 0 .27.1.52.28.71l4.61 4.72-2 1.94-4.61-4.72a.996.996 0 00-1.41-.02l-3.52 3.42c-.19.19-.3.44-.3.7 0 .27.1.52.28.71l9.44 9.67a1.015 1.015 0 001.42.02l23.03-22.37c3.89 2.82 8.47 4.32 13.31 4.32 12.55 0 22.77-10.21 22.77-22.77 0-12.56-10.24-22.74-22.79-22.74zm0 43.53c-4.69 0-9.11-1.52-12.79-4.4-.04-.03-.08-.04-.12-.06-.06-.03-.11-.07-.18-.09-.06-.02-.12-.03-.19-.04-.06-.01-.12-.02-.19-.01-.06 0-.12.02-.19.03-.06.02-.12.03-.18.06s-.11.07-.16.1c-.04.03-.08.04-.11.07L18.06 71.52l-8.04-8.24 2.09-2.03 4.61 4.72c.38.39 1.02.4 1.41.02l3.43-3.33c.19-.19.3-.44.3-.7 0-.27-.1-.52-.28-.71l-4.61-4.72 2.09-2.03 4.61 4.72c.39.39 1.02.4 1.41.02l13.16-12.78c.03-.03.05-.07.08-.11.04-.05.08-.1.11-.16s.05-.12.06-.18c.02-.06.03-.12.04-.18.01-.06 0-.13-.01-.19s-.01-.12-.03-.19c-.02-.06-.05-.12-.08-.18-.02-.04-.03-.08-.06-.12a20.607 20.607 0 01-4.04-12.31c0-11.45 9.32-20.77 20.76-20.77 11.45 0 20.77 9.32 20.77 20.77S66.53 53.6 55.08 53.6z"/></g></svg>
