<svg version="1.1" id="Layer_1" xmlns="http://www.w3.org/2000/svg" xmlns:xlink="http://www.w3.org/1999/xlink" x="0" y="0" viewBox="0 0 510 420" xml:space="preserve"><style>.st0{fill:#333}.st1{fill:#fff}.st2{fill:#eff1f4}.st5{fill:#09090a}</style><path class="st0" d="M492 415.8h-88.6c-.6 0-1-.4-1-1s.4-1 1-1H492c.6 0 1 .4 1 1s-.4 1-1 1z"/><path transform="rotate(-16.524 445.984 335.16)" class="st0" d="M420.5 302.1h51.1v66.2h-51.1z"/><path class="st0" d="M431 375.2c-.4 0-.8-.3-1-.7L411.2 311c-.1-.3 0-.5.1-.8.1-.2.3-.4.6-.5l49-14.5c.5-.2 1.1.1 1.2.7l18.8 63.5c.1.3 0 .5-.1.8-.1.2-.3.4-.6.5l-49 14.5h-.2zm-17.6-63.8l18.3 61.5 47.1-14-18.3-61.5-47.1 14z"/><path class="st1" d="M461.3 296.9l-49.1 14 4.1 13.9 49.1-14z"/><path class="st0" d="M415.7 326l-4.7-15.8 51-14.5 4.7 15.8-51 14.5zm-2.2-14.4l3.5 11.9 47.1-13.4-3.5-11.9-47.1 13.4z"/><ellipse transform="rotate(-16.524 435.703 300.483)" class="st0" cx="435.8" cy="300.5" rx="55.5" ry="8.4"/><path class="st0" d="M389.7 319.2c-4.5 0-7.5-.8-8-2.6-2-6.6 29.7-18.6 51.5-25 14.3-4.2 27.9-7.4 38.5-8.8 17.1-2.4 18.1.7 18.4 1.8 2 6.6-29.7 18.6-51.5 25-15.8 4.5-37.4 9.6-48.9 9.6zm44-25.7c-14.2 4.2-27.2 9-36.8 13.4-13.9 6.5-13.4 9.1-13.4 9.1s.9 2.5 16.2.3c10.4-1.5 24-4.6 38.2-8.8s27.2-9 36.8-13.4c13.9-6.5 13.4-9.1 13.4-9.1s-.9-2.5-16.2-.3c-10.5 1.4-24 4.6-38.2 8.8zm-.3-1z"/><ellipse transform="rotate(-16.524 435.204 298.785)" class="st1" cx="435.3" cy="298.8" rx="27" ry="2.3"/><path class="st1" d="M410.6 307.8c-1.6 0-2-.4-2.2-1-.3-1 .1-2 7.7-5 4.8-1.9 11.3-4 18.2-6.1 6.9-2.1 13.6-3.8 18.6-4.8 8.1-1.7 8.9-1 9.2 0 .3 1-.1 2-7.7 5-4.8 1.9-11.3 4-18.2 6.1-6.9 2.1-13.6 3.8-18.6 4.8-3.5.7-5.7 1-7 1zm24.3-10.2c-11.5 3.4-19.6 6.5-22.9 8.2 3.7-.4 12.1-2.2 23.7-5.7 11.5-3.4 19.6-6.5 22.9-8.2-3.7.4-12.1 2.3-23.7 5.7z"/><ellipse transform="rotate(-16.524 455.525 367.342)" class="st0" cx="455.6" cy="367.4" rx="26.5" ry="2.3"/><path class="st0" d="M462.1 206.9c-7.8-3.4-16-1.6-18.3 3.8-3.5 6.9 4.9 13.4 4.9 13.4l-1.8 4.2 1.7.8-20.4 47.2 4.2 1.8 1.6-3.7 5.9 2.5 1.8-4.2-5.9-2.5 1-2.8 4.1 1.7 1.5-3.5-4.1-1.8 14.4-33 1.7.8 1.7-3.9c6.9 1.9 13.5 0 15.6-4.8 2.5-5.5-1.9-12.6-9.6-16zm4.4 13.6c-1.5 3.4-6.5 4.4-11.3 2.4s-7.5-6.5-6-9.9 6.5-4.4 11.3-2.4 7.4 6.6 6 9.9z"/><path class="st0" d="M432.7 278.8l-5.2-2.3 20.4-47.2-1.7-.8 1.9-4.3c-1.6-1.3-8-7.3-4.8-13.8.9-2.1 2.7-3.8 5.3-4.8 3.9-1.6 9.1-1.3 13.8.8 4.7 2 8.4 5.6 10 9.5 1 2.5 1 5 0 7.2-2.1 4.9-8.7 7-15.8 5.2l-1.7 4-1.7-.8-14 32 4.1 1.7-2 4.5-4.1-1.7-.6 1.7 5.9 2.6-2.2 5.2-5.9-2.5-1.7 3.8zm-3.8-2.9l3.2 1.4 1.6-3.7 5.9 2.5 1.4-3.2-5.9-2.5 1.4-3.8 4.1 1.8 1.1-2.5-4.1-1.8 14.9-34 1.7.7 1.7-3.9.5.1c6.7 1.9 13 0 14.9-4.5.8-1.9.8-4.1-.1-6.4-1.4-3.6-4.9-7-9.4-8.9-4.5-1.9-9.3-2.2-12.9-.7-2.2.9-3.8 2.4-4.7 4.3-3.3 6.5 4.7 12.6 4.8 12.7l.3.3-1.8 4.1 1.7.8-20.3 47.2zm31.2-51.4c-1.6 0-3.4-.4-5.1-1.1-5.1-2.2-7.9-6.9-6.3-10.6.6-1.4 1.8-2.5 3.4-3.1 2.5-1 5.7-.8 8.7.5 5.1 2.2 7.9 6.9 6.3 10.6-1.2 2.4-3.9 3.7-7 3.7zm-4.6-14.3c-1.1 0-2.2.2-3.1.5-1.3.5-2.3 1.4-2.8 2.5-1.3 3.1 1.3 7.2 5.8 9.1 4.5 1.9 9.2 1 10.6-2.1 1.3-3.1-1.3-7.2-5.8-9.1-1.5-.6-3.2-.9-4.7-.9zm5.9-72c-7.3 4.3-10.7 12-7.6 17.1 3.6 6.9 13.7 3.8 13.7 3.8l2.3 3.9 1.6-1 26.4 44.1 3.9-2.4-2.1-3.5 5.5-3.3-2.3-3.9-5.5 3.3-1.6-2.5 3.8-2.3-2-3.3-3.8 2.3-18.4-31 1.6-1-2.2-3.6c5.6-4.4 7.9-10.9 5.2-15.4-2.9-5.1-11.3-5.7-18.5-1.3zm13.6 4.4c1.9 3.1-.2 7.9-4.7 10.6s-9.6 2.3-11.5-.9.2-7.9 4.7-10.6 9.6-2.3 11.5.9z"/><path class="st0" d="M497.7 206.9l-26.4-44.1-1.6 1-2.4-4c-2 .5-10.6 2.2-14-4.2-1.2-2-1.5-4.5-.8-7.1 1-4.1 4.3-8.1 8.7-10.7 7.5-4.5 16.2-3.8 19.4 1.6 2.7 4.6.6 11.2-5 15.9l2.2 3.7-1.6 1 17.8 30 3.8-2.3 2.6 4.2-3.8 2.3 1 1.5 5.5-3.3 2.9 4.9-5.5 3.3 2.1 3.5-4.9 2.8zm-26.1-45.7l26.4 44.1 3-1.8-2.1-3.5 5.5-3.3-1.8-2.9-5.5 3.3-2.3-3.4 3.8-2.3-1.4-2.3-3.8 2.3-18.9-32 1.6-1-2.1-3.6.4-.3c5.5-4.4 7.6-10.5 5.1-14.7-2.9-4.8-10.9-5.4-17.9-1.2-4.2 2.5-7.2 6.2-8.2 10-.6 2.3-.3 4.5.7 6.3 3.4 6.4 13 3.6 13.1 3.6l.4-.1 2.3 3.8 1.7-1zm-7.4-5.7c-.7 0-1.5-.1-2.2-.3-1.7-.4-3-1.3-3.8-2.7-2-3.4.2-8.5 4.9-11.3 2.8-1.7 6-2.3 8.5-1.6 1.6.4 2.8 1.2 3.6 2.4l.2.3c2 3.4-.2 8.5-4.9 11.3-1.9 1.2-4.2 1.9-6.3 1.9zm5.4-15c-1.9 0-3.9.6-5.8 1.7-4.2 2.5-6.2 6.9-4.5 9.8.6 1.1 1.7 1.8 3.1 2.1 2.3.6 5.2 0 7.7-1.5 4.1-2.4 6.1-6.6 4.7-9.5l-.2-.3c-.6-1.1-1.7-1.8-3.1-2.1-.6-.1-1.3-.2-1.9-.2z"/><path class="st2" d="M385.7 142.8v115.4c0 3.7-3 6.7-6.7 6.7H8.1c-3.7 0-6.7-3-6.7-6.7V8.3c0-3.7 3-6.7 6.7-6.7H379c3.7 0 6.7 3 6.7 6.7v134.5z"/><path class="st0" d="M379 265.9H8.1c-4.2 0-7.7-3.5-7.7-7.7V8.3C.4 4.1 3.9.6 8.1.6H379c4.2 0 7.7 3.5 7.7 7.7v249.9c0 4.2-3.5 7.7-7.7 7.7zM8.1 2.6C5 2.6 2.4 5.2 2.4 8.3v249.9c0 3.1 2.6 5.7 5.7 5.7H379c3.1 0 5.7-2.6 5.7-5.7V8.3c0-3.1-2.6-5.7-5.7-5.7H8.1z"/><path class="st1" d="M32.8 178.1h59.8c3.5 0 6.4 2.9 6.4 6.4 0 3.5-2.9 6.4-6.4 6.4H32.8c-3.5 0-6.4-2.9-6.4-6.4 0-3.5 2.8-6.4 6.4-6.4zm82.3 0h59.8c3.5 0 6.4 2.9 6.4 6.4 0 3.5-2.9 6.4-6.4 6.4h-59.8c-3.5 0-6.4-2.9-6.4-6.4 0-3.5 2.9-6.4 6.4-6.4zm130.4 0h109.7c3.5 0 6.4 2.9 6.4 6.4 0 3.5-2.9 6.4-6.4 6.4H245.5c-3.5 0-6.4-2.9-6.4-6.4 0-3.5 2.9-6.4 6.4-6.4zm-99 35.4h127.1c3.5 0 6.4 2.9 6.4 6.4 0 3.5-2.9 6.4-6.4 6.4H146.5c-3.5 0-6.4-2.9-6.4-6.4 0-3.5 2.9-6.4 6.4-6.4z"/><path class="st1" d="M32.8 213.5h127.1c3.5 0 6.4 2.9 6.4 6.4 0 3.5-2.9 6.4-6.4 6.4H32.8c-3.5 0-6.4-2.9-6.4-6.4 0-3.5 2.8-6.4 6.4-6.4zm5.1-152.2h310.6c6.4 0 11.5 5.1 11.5 11.5s-5.1 11.5-11.5 11.5H37.9c-6.4 0-11.5-5.1-11.5-11.5 0-6.3 5.1-11.5 11.5-11.5zm93.4 52.5c0 3.5-2.9 6.4-6.4 6.4H32.8c-3.5 0-6.4-2.9-6.4-6.4 0-3.5 2.9-6.4 6.4-6.4H125c3.5 0 6.3 2.9 6.3 6.4zm0 35.4c0 3.5-2.9 6.4-6.4 6.4H32.8c-3.5 0-6.4-2.9-6.4-6.4 0-3.5 2.9-6.4 6.4-6.4H125c3.5 0 6.3 2.9 6.3 6.4zm165.2 64.3h40.8c3.5 0 6.4 2.9 6.4 6.4 0 3.5-2.9 6.4-6.4 6.4h-40.8c-3.5 0-6.4-2.9-6.4-6.4-.1-3.5 2.8-6.4 6.4-6.4zM148.1 107.4h31.7c3.5 0 6.4 2.9 6.4 6.4 0 3.5-2.9 6.4-6.4 6.4h-31.7c-3.5 0-6.4-2.9-6.4-6.4 0-3.5 2.9-6.4 6.4-6.4zm152.4 0h31.6c3.5 0 6.4 2.9 6.4 6.4 0 3.5-2.9 6.4-6.4 6.4h-31.6c-3.5 0-6.4-2.9-6.4-6.4 0-3.5 2.9-6.4 6.4-6.4zm-33.2 35.4h48.9c3.5 0 6.4 2.9 6.4 6.4 0 3.5-2.9 6.4-6.4 6.4h-48.9c-3.5 0-6.4-2.9-6.4-6.4 0-3.5 2.8-6.4 6.4-6.4zm-39-35.4H277c3.5 0 6.4 2.9 6.4 6.4 0 3.5-2.9 6.4-6.4 6.4h-48.7c-3.5 0-6.4-2.9-6.4-6.4 0-3.5 2.9-6.4 6.4-6.4z"/><circle class="st1" cx="331.7" cy="70.5" r="5"/><path class="st2" d="M331.7 76.5c-3.3 0-6-2.7-6-6s2.7-6 6-6 6 2.7 6 6-2.7 6-6 6zm0-10c-2.2 0-4 1.8-4 4s1.8 4 4 4 4-1.8 4-4-1.8-4-4-4z"/><path transform="rotate(-45.001 339.248 78.107)" class="st2" d="M338.1 75.3h2.3V81h-2.3z"/><path class="st2" d="M340.5 81.9c-.3 0-.5-.1-.7-.3l-4-4c-.4-.4-.4-1 0-1.4l1.6-1.6c.2-.2.4-.3.7-.3.3 0 .5.1.7.3l4 4c.2.2.3.4.3.7s-.1.5-.3.7l-1.6 1.6c-.2.2-.5.3-.7.3zm-2.7-5l2.6 2.6.2-.2-2.6-2.6-.2.2z"/><path class="st2" d="M336.8 76.6c-.3 0-.5-.1-.7-.3l-1.6-1.6c-.4-.4-.4-1 0-1.4.4-.4 1-.4 1.4 0l1.6 1.6c.4.4.4 1 0 1.4-.2.2-.4.3-.7.3z"/><defs><path id="SVGID_1_" d="M385.7 141.3v117c0 3.7-3 6.6-6.7 6.6H8.1c-3.7 0-6.7-3-6.7-6.7V8.3c0-3.7 3-6.7 6.7-6.7H379c3.7 0 6.7 3 6.7 6.7v133z"/></defs><clipPath id="SVGID_2_"><use xlink:href="#SVGID_1_" overflow="visible"/></clipPath><g clip-path="url(#SVGID_2_)"><path class="st0" d="M-12.2-8.4h417.5v33.2H-12.2z"/><path class="st0" d="M405.3 25.9H-12.2c-.6 0-1-.4-1-1V-8.4c0-.6.4-1 1-1h417.5c.6 0 1 .4 1 1v33.2c0 .6-.5 1.1-1 1.1zm-416.5-2h415.5V-7.4H-11.2v31.3z"/></g><circle class="st1" cx="22.4" cy="13.4" r="5.1"/><circle class="st1" cx="38" cy="13.4" r="5.1"/><circle class="st1" cx="53.7" cy="13.4" r="5.1"/><path class="st2" d="M291.9 307.1c5.6-5.1 12.8-7.8 22.4-4.5 0 0-19.4-25.6-30.9-30.7-15-6.7-21.6-7.2-21.6-7.2 1.2-.6 25.2 7.7 30.1 42.4z"/><path class="st0" d="M291.9 308.2c-.1 0-.2 0-.3-.1-.3-.1-.6-.4-.7-.8-4.1-29.5-22.1-39.5-27.6-41.3-1.1-.2-1.6-.3-1.7-.3-.4 0-.8-.4-.9-.8s.1-.9.5-1.1c.5-.2 1.3-.1 2.2.1 2.8.5 9.4 2.1 20.4 7 11.6 5.2 30.5 29.9 31.3 31 .3.4.3.8 0 1.2-.3.4-.7.5-1.1.4-8.1-2.8-15.1-1.4-21.4 4.3-.2.3-.5.4-.7.4zm-20-39.7c7.1 5.1 17.3 15.8 20.7 36.8 5.6-4.5 12-6 19-4.4-5.1-6.5-19.5-23.9-28.6-28-4.4-2-8.1-3.4-11.1-4.4z"/><path class="st2" d="M190.1 86.1l2.3-16.8 17.4-5.2s7.6 11 5.6 22.5-8.9 20.2-15.6 16.6-9.7-17.1-9.7-17.1zm-85.1-14s6.7 3 12 .4 15-2.4 19-3.4 9.2-2.9 7.5-4.2-11.7 0-12.8-1.7-13.2-10-19.1-9.4-14.9 5.5-14.9 5.5l8.3 12.8z"/><path class="st0" d="M110.7 75.2h-9c-.6 0-1-.4-1-1s.4-1 1-1h8.9c3.7-.6 7.1-1.9 10.3-3.8 2.4-1.3 5.2-1.7 7.8-1.1 1.6.3 3.2.1 4.9-.2.4-.1.8-.1 1.2-.2 2.2-.4 8-1.4 8-2.2 0 0-.1-.1-.5-.4-3.4-.9-6.9-.9-10.3 0-.5.1-1.1-.2-1.2-.7-.1-.5.2-1.1.7-1.2 3.8-1.1 7.8-1.1 11.5 0 .1 0 .2.1.2.1 1.1.6 1.6 1.4 1.6 2.2 0 2.3-2.8 3-9.7 4.2-.4.1-.8.1-1.2.2-1.8.3-3.7.6-5.7.2-2.2-.5-4.4-.2-6.4.9-3.4 2-7.1 3.4-11.1 4 .1 0 .1 0 0 0z"/><path class="st0" d="M109.4 67.5l15.4-4.9 1.7.4 2.1-1.6 4.5 2.1.7-3.7 4.6 1.9-.6-3.1 1.2-.4 5.6 1.3-.5-2.8 50.6-16.1c.4-.1.9.1 1.1.5.2.5 0 1-.5 1.2h-.1l-84.6 28.8-1.2-3.6z"/><path class="st0" d="M143.8 60.6c-2.2 0-5.5-1.5-7.1-2.4-.5-.3-.7-.9-.4-1.3s.9-.7 1.3-.4c3.7 1.9 5.7 2.2 6.4 2.2-.2-.5-1.4-2.2-8.4-6.7-.7-.5-2.5-.4-3.7-.1-.5.1-1.1-.2-1.2-.7-.1-.5.2-1.1.7-1.2 1.3-.4 3.9-.6 5.3.4 7.9 5.1 10.2 7.6 9.1 9.6-.4.4-1.1.6-2 .6z"/><path class="st0" d="M137.9 62.7c-1.3 0-3.1-.8-5.1-2.3-.5-.4-1.1-.8-1.7-1.4-.4-.4-.5-1-.1-1.4.4-.4 1-.5 1.4-.1.6.5 1.1.9 1.6 1.3 2.2 1.6 3.5 1.9 3.9 1.9 0-.6-.8-2.5-6.6-8.6-.7-.7-1.6-1.1-2.6-1.1-.1 0-.5.2-.7.3-.4.2-.8.4-1.2.4-.5.1-1.1-.3-1.1-.8-.1-.5.3-1.1.8-1.1.1 0 .5-.2.7-.3.5-.2 1-.4 1.4-.4 1.6-.1 3.1.6 4.2 1.7 6.5 6.8 8.2 9.8 6.6 11.4-.4.3-.9.5-1.5.5zm.2-2z"/><path class="st0" d="M132.8 64.5c-1.7 0-4.5-1.9-7.4-5.1-.4-.4-.3-1 .1-1.4.4-.4 1-.3 1.4.1 2.8 3.1 4.9 4.2 5.7 4.4 0-.6-.6-2.6-5.5-9.3-.6-.8-1.5-1.3-2.5-1.4-.4 0-.9-.1-1.3-.1-1.1 0-2.3.2-3.4.5-.5.2-1.1-.1-1.2-.7-.2-.5.1-1.1.7-1.2 1.3-.4 2.6-.6 3.9-.6.5 0 1 0 1.5.1 1.6.1 3 .9 3.9 2.2 5.6 7.6 6.9 10.7 5.1 12.2-.2.2-.6.3-1 .3z"/><path class="st0" d="M108 65.3c-.4 0-.8-.3-.9-.7-.2-.5.1-1.1.6-1.3 2-.7 3.8-1.7 5.4-3 1.3-1.1 2.5-2.4 3.4-3.8.2-.2.4-.4.7-.4.3 0 .6 0 .8.2 6.7 5.5 8.5 5.9 8.7 5.9-.1 0 0-.1 0-.3 0-.6-.5-3.1-6.8-8.7-.5-.4-1-.6-1.6-.6-2.9 0-5.8.4-8.7 1.1-4.6 1.2-8.8 3.3-12.6 6.1l-1.1 3c-.2.5-.8.8-1.3.6-.5-.2-.8-.7-.6-1.3l1.1-3.3c.1-.2.2-.3.3-.5a38 38 0 0113.5-6.7c3-.8 6.1-1.2 9.2-1.2 1.1 0 2.2.4 3 1.2 5.5 4.9 8 8.6 7.4 10.9-.2.8-.8 1.4-1.5 1.5-.5.1-1.9.5-9.5-5.6-.9 1.2-2 2.3-3.2 3.3-1.8 1.5-3.8 2.6-6 3.4-.1.2-.2.2-.3.2z"/><path class="st2" d="M330.8 161.3l6.3 5.6 4.5-.5 27.4-23.8c7.8-7.6 10.6-11.9 8.6-13.5-.7-.6-3.5 1.1-8.6 5.1 6.5-7.6 9.1-12.2 7.8-13.9-.6-.8-2.6-1.6-5.2.1 1.5-2.9 1.9-5.7.4-6.7s-3.4-.1-6.1 2.6c1-1.9 1-3.8-1.1-4.5-1.9-.7-6 3.4-12.3 12.7"/><path class="st0" d="M337.2 167.9c-.2 0-.5-.1-.7-.3l-6.3-5.6c-.4-.4-.5-1-.1-1.4.4-.4 1-.5 1.4-.1l6 5.3 3.8-.5 27.1-23.6c7.4-7.2 8.9-10.3 8.9-11.5 0-.2 0-.3-.1-.4-.5.1-2.2.9-7.5 5-.4.3-1 .3-1.3-.1-.4-.4-.4-1 0-1.3 8.8-10.2 8-12.3 7.8-12.6-.2-.3-1.6-1.1-3.9.3-.4.2-.9.2-1.2-.1s-.4-.8-.2-1.2c1.4-2.9 1.5-4.9.8-5.4-1.2-.8-3.3.9-4.8 2.4-.4.3-.9.4-1.3.1s-.5-.8-.3-1.3c.5-.9.7-1.7.5-2.3-.1-.4-.5-.6-1-.8-.2-.1-2.5-.4-11.2 12.3-.3.5-.9.6-1.4.3-.5-.3-.6-.9-.3-1.4 8.7-12.6 11.7-13.7 13.5-13 1.4.5 2 1.3 2.2 2 .1.2.2.5.2.8 1.5-1 3.4-1.8 5-.7 1.4 1 1.7 3 .9 5.6 2-.4 3.5.3 4.1 1.2 1 1.3 1.2 3.4-3.3 9.5 2.6-1.6 3.4-1.3 4-.9.6.5.9 1.2.9 2 .1 2.5-2.8 6.5-9.5 13l-27.4 23.9c-.2.1-.3.2-.5.2l-4.5.5-.3.1zm39.9-38.1z"/><path class="st2" d="M355.7 131.3c4.2 1.4 7.7 4.2 9.9 8"/><path class="st0" d="M365.6 140.3c-.3 0-.7-.2-.9-.5-2.1-3.6-5.4-6.3-9.4-7.6-.5-.2-.8-.7-.6-1.3.2-.5.7-.8 1.3-.6 4.4 1.4 8.2 4.4 10.5 8.4.3.5.1 1.1-.4 1.4-.1.2-.3.2-.5.2zm-3.1-7.5c-.2 0-.4-.1-.6-.2-.4-.3-.5-1-.2-1.4l9.1-11.5c.3-.4 1-.5 1.4-.2.4.3.5 1 .2 1.4l-9.1 11.5c-.2.3-.5.4-.8.4zm-5.2-4.1c-.2 0-.4-.1-.6-.2-.4-.3-.5-1-.2-1.4l8.7-11.5c.3-.4 1-.5 1.4-.2.4.3.5 1 .2 1.4l-8.7 11.5c-.2.3-.5.4-.8.4z"/><path class="st2" d="M325.7 152.5l4.4-5.5c12.3-8.6 18-27.1 21.4-26 1.8.6 1.3 6.1-1.2 16"/><path class="st0" d="M325.7 153.5c-.2 0-.4-.1-.6-.2-.4-.3-.5-1-.2-1.4l4.4-5.5.2-.2c6.8-4.8 11.6-12.7 15.1-18.6 3.1-5.2 5-8.3 7.2-7.6 1.8.6 3.1 3.1-.6 17.2-.1.5-.7.9-1.2.7-.5-.1-.9-.7-.7-1.2 3.5-13.6 1.9-14.8 1.9-14.8-.9 0-3.2 3.9-4.9 6.7-3.6 5.9-8.4 14.1-15.5 19.1l-4.3 5.4c-.2.3-.5.4-.8.4z"/><path class="st0" d="M96 59.3l14.7 15c-1.5 2.7-32.3 37.8-14.1 58.4 6 6.8 19.7 7.6 28 6.6 16.9-2.1 33.9-13.3 48.8-11.7.3 0 8.6 10.2 14.2 10.3s11.2-.8 15.7-4.6c.6-.5 1.4-2.8 1.9-3 2.3-1 8.7.4 11.5 1 12.6 2.7 22.7 9.8 33.6 16.2 23.8 13.9 55.1 10.4 79.1-1.6l12.4 20.7c-13.7 12.4-30.6 20.7-48.8 23.9-26.8 4.7-47.7.6-55.7-2.9 1.1 5.9-17.3 18-11.7 53.4s41.6 134.6 46.4 161c10-1.8 19.8 6.7 20.7 13l-38.8.1s-57-117.9-58-117.5L194.2 414l-41.1 1c1-5 9.1-14 15.8-13.2-4.7-29.3-8.3-76.6-11.9-103.1s-8.4-56.4-9.8-64.9c-5.8-34.4-18.7-57.4-18.2-59.4-2.9.3-46.7 5.8-65-17.5-16.9-21.8-8.1-70.4 32-97.6z"/><path class="st0" d="M253.9 415.9c-.4 0-.7-.2-.9-.6-13.9-28.6-48.1-99.1-56.2-114.3l-1.6 112.9c0 .5-.4 1-1 1l-41.1 1c-.3 0-.6-.1-.8-.4-.2-.2-.3-.5-.2-.8.5-2.7 2.9-6.4 6.1-9.3 1.9-1.8 5.6-4.6 9.5-4.8-2.7-17.1-5-39.5-7.2-61.2-1.6-15.3-3-29.8-4.5-40.8-3.8-28-8.7-58.3-9.8-64.8-4.2-24.6-12.1-43.6-15.8-52.8-1.3-3-1.9-4.7-2.2-5.8-11.7 1.2-48.5 2.9-64.9-17.9-7.2-9.2-9.9-23.2-7.5-38.6C59.5 95 74 73 95.5 58.4c.4-.3.9-.2 1.3.1l14.7 15c.3.3.4.8.2 1.2-.2.4-.6.9-1.6 2.2-18.7 24.8-23 43.3-12.7 55 6 6.8 19.9 7.1 27.1 6.2 7.2-.9 14.5-3.5 21.5-6 9.6-3.4 18.8-6.6 27.5-5.8.4 0 .6.2 1.6 1.3 2.1 2.2 8.4 9 12.6 9 6.6.1 11.5-1.3 15-4.3.1-.1.5-.8.7-1.2.5-1 .9-1.7 1.5-2 1.8-.8 5.6-.5 12.1 1 10.6 2.3 19.3 7.5 28.5 13 1.8 1.1 3.6 2.2 5.4 3.2 25.4 14.9 57 8.9 78.1-1.6.5-.2 1-.1 1.3.4l12.4 20.7c.2.4.2.9-.2 1.3-13.8 12.5-30.9 20.9-49.3 24.1-11.9 2.1-24 2.7-35.2 1.6-7.6-.7-14.9-2.2-19.8-4-.3 1.7-1.5 3.6-3.1 6.2-4.7 7.8-12.5 20.9-8.6 45.5 3.1 19.7 15.8 59.7 27 94.9 8.6 27.2 16.8 52.9 19.2 65.1 4.6-.5 9.5.9 13.7 3.9 3.9 2.8 6.7 6.7 7.1 10.1 0 .3 0 .6-.2.8-.2.2-.5.3-.8.3l-38.6.3zm-58-119.5c.9 0 2 2.1 10.3 18.8 4.9 9.7 11.5 23.3 19.9 40.4 13.1 26.9 26.3 54.1 28.4 58.3l36.9-.1c-.8-2.6-3.1-5.4-6.1-7.6-4.1-3-8.9-4.2-13.2-3.4-.5.1-1.1-.3-1.2-.8-2.1-11.6-10.5-37.9-19.3-65.8-11.2-35.3-24-75.4-27.1-95.2-4-25.4 4.1-38.8 8.9-46.9 1.7-2.9 3.1-5.1 2.8-6.5-.1-.4.1-.7.4-1 .3-.2.7-.3 1-.1 7.1 3.1 27.8 7.6 55.1 2.8 17.7-3.2 34.2-11.1 47.7-23.1L329 147c-12.4 6-25.9 9.5-39.1 10.2-14.9.7-28.7-2.4-40-9.1-1.8-1.1-3.6-2.2-5.4-3.2-9-5.4-17.5-10.6-27.9-12.8-7-1.6-9.8-1.5-10.8-1.1-.1.2-.4.7-.5 1-.5.9-.8 1.5-1.2 1.9-5.2 4.4-11.8 4.9-16.4 4.8-4.4 0-9.8-5.2-14-9.6-.2-.3-.5-.5-.6-.7-8.2-.7-17 2.4-26.3 5.7-7.1 2.5-14.5 5.2-21.9 6.1-7.7.9-22.4.5-28.9-6.9-11-12.5-6.8-31.9 12.6-57.5.4-.5.8-1 1-1.4L95.9 60.6c-20.7 14.3-34.6 35.6-38.2 58.5-2.3 14.8.3 28.3 7.1 37 16 20.3 52.7 18.3 63.6 17.1l.5-.1c.3 0 .6.1.8.3.2.2.3.6.2.9 0 .5 1.1 3.1 2.3 5.9 3.8 9.2 11.8 28.4 16 53.2 1.1 6.6 6.1 36.8 9.8 64.9 1.5 11 3 25.5 4.5 40.8 2.3 22.2 4.6 45.1 7.4 62.2 0 .3 0 .6-.3.8-.2.2-.5.3-.8.3-2.7-.3-6 1.2-9.2 4.2-2.3 2.2-4.2 4.8-5.1 7l38.7-.9 1.6-115.5c0-.4.3-.8.7-.9.2.2.3.1.4.1zm9.7-165.4z"/><path class="st1" d="M319.5 151l12.8 21.7c2.8-2 5.5-4.1 8.1-6.5-4.1-6.9-7.4-12.3-11.5-19.2-3.1 1.4-5.5 2.5-9.4 4zM87.7 66.9L103.3 83l6.1-8.7-13.6-13.7c-1.3.9-2.6 1.8-3.9 2.9-1.5 1.1-2.9 2.3-4.2 3.4zm73 61.8c4.1-1.3 8.5-1.7 12.8-1.3.6.1 9.9 11.4 15.3 10.3 17.5-3.6 15.1-8.8 16.5-8.8 4.2.6 8 1.3 11.6 2.1-8.5 12.5-16.2 25.5-23.2 38.8-6.6 12.6-11.9 24.6-16.4 35.7-7.2-11.9-12.2-24.9-14.7-38.5-3-16.1-3.2-29.4-1.9-38.3z"/><path class="st0" d="M177.3 206.5c-.3 0-.7-.2-.9-.5-7.3-12-12.3-25.1-14.8-38.9-2.8-14.8-3.4-28.5-1.9-38.6.1-.4.3-.7.7-.8 4.3-1.3 8.7-1.8 13.1-1.3.5.1.7.3 2.1 1.7 2.5 2.6 9.2 9.4 13 8.6 12.9-2.6 14.5-6.1 15.1-7.5.2-.5.6-1.4 1.6-1.3h.1c3.9.6 7.7 1.3 11.6 2.1.3.1.6.3.7.6s.1.7-.1.9c-8.4 12.4-16.2 25.4-23.1 38.7-6 11.5-11.5 23.5-16.3 35.6-.1.5-.4.7-.9.7.1 0 0 0 0 0zm-15.7-77c-1.4 9.9-.7 23.1 1.9 37.4 2.4 12.9 7 25.2 13.6 36.5 4.7-11.5 9.9-22.9 15.7-33.9 6.7-12.9 14.3-25.6 22.4-37.7-3.2-.7-6.4-1.2-9.6-1.7v.1c-.8 1.7-2.6 5.8-16.5 8.6-4.8 1-11.6-5.9-14.8-9.2l-1.1-1.1c-4-.5-7.8-.1-11.6 1z"/><circle class="st0" cx="178.4" cy="146.8" r="1.5"/><path class="st0" d="M178.4 149.3c-1.4 0-2.5-1.1-2.5-2.5s1.1-2.5 2.5-2.5 2.5 1.1 2.5 2.5-1.1 2.5-2.5 2.5zm0-3c-.3 0-.5.2-.5.5s.2.5.5.5.5-.2.5-.5c0-.2-.2-.5-.5-.5z"/><path class="st2" d="M205.4 104l-.6 24.2c0 2.1-1.1 4.1-2.8 5.3-6.1 4.2-13.4 5.4-19.7 3.1-2.6-1-4.9-2.4-6.8-4.4-1.7-1.6-2.3-4.1-1.7-6.3l12.5-46.2 4.4-5.4"/><path class="st0" d="M188.9 138.7c-2.4 0-4.7-.4-6.9-1.2-2.7-1-5.1-2.6-7.2-4.6-1.9-1.9-2.7-4.7-2-7.3l12.5-46.2c0-.1.1-.3.2-.4l4.4-5.4c.4-.4 1-.5 1.4-.1.4.3.5 1 .1 1.4l-4.3 5.2-12.5 46c-.5 1.9.1 4 1.5 5.3 1.9 1.8 4 3.2 6.5 4.1 5.9 2.2 12.9 1 18.8-3 1.5-1 2.4-2.7 2.4-4.5l.6-24.2c0-.6.5-1 1-1 .6 0 1 .5 1 1l-.6 24.2c0 2.4-1.3 4.7-3.3 6.1-4.2 3.1-9 4.6-13.6 4.6z"/><ellipse transform="rotate(-6.898 202.804 81.663)" cx="202.7" cy="81.6" rx="13.7" ry="22.5" fill="none"/><path class="st1" d="M216.3 80c-1.5-12.3-8.8-21.6-16.3-20.7-.7.1-1.4.2-2 .5 13.5 9.4 16.9 28 7.5 41.5-.6.9-1.4 1.8-2.1 2.7.7.1 1.3.1 2 0 7.5-.9 12.4-11.7 10.9-24z"/><path class="st5" d="M204.5 105.1c-4.9 0-9.8-3.9-13-10.5-.2-.5 0-1.1.5-1.3.5-.2 1.1 0 1.3.5 3.1 6.3 7.7 9.8 12.1 9.3 6.9-.9 11.4-11.2 10-22.9-.7-5.8-2.7-11-5.7-14.8-2.8-3.6-6.2-5.4-9.5-5-5.3.6-9.3 6.9-10.1 15.6 0 .5-.5.9-1.1.9-.6 0-1-.5-.9-1.1.9-9.7 5.6-16.6 11.9-17.4 4-.5 8 1.6 11.3 5.7 3.2 4 5.3 9.7 6.1 15.8 1.6 13-3.6 24-11.7 25.1-.5 0-.9.1-1.2.1z"/><path class="st1" d="M209.8 75.9c4-.3 11.1-1.5 11.2 1.2.1 2.3-6.4 3.8-10.2 4.9"/><path class="st5" d="M210.9 83c-.4 0-.8-.3-1-.7-.2-.5.2-1.1.7-1.2.4-.1.9-.3 1.4-.4 2.2-.6 8.1-2.2 8.1-3.5 0-.1 0-.1-.1-.2-1-.9-5.3-.5-7.8-.2-.8.1-1.5.1-2.2.2-.6.1-1-.4-1.1-.9 0-.6.4-1 .9-1.1.7 0 1.4-.1 2.2-.2 4.5-.4 7.8-.6 9.3.7.5.4.8 1 .8 1.6.1 2.8-5 4.3-9.5 5.5-.5.1-.9.3-1.4.4h-.3z"/><path class="st0" d="M186.2 79.6c1-.8 2-1.5 3.1-2.2 4.6-2.8 8-3.2 10.8-4.2s6.4-3.4 9.8-9.2c-1.1-1.7-2.7-3.1-4.6-3.9-2.3-.9-4.9-1-7.2-.3-4.5 1.3-6.9 4.8-8.2 6.7-2.6 3.9-3.9 8.5-3.7 13.1z"/><path class="st0" d="M186.2 80.6c-.1 0-.3 0-.4-.1-.3-.2-.6-.5-.6-.9-.2-4.9 1.1-9.7 3.8-13.7 1.4-2 3.9-5.7 8.8-7.1 2.6-.8 5.4-.7 7.9.3 2.1.9 3.8 2.4 5 4.3.2.3.2.7 0 1-2.9 4.9-6.3 8.2-10.3 9.6-.8.3-1.7.6-2.7.8-2.3.6-4.8 1.4-7.9 3.3-1 .6-2 1.3-3 2.1-.1.4-.3.4-.6.4zm15.1-20.3c-1 0-2 .1-2.9.4-4.2 1.2-6.4 4.5-7.7 6.3-2.1 3.2-3.3 6.8-3.5 10.6.5-.4 1-.7 1.6-1 3.4-2.1 6.2-2.9 8.4-3.5.9-.3 1.8-.5 2.5-.8 3.4-1.3 6.4-4 8.9-8.2-1-1.3-2.3-2.4-3.8-3-1-.5-2.3-.8-3.5-.8zm-17.4 76.4l-9.3-10.8-4.7 13.4z"/><path class="st0" d="M169.9 140.3c-.3 0-.6-.1-.8-.4-.2-.3-.3-.6-.2-1l4.8-13.4c.1-.3.4-.6.8-.6.3-.1.7.1.9.3l9.2 10.8c.2.3.3.6.2 1-.1.3-.4.6-.8.6l-14 2.6c0 .1-.1.1-.1.1zm5.1-12.4l-3.6 10.1 10.6-2-7-8.1z"/><path class="st0" d="M183.9 136.7l14-2.6-4.8 13.5z"/><path class="st0" d="M193.1 148.6c-.3 0-.6-.1-.8-.4l-9.2-10.8c-.2-.3-.3-.6-.2-1 .1-.3.4-.6.8-.6l14-2.6c.4-.1.7.1.9.3.2.3.3.6.2 1l-4.8 13.4c-.1.3-.4.6-.8.6 0 .1 0 .1-.1.1zm-7.3-11.2l7 8.2 3.6-10.1-10.6 1.9zm157.5 278.4H77.5c-.6 0-1-.4-1-1s.4-1 1-1h265.8c.6 0 1 .4 1 1s-.4 1-1 1zm70.2-364.9c-5.5-6.5-13.6-8.6-18.1-4.7-6.2 4.7-1.5 14.2-1.5 14.2l-3.5 2.9 1.2 1.4L352.5 98l3 3.5 3.1-2.6 4.1 4.9 3.5-3L362 96l2.2-2 2.9 3.4 2.9-2.5-2.9-3.4 27.5-23.2 1.2 1.4 3.3-2.8c5.3 4.8 12.1 6 16.1 2.6 4.6-3.8 3.8-12.2-1.7-18.6zm-2.1 14.2c-2.8 2.4-7.8 1.1-11.2-2.9s-3.9-9.1-1-11.5 7.8-1.1 11.2 2.9 3.8 9.1 1 11.5z"/><path class="st0" d="M362.6 104.6l-4.2-4.9-3.1 2.6-3.7-4.4 39.2-33.3-1.2-1.4 3.6-3c-.8-1.9-3.9-10.1 1.8-14.5 4.7-4 13.2-1.9 18.9 4.8 5.6 6.7 6.4 15.4 1.7 19.4-4.1 3.4-10.9 2.4-16.5-2.3l-3.3 2.8-1.2-1.5-26.7 22.5 2.9 3.4L367 98l-2.9-3.4-1.4 1.2 4.2 4.9-4.3 3.9zm-4-6.5l4.1 4.9 2.6-2.3-4.2-4.8 3-2.8 2.9 3.4 2.1-1.8-2.9-3.4 28.4-23.9 1.2 1.4 3.2-2.7.4.3c5.2 4.7 11.6 5.8 15.4 2.6 4.3-3.6 3.5-11.7-1.8-17.9-5.3-6.2-13.1-8.3-17.3-4.6-5.8 4.4-1.4 13.4-1.4 13.5l.2.4-3.4 2.9 1.2 1.4L353.1 98l2.3 2.7 3.2-2.6zM408 66.8c-2.7 0-5.8-1.5-8.2-4.3-3.6-4.2-4-9.7-1-12.3 1.5-1.3 3.6-1.6 5.9-1 2.2.6 4.4 2 6.1 4 3.6 4.2 4 9.7 1 12.3-1 .9-2.4 1.3-3.8 1.3zM402.7 50c-1.2 0-2.3.4-3.1 1.1-2.6 2.2-2.1 7 1.1 10.7 3.2 3.7 7.8 5 10.4 2.8 2.6-2.2 2.1-7-1.1-10.7-1.6-1.8-3.5-3.1-5.5-3.7-.7-.1-1.3-.2-1.8-.2zM182.9 90.4s-4-23.6 2.1-28.2 8.4.8 8.4.8 0-6.5 6.1-8 11.5 2.7 15.7-1.5c0 0 0 8.4-8.4 15.7s-23.9 21.2-23.9 21.2z"/><path class="st0" d="M182.9 91.5c-.1 0-.2 0-.3-.1-.3-.1-.6-.4-.7-.8 0-.1-1-6-1.2-12.5-.3-8.9.9-14.5 3.7-16.6 2.3-1.8 4.5-2.4 6.4-1.9.8.2 1.4.6 2 1 .7-2.5 2.5-5.6 6.5-6.5 2.7-.7 5.3-.3 7.5 0 3.1.5 5.6.8 7.7-1.3.3-.3.7-.4 1.1-.2.4.2.6.5.6.9s-.1 9-8.8 16.5c-8.3 7.2-23.8 21.1-23.9 21.2-.1.2-.3.3-.6.3zm6.7-30.1c-1.1 0-2.4.6-3.9 1.7-4.2 3.2-3.1 18-2 25.4 4-3.6 15.7-14.1 22.6-20 5.4-4.7 7.2-9.9 7.8-12.8-2.3 1.2-4.9.8-7.4.4-2.2-.3-4.4-.6-6.8-.1-5.3 1.3-5.4 7-5.4 7 0 .5-.3.9-.8 1-.5.1-.9-.1-1.1-.6 0 0-.7-1.5-2.2-1.9-.3 0-.6-.1-.8-.1z"/><ellipse transform="rotate(-79.851 194.142 80.912)" class="st2" cx="194.1" cy="80.9" rx="5.1" ry="3.1"/><path class="st0" d="M237.9 187.1c-.8.5-.4 7.2-.4 8-.1 6.6.3 13.1 1.3 19.6 2.7 17.6 10 32.7 25.4 42.4 18.6 11.7 37.8 25 48.9 44.7 0 0-18.3-29.1-41.9-28.6-21.7.4-48.4-17.7-48.4-17.7-7.5-35.5-2.5-58.3 15.1-68.4z"/><path class="st0" d="M313.1 302.9c-.4 0-.7-.2-1-.5 0-.1-4.6-7.3-12-14.3-6.7-6.4-17.2-14-29-13.8-9.1.2-20.2-2.8-32.8-8.8-9.4-4.5-16.2-9.1-16.2-9.1-.2-.2-.4-.4-.5-.7-7.6-35.9-2.3-59.2 15.7-69.5.5-.3 1.2-.1 1.5.4.3.4.2 1-.2 1.3-.2.5-.3 2-.1 6.3v1c-.1 6.5.3 13 1.3 19.4 3 19.3 11.1 32.9 24.9 41.6 17.9 11.2 37.9 24.9 49.3 45.1.3.5.1 1.2-.4 1.5-.1.1-.3.1-.5.1zM271.7 272c6.9 0 14.1 2.5 21.2 7.3-9.2-8.2-19.6-15.1-29.4-21.2-14.3-9-22.8-23.1-25.9-43.1-1-6.5-1.4-13.2-1.3-19.8v-.9c-.1-2.1-.1-3.6 0-4.8-15.2 10.3-19.4 32.3-12.5 65.2 3.3 2.1 27.1 17.3 46.7 17.3h1.2z"/><path class="st1" d="M214.7 132.3s-20 27-23 49.8c-4 30.6 9.2 48.6 9.2 48.6-18.7 3.4-32.9 5.7-52.7 3.5-14.6-74.3-4.2-92.4 14.7-104.8l13.7 49.4 38.1-46.5z"/><path class="st0" d="M219 260.2c2 5.1 9.5 7.8 13.6 11 6.9 5.5 12.6 12.3 19.8 17.4 7.8 5.5 17.3 9.9 27.1 9.5-12.8 7-29.2 12.4-41.2.7-7-6.8-19.3-38.6-19.3-38.6z"/><path class="st0" d="M255.2 306.6c-6.9 0-12.8-2.4-17.7-7.1-3-2.9-7.2-10.4-12.5-22.2-2.4-5.3-5.9-13.8-6.9-16.4-.1-.1-.1-.3-.2-.4-.1-.2-.1-.3-.1-.4 0-.5.3-.9.8-1 .5-.1.9.2 1.1.6 1.3 3.2 5.2 5.6 8.7 7.6 1.7 1 3.3 1.9 4.6 2.9 3.1 2.5 6 5.2 8.8 7.9 3.4 3.3 7 6.7 11 9.5 9.2 6.5 18.1 9.6 26.4 9.3.5 0 .9.3 1 .7s-.1.9-.5 1.1c-9 5.4-17.3 7.9-24.5 7.9zm-32.9-40.9c3.9 9.5 11.7 27.6 16.7 32.4 8.7 8.5 20.7 8.8 36.6.9-7.7-.6-15.6-3.9-23.7-9.6-4.1-2.9-7.7-6.3-11.2-9.7-2.8-2.6-5.6-5.4-8.7-7.8-1.2-.9-2.7-1.8-4.3-2.8-1.8-1-3.7-2.1-5.4-3.4z"/><path class="st1" d="M241 269.3c-.2 0-.3 0-.5-.1-34.8-19.6-44.9-44.4-48.2-52.6-.2-.5 0-1.1.5-1.3.5-.2 1.1 0 1.3.6 3.2 8 13.1 32.3 47.3 51.6.5.3.7.9.4 1.4-.2.3-.5.4-.8.4z"/><path class="st2" d="M247.6 314.5c-.4 0-.8-.3-1-.7l-14.8-49c-.2-.5.1-1.1.7-1.2.5-.2 1.1.1 1.2.7l14.8 49c.2.5-.1 1.1-.7 1.2h-.2z"/><circle class="st0" cx="173.9" cy="159.1" r="1.5"/><path class="st0" d="M173.9 161.5c-1.4 0-2.5-1.1-2.5-2.5s1.1-2.5 2.5-2.5 2.5 1.1 2.5 2.5c-.1 1.4-1.2 2.5-2.5 2.5zm0-2.9c-.3 0-.5.2-.5.5s.2.5.5.5.5-.2.5-.5c-.1-.3-.3-.5-.5-.5zM129 174.2c-1.8 5.9 4.4 32.9 17.7 58.9L134 178l-5-3.8z"/><path class="st0" d="M146.7 234.1c-.4 0-.7-.2-.9-.5-13.5-26.5-19.7-53.5-17.8-59.7.1-.3.3-.6.7-.7.3-.1.7 0 .9.2l5 3.8c.2.1.3.3.4.6l12.7 55.1c.1.5-.2 1-.6 1.2h-.4zm-17-58.1c-.4 6.8 4 26.7 14 48.6l-10.6-46-3.4-2.6z"/><path class="st2" d="M148.3 234.1c.4 1.8 2.2 25 2.2 25s-15.4-20.4-17-45.9 7.7-53.6 7.7-53.6c3.6-5.1 1.3-.7 1.3 3.8 0 1.6-.8 9.1-.8 11.2.2 12.3 1 30.8 6.6 59.5z"/><path class="st0" d="M128.4 174.3s-3.9 16.4.8 42.7c5.1 29 18.8 40.2 18.8 40.2s-13-18.8-11.1-42.5 4.2-26 4.2-26c-1.9-17.6-.3-29.6 3.8-46.7l-16.5 32.3z"/><path class="st0" d="M149.4 237.6c-.5 0-.9-.3-1-.8l-1-4.5c-5.3-23.7-7.1-31.7-8-54.4-.8-19 5.4-31.6 10.7-38.9 5.8-7.9 11.7-11.3 11.9-11.4.5-.3 1.1-.1 1.4.4.3.5.1 1.1-.4 1.4-.2.1-23.1 13.4-21.6 48.5.9 22.5 2.7 30.5 8 54.1l1 4.5c.1.5-.2 1.1-.8 1.2 0-.1-.1-.1-.2-.1zm1.6 23.3c-.2 0-.5-.1-.6-.2-.5-.5-13.3-11.7-17.2-39.7-.1-.5.3-1.1.9-1.1.5-.1 1.1.3 1.1.9 3.8 27.3 16.4 38.3 16.5 38.4.4.4.5 1 .1 1.4-.2.2-.5.3-.8.3z"/><path class="st2" d="M198.5 307.6c-.4 0-.7-.2-.9-.6l-15.8-34.7c-.2-.5 0-1.1.5-1.3.5-.2 1.1 0 1.3.5l15.8 34.7c.2.5 0 1.1-.5 1.3-.2.1-.3.1-.4.1z"/></svg>
