<svg xmlns="http://www.w3.org/2000/svg" width="388" height="400" fill="none"><g clip-path="url(#a)"><mask id="c" width="1440" height="400" x="-2" y="0" maskUnits="userSpaceOnUse" style="mask-type:alpha"><path fill="url(#b)" d="M-2 0h1440v400H-2z"/></mask><g mask="url(#c)"><path fill="#c190ff" d="M384.418 398.992h5.796l-.144-19.949-2.609-359.093L387.316 0l-.145 19.95-2.608 359.093zM375.774 398.992h5.796l-.145-19.949-2.608-359.093L378.672 0l-.145 19.95-2.608 359.093zM367.133 398.992h5.796l-.145-19.949L370.031 0l-.145 19.95-2.608 359.093zM358.469 398.992h5.796l-.145-19.949-2.608-359.093L361.367 0l-.145 19.95-2.608 359.093zM349.832 398.992h5.797l-.145-19.949-2.609-359.093L352.73 0l-.144 19.95-2.609 359.093zM341.176 398.992h5.796l-.145-19.949-2.608-359.093L344.074 0l-.145 19.95-2.608 359.093zM332.536 398.992h5.796l-.145-19.949-2.609-359.093L335.434 0l-.145 19.95-2.609 359.093zM323.875 398.992h5.796l-.144-19.949-2.609-359.093L326.773 0l-.144 19.95-2.609 359.093zM315.235 398.992h5.796l-.145-19.949-2.608-359.093L318.133 0l-.145 19.95-2.608 359.093zM306.582 398.992h5.797l-.145-19.949-2.609-359.093L309.48 0l-.144 19.95-2.609 359.093zM297.926 398.992h5.796l-.145-19.949-2.608-359.093L300.824 0l-.145 19.95-2.608 359.093zM289.286 398.992h5.796l-.145-19.949-2.609-359.093L292.184 0l-.145 19.95-2.609 359.093zM280.618 398.992h5.796l-.145-19.949-2.608-359.093L283.516 0l-.145 19.95-2.609 359.093zM271.977 398.992h5.796l-.145-19.949L275.02 19.95 274.875 0l-.145 19.95-2.608 359.093zM263.317 398.992h5.796l-.145-19.949L266.36 19.95 266.215 0l-.145 19.95-2.608 359.093zM254.68 398.992h5.796l-.145-19.949-2.608-359.093L257.578 0l-.145 19.95-2.608 359.093zM246.024 398.992h5.796l-.145-19.949-2.608-359.093L248.922 0l-.145 19.95-2.608 359.093zM237.368 398.992h5.796l-.145-19.949-2.608-359.093L240.266 0l-.145 19.95-2.609 359.093zM228.727 398.992h5.796l-.145-19.949L231.77 19.95 231.625 0l-.145 19.95-2.608 359.093zM220.071 398.992h5.796l-.145-19.949-2.608-359.093L222.969 0l-.145 19.95-2.608 359.093zM211.426 398.992h5.796l-.145-19.949-2.608-359.093L214.324 0l-.145 19.95-2.608 359.093zM202.762 398.992h5.796l-.145-19.949-2.608-359.093L205.66 0l-.145 19.95-2.608 359.093zM194.125 398.992h5.796l-.144-19.949-2.609-359.093L197.023 0l-.144 19.95-2.609 359.093zM185.465 398.992h5.796l-.145-19.949L188.363 0l-.145 19.95-2.608 359.093zM176.829 398.992h5.796l-.145-19.949-2.609-359.093L179.727 0l-.145 19.95-2.609 359.093zM168.172 398.992h5.796l-.145-19.949-2.608-359.093L171.07 0l-.145 19.95-2.608 359.093zM159.516 398.992h5.796l-.145-19.949-2.608-359.093L162.414 0l-.145 19.95-2.608 359.093zM150.875 398.992h5.796l-.144-19.949-2.609-359.093L153.773 0l-.144 19.95-2.609 359.093zM142.219 398.992h5.796l-.145-19.949-2.608-359.093L145.117 0l-.145 19.95-2.608 359.093zM133.579 398.992h5.796l-.145-19.949-2.609-359.093L136.477 0l-.145 19.95-2.609 359.093zM124.914 398.992h5.797l-.145-19.949-2.609-359.093L127.812 0l-.144 19.95-2.609 359.093zM116.274 398.992h5.796l-.145-19.949-2.608-359.093L119.172 0l-.145 19.95-2.608 359.093zM107.618 398.992h5.796l-.145-19.949-2.608-359.093L110.516 0l-.145 19.95-2.609 359.093zM98.954 398.992h5.796l-.145-19.949-2.609-359.093L101.852 0l-.145 19.95-2.609 359.093zM90.313 398.992h5.796l-.145-19.949L93.356 19.95 93.21 0zM81.664 398.992h5.797l-.145-19.949L84.707 19.95 84.563 0l-.145 19.95-2.609 359.093zM73.02 398.992h5.796l-.145-19.949L76.063 19.95 75.918 0zM64.364 398.992h5.796l-.145-19.949L67.407 19.95 67.262 0l-2.753 379.043zM55.72 398.992h5.795l-.145-19.949L58.762 19.95 58.617 0l-.145 19.95-2.608 359.093zM47.055 398.992h5.796l-.145-19.949L50.098 19.95 49.953 0zM38.418 398.992h5.797l-.145-19.949L41.46 19.95 41.316 0l-2.753 379.043zM29.758 398.992h5.796l-.145-19.949L32.801 19.95 32.656 0l-.145 19.95-2.608 359.093zM21.102 398.992h5.796l-.145-19.949L24.145 19.95 24 0l-.145 19.95-2.608 359.093zM12.461 398.992h5.796l-.145-19.949L15.505 19.95 15.36 0l-.145 19.95-2.608 359.093zM3.805 398.992h5.796l-.145-19.949L6.848 19.95 6.703 0zM-4.836 398.992H.961l-.145-19.949L-1.793 19.95-1.938 0l-.144 19.95-2.609 359.093z"/><path fill="#18f0bf" d="M380.094 399h5.796l-.145-8.718-2.608-156.922-.145-8.717-.145 8.717-2.608 156.922zM371.454 399h5.796l-.145-8.718-2.609-156.922-.144-8.717-.145 8.717-2.609 156.922zM362.789 399h5.797l-.145-8.718-2.609-156.922-.145-8.717-.144 8.717-2.609 156.922zM354.153 399h5.796l-.145-8.718-2.608-156.922-.145-8.717-.145 8.717-2.608 156.922zM345.5 399h5.796l-.144-8.718-2.609-156.922-.145-8.717-.144 8.717-2.609 156.922zM336.856 399h5.796l-.145-8.718-2.608-156.922-.145-8.717-.145 8.717-2.608 156.922zM328.196 399h5.796l-.145-8.718-2.608-156.922-.145-8.717-.145 8.717-2.608 156.922zM319.539 399h5.797l-.145-8.718-2.609-156.922-.145-8.717-.144 8.717-2.609 156.922zM310.899 399h5.796l-.145-8.718-2.608-156.922-.145-8.717-.145 8.717-2.608 156.922zM302.243 399h5.796l-.145-8.718-2.608-156.922-.145-8.717-.145 8.717-2.609 156.922zM293.606 399h5.796l-.145-8.718-2.608-156.922-.145-8.717-.145 8.717-2.608 156.922zM284.942 399h5.796l-.145-8.718-2.608-156.922-.145-8.717-.145 8.717-2.608 156.922zM276.297 399h5.796l-.145-8.718-2.608-156.922-.145-8.717-.145 8.717zM267.641 399h5.796l-.145-8.718-2.608-156.922-.145-8.717-.145 8.717-2.608 156.922zM259.008 399h5.796l-.145-8.718-2.608-156.922-.145-8.717-.145 8.717-2.608 156.922zM250.344 399h5.796l-.145-8.718-2.608-156.922-.145-8.717-.145 8.717-2.608 156.922zM241.688 399h5.796l-.145-8.718-2.608-156.922-.145-8.717-.145 8.717-2.608 156.922zM233.047 399h5.796l-.145-8.718-2.608-156.922-.145-8.717-.145 8.717zM224.395 399h5.796l-.145-8.718-2.608-156.922-.145-8.717-.145 8.717-2.608 156.922zM215.75 399h5.796l-.144-8.718-2.609-156.922-.145-8.717-.144 8.717-2.609 156.922zM207.086 399h5.796l-.144-8.718-2.609-156.922-.145-8.717-.145 8.717zM198.442 399h5.796l-.145-8.718-2.608-156.922-.145-8.717-.145 8.717-2.608 156.922zM189.786 399h5.796l-.145-8.718-2.609-156.922-.144-8.717-.145 8.717-2.609 156.922zM181.133 399h5.796l-.145-8.718-2.608-156.922-.145-8.717-.145 8.717-2.608 156.922zM172.485 399h5.796l-.145-8.718-2.608-156.922-.145-8.717-.145 8.717-2.608 156.922zM163.836 399h5.796l-.144-8.718-2.609-156.922-.145-8.717-.145 8.717zM155.196 399h5.796l-.145-8.718-2.608-156.922-.145-8.717-.145 8.717-2.608 156.922zM146.555 399h5.796l-.145-8.718-2.608-156.922-.145-8.717-.145 8.717-2.608 156.922zM137.899 399h5.796l-.145-8.718-2.608-156.922-.145-8.717-.145 8.717-2.608 156.922zM129.258 399h5.796l-.145-8.718-2.608-156.922-.145-8.717-.145 8.717-2.608 156.922zM120.594 399h5.796l-.145-8.718-2.608-156.922-.145-8.717-.145 8.717-2.608 156.922zM111.954 399h5.796l-.145-8.718-2.609-156.922-.144-8.717-.145 8.717-2.609 156.922zM103.293 399h5.796l-.144-8.718-2.609-156.922-.145-8.717-.145 8.717zM94.653 399h5.796l-.145-8.718-2.608-156.922-.145-8.717-.145 8.717-2.608 156.922zM85.993 399h5.796l-.145-8.718-2.609-156.922-.144-8.717-.145 8.717q-1.305 78.462-2.608 156.922zM77.344 399h5.796l-.145-8.718-2.753-165.639-.145 8.717-2.608 156.922zM68.704 399H74.5l-.145-8.718-2.609-156.922-.144-8.717-.145 8.717-2.609 156.922zM60.04 399h5.796l-.145-8.718-2.754-165.639-.144 8.717-2.609 156.922zM51.407 399h5.796l-.145-8.718L54.45 233.36l-.145-8.717-.145 8.717q-1.306 78.462-2.608 156.922zM42.739 399h5.796l-.145-8.718-2.608-156.922-.145-8.717-.145 8.717-2.608 156.922zM34.098 399h5.796l-.145-8.718-2.608-156.922-.145-8.717-.145 8.717-2.608 156.922zM25.442 399h5.796l-.145-8.718-2.608-156.922-.145-8.717-.145 8.717-2.608 156.922zM16.786 399h5.796l-.145-8.718-2.609-156.922-.144-8.717-.145 8.717-2.609 156.922zM8.145 399h5.796l-.145-8.718-2.608-156.922-.145-8.717-.145 8.717L8.29 390.282zM-.515 399H5.28l-.145-8.718L2.528 233.36l-.145-8.717-.145 8.717L-.37 390.282z"/></g></g><defs><linearGradient id="b" x1="718" x2="718" y1="0" y2="400" gradientUnits="userSpaceOnUse"><stop/><stop offset="1" stop-opacity="0"/></linearGradient><clipPath id="a"><path fill="#fff" d="M0 0h388v400H0z"/></clipPath></defs></svg>