<svg xmlns="http://www.w3.org/2000/svg" width="366" height="377" fill="none"><path fill="#b880fe" d="m374.963 378.455 1.477-1.477-9.453-9.378-170.141-168.812-9.452-9.378 9.379 9.452 168.811 170.141zM371.318 382.097l1.477-1.477-9.452-9.379L193.202 202.43l-9.452-9.379 9.378 9.452L361.94 372.644zM367.685 385.741l1.477-1.477-9.452-9.378-170.141-168.812-9.452-9.378 9.378 9.452 168.812 170.141zM364.047 389.375l1.477-1.477-9.453-9.379L185.93 209.708l-9.452-9.379 9.379 9.453 168.811 170.141zM360.408 393.011l1.477-1.477-9.452-9.379-170.141-168.811-9.452-9.379 9.378 9.452 168.811 170.142zM356.761 396.654l1.478-1.477-9.453-9.378-170.141-168.812-9.452-9.378 9.378 9.452 168.812 170.141zM353.129 400.291l1.477-1.477-9.453-9.379-170.141-168.811-9.452-9.379 9.379 9.453L343.75 390.839zM349.482 403.937l1.477-1.478-9.452-9.378-170.141-168.812-9.452-9.378 9.378 9.452 168.812 170.141zM345.851 407.577l1.477-1.477-9.452-9.378L167.735 227.91l-9.452-9.378 9.378 9.452 168.812 170.141zM342.205 411.21l1.477-1.477-9.452-9.379-170.141-168.811-9.453-9.379 9.379 9.453 168.811 170.141zM338.562 414.845l1.477-1.477-9.452-9.379-170.141-168.811-9.452-9.379 9.378 9.452 168.812 170.142zM334.925 418.487l1.478-1.477-9.453-9.378L156.809 238.82l-9.452-9.378 9.378 9.452 168.812 170.141zM331.295 422.132l1.477-1.477-9.452-9.379-170.142-168.811-9.452-9.379 9.379 9.453L321.916 412.68zM327.654 425.771l1.477-1.478-9.452-9.378-170.141-168.812-9.452-9.378 9.378 9.452 168.812 170.141zM324.008 429.41l1.477-1.477-9.453-9.378-170.141-168.812-9.452-9.378 9.379 9.452 168.811 170.141zM320.367 433.04l1.477-1.477-9.452-9.378-170.141-168.812-9.453-9.379 9.379 9.453 168.811 170.141zM316.73 436.688l1.477-1.478-9.452-9.378L138.614 257.02l-9.452-9.378 9.378 9.452 168.812 170.141zM313.091 440.328l1.478-1.477-9.453-9.378-170.141-168.812-9.452-9.378 9.379 9.452 168.811 170.141zM309.453 443.963l1.477-1.477-9.452-9.379-170.141-168.811-9.453-9.379 9.379 9.453 168.811 170.141zM305.812 447.606l1.477-1.478-9.452-9.378-170.141-168.812-9.452-9.378 9.378 9.452 168.812 170.141zM302.181 451.245l1.478-1.477-9.453-9.378-170.141-168.812-9.452-9.378 9.378 9.452 168.812 170.141zM298.535 454.884l1.477-1.477-9.452-9.379-170.141-168.811-9.453-9.379 9.379 9.453 168.811 170.141zM294.896 458.522l1.477-1.478-9.452-9.378L116.78 278.854l-9.452-9.378 9.378 9.452 168.812 170.141zM291.258 462.161l1.477-1.477-9.453-9.378-170.141-168.812-9.452-9.378 9.379 9.452 168.811 170.141zM287.619 465.811l1.477-1.478-9.452-9.378-170.141-168.812-9.453-9.378 9.379 9.452L278.24 456.358zM283.98 469.447l1.477-1.477-9.452-9.378L105.864 289.78l-9.452-9.378 9.378 9.452 168.812 170.141zM280.34 473.079l1.477-1.477-9.453-9.378-179.593-178.19 9.379 9.452 168.811 170.141zM276.699 476.714l1.477-1.477-9.452-9.379L98.583 297.047l-9.452-9.379 9.378 9.453L267.32 467.262zM273.062 480.363l1.477-1.477-9.452-9.378-170.14-168.812-9.453-9.378 9.378 9.452zM269.424 484.006l1.477-1.477-9.453-9.379-170.14-168.811-9.453-9.379 9.379 9.453 168.811 170.141zM265.783 487.641l1.477-1.477-9.452-9.379L87.667 307.973l-9.452-9.378 9.378 9.452 168.811 170.141zM262.138 491.275l1.478-1.477-9.453-9.378-170.14-168.812-9.453-9.378 9.378 9.452L252.76 481.823zM258.492 494.911l1.477-1.477-9.452-9.378L80.376 315.244l-9.452-9.378 9.378 9.452 168.811 170.141zM254.867 498.553l1.477-1.477-9.452-9.379L76.751 318.886l-9.452-9.379 9.378 9.452 168.811 170.142zM251.222 502.196l1.478-1.477-9.453-9.378-170.14-168.812-9.453-9.378 9.378 9.452 168.812 170.141zM247.586 505.832l1.477-1.477-9.452-9.378L69.47 326.165l-9.453-9.379 9.379 9.453zM243.951 509.48l1.477-1.478-9.452-9.378L65.835 329.812l-9.452-9.378 9.378 9.452 168.811 170.141zM240.302 513.116l1.478-1.477-9.453-9.378-170.14-168.812-9.453-9.378 9.378 9.452 168.812 170.141zM236.67 516.756l1.477-1.477-9.452-9.379L58.554 337.089 49.1 327.71l9.379 9.453L227.29 507.304zM233.025 520.394l1.477-1.478-9.452-9.378L54.909 340.726l-9.452-9.378 9.378 9.452 168.812 170.141zM229.384 524.034l1.478-1.477-9.453-9.378-170.14-168.812-9.453-9.378 9.378 9.452 168.812 170.141zM225.742 527.664l1.477-1.477-9.452-9.378L47.626 347.997l-9.452-9.379 9.378 9.453zM222.107 531.312l1.477-1.478-9.452-9.378L43.991 351.644l-9.452-9.378 9.378 9.452L212.73 521.859zM218.47 534.947l1.478-1.477-9.453-9.378L40.355 355.28l-9.453-9.378 9.378 9.452 168.812 170.141zM214.832 538.588l1.477-1.477-9.452-9.379L36.716 358.921l-9.453-9.379 9.379 9.453 168.811 170.141zM211.191 542.228l1.477-1.478-9.452-9.378L33.075 362.56l-9.452-9.378L33 362.634l168.812 170.141zM207.549 545.869l1.477-1.477-9.453-9.378-170.14-168.812-9.453-9.378 9.378 9.452L198.17 536.417zM203.914 549.517l1.477-1.477-9.452-9.379L25.798 369.849l-9.453-9.378 9.379 9.452 168.811 170.141zM200.273 553.151l1.477-1.477-9.452-9.378L22.157 373.484l-9.452-9.378 9.378 9.452 168.812 170.141zM196.634 556.794l1.478-1.477-9.453-9.379-170.14-168.811-9.453-9.379 9.379 9.453 168.811 170.141zM192.996 560.431l1.477-1.477-9.452-9.379L14.88 380.764l-9.453-9.379 9.379 9.452zM189.355 564.06l1.477-1.478-9.452-9.378L11.239 384.392l-9.452-9.378 9.378 9.452 168.812 170.141z"/><path fill="#18f0bf" d="m372.883 380.163 1.707-1.707-5.901-5.815-106.208-104.673-5.901-5.815 5.815 5.901 104.673 106.208zM369.246 383.807l1.707-1.706-5.901-5.816-106.208-104.672-5.901-5.815 5.816 5.9zM365.604 387.442l1.706-1.707-5.9-5.815-106.209-104.672-5.9-5.816 5.815 5.901 104.673 106.208zM361.971 391.087l1.707-1.706-5.901-5.815-106.208-104.673-5.901-5.815 5.815 5.9 104.673 106.209zM358.322 394.71l1.707-1.706-5.9-5.815L247.92 282.516l-5.9-5.815 5.815 5.9L352.507 388.81zM354.688 398.357l1.706-1.707-5.9-5.815-106.209-104.672-5.9-5.816 5.815 5.901zM351.053 402.005l1.707-1.706-5.901-5.815-106.208-104.673-5.901-5.815 5.815 5.9 104.673 106.209zM347.406 405.637l1.707-1.706-5.9-5.815-106.209-104.673-5.9-5.815 5.815 5.9 104.672 106.209zM343.772 409.279l1.706-1.707-5.9-5.815-106.209-104.673-5.9-5.815 5.815 5.901 104.673 106.208zM340.125 412.919l1.707-1.706-5.901-5.815-106.208-104.673-5.901-5.815 5.815 5.9L334.31 407.019zM336.492 416.559l1.707-1.706-5.9-5.816L226.09 304.365l-5.9-5.815 5.815 5.9 104.672 106.209zM332.858 420.201l1.706-1.707-5.9-5.815-106.209-104.673-5.9-5.815 5.815 5.901L327.043 414.3zM329.203 423.83l1.707-1.707-5.901-5.815-106.208-104.673-5.901-5.815 5.816 5.901zM325.571 427.475l1.706-1.706-5.9-5.816-106.209-104.672-5.9-5.815 5.815 5.9 104.672 106.209zM321.926 431.108l1.707-1.707-5.901-5.815-106.208-104.672-5.901-5.816 5.815 5.901 104.673 106.208zM318.291 434.752l1.707-1.706-5.901-5.815-106.208-104.673-5.901-5.815 5.815 5.9 104.673 106.209zM314.649 438.385l1.706-1.706-5.9-5.815-106.209-104.673-5.9-5.815 5.815 5.9 104.673 106.209zM311.018 442.032l1.706-1.707-5.9-5.815-106.209-104.673-5.9-5.815 5.815 5.901 104.673 106.208zM307.375 445.67l1.707-1.706-5.901-5.815-106.208-104.673-5.901-5.815 5.815 5.9L301.56 439.77zM303.731 449.303l1.706-1.706-5.9-5.815-106.209-104.673-5.9-5.815 5.815 5.9 104.673 106.209zM300.09 452.941l1.707-1.707-5.901-5.815-106.208-104.672-5.901-5.816 5.815 5.901L294.275 447.04zM296.455 456.59l1.707-1.706-5.901-5.815-106.208-104.673-5.901-5.815 5.816 5.9L290.64 450.69zM292.817 460.228l1.706-1.707-5.9-5.815-106.209-104.672-5.9-5.815 5.815 5.9 104.672 106.209zM289.176 463.868l1.707-1.707-5.901-5.815-106.208-104.673-5.901-5.815 5.815 5.901 104.673 106.208zM285.537 467.507l1.707-1.706-5.901-5.815-106.208-104.673-5.901-5.815 5.816 5.9 104.672 106.209zM281.897 471.148l1.706-1.707-5.9-5.815-106.209-104.672-5.9-5.816 5.815 5.901 104.673 106.208zM278.258 474.786l1.707-1.707-5.901-5.815-106.208-104.673-5.901-5.815 5.815 5.901 104.673 106.208zM274.619 478.425l1.707-1.706-5.901-5.815-106.208-104.673-5.901-5.815 5.816 5.9zM270.975 482.062l1.706-1.707-5.9-5.815-106.209-104.672-5.9-5.815 5.815 5.9L265.16 476.162zM267.348 485.711l1.706-1.706-5.9-5.815-106.209-104.673-5.9-5.815 5.815 5.9 104.673 106.209zM263.703 489.341l1.707-1.706-5.901-5.815-106.208-104.673-5.901-5.815 5.816 5.9 104.672 106.209zM260.063 492.981l1.706-1.707-5.9-5.815L149.66 380.787l-5.9-5.816 5.815 5.901 104.673 106.209z"/><path fill="#b880fe" d="m553.447 199.975 1.477-1.477-9.452-9.379L375.331 20.308l-9.452-9.379 9.378 9.452 168.812 170.141zM549.806 203.609l1.478-1.477-9.453-9.378L371.69 23.942l-9.452-9.378 9.378 9.452 168.812 170.141zM546.16 207.252l1.477-1.477-9.452-9.379-179.594-178.19 9.379 9.453L536.781 197.8zM542.527 210.889l1.477-1.477-9.452-9.379L364.411 31.222l-9.452-9.379 9.378 9.452 168.812 170.141zM538.881 214.535l1.477-1.477-9.453-9.378L360.764 34.868l-9.452-9.378 9.379 9.452 168.811 170.141zM535.252 218.176l1.477-1.477-9.452-9.379L357.136 38.509l-9.453-9.379 9.379 9.453 168.811 170.141zM531.603 221.808l1.477-1.477-9.452-9.379L353.487 42.141l-9.452-9.379 9.378 9.452 168.812 170.141zM527.961 225.444l1.477-1.477-9.452-9.378L349.845 45.777l-9.453-9.378 9.379 9.452 168.811 170.141zM524.324 229.086l1.477-1.477-9.452-9.379L346.208 49.419l-9.452-9.379 9.378 9.453 168.811 170.141zM520.695 232.732l1.477-1.478-9.452-9.378L342.579 53.064l-9.452-9.378 9.378 9.452L511.317 223.28zM517.052 236.369l1.478-1.477-9.453-9.378L338.936 56.702l-9.452-9.378 9.378 9.452 168.812 170.141zM513.408 240.009l1.477-1.477-9.452-9.379L335.292 60.342l-9.452-9.379 9.378 9.453 168.811 170.141zM509.765 243.64l1.477-1.477-9.452-9.379L331.649 63.973l-9.452-9.379 9.378 9.452 168.812 170.141zM506.129 247.286l1.477-1.477-9.453-9.378L328.012 67.619l-9.452-9.378 9.379 9.452L496.75 237.834zM502.49 250.926l1.477-1.477-9.452-9.379L314.922 61.88l9.378 9.452 168.812 170.142zM498.851 254.562l1.477-1.478-9.452-9.378L320.735 74.894l-9.452-9.378 9.378 9.452L489.473 245.11zM495.211 258.204l1.477-1.477-9.452-9.378L317.095 78.537l-9.453-9.379 9.379 9.453 168.811 170.141zM491.582 261.845l1.477-1.477-9.452-9.379-179.594-178.19 9.379 9.452 168.811 170.142zM487.933 265.482l1.477-1.478-9.452-9.378L309.817 85.814l-9.452-9.378 9.378 9.452L478.555 256.03zM484.297 269.12l1.477-1.477-9.453-9.378L306.18 89.453l-9.452-9.378 9.379 9.452 168.811 170.141zM480.656 272.76l1.477-1.477-9.452-9.379-179.593-178.19 9.378 9.453 168.812 170.141zM477.019 276.408l1.477-1.477-9.452-9.378L298.903 96.741l-9.452-9.378 9.378 9.452zM473.381 280.047l1.477-1.477-9.453-9.379L295.264 100.38l-9.452-9.379 9.379 9.453 168.811 170.141zM469.738 283.678l1.477-1.477-9.452-9.379-170.141-168.811-9.452-9.379 9.378 9.452L460.36 274.226zM466.097 287.313l1.478-1.478-9.453-9.378-170.141-168.812-9.452-9.378 9.378 9.452L456.719 277.86zM462.461 290.962l1.477-1.477-9.452-9.379-170.141-168.811-9.453-9.379 9.379 9.453L453.082 281.51zM458.824 294.605l1.477-1.478-9.452-9.378-170.141-168.812-9.452-9.378 9.378 9.452 168.811 170.141zM455.181 298.24l1.478-1.477-9.453-9.378-170.141-168.812-9.452-9.378 9.378 9.452 168.812 170.141zM451.537 301.874l1.477-1.477-9.452-9.378-179.594-178.191 9.379 9.453 168.811 170.141zM447.89 305.509l1.477-1.477-9.452-9.379-170.141-168.811-9.452-9.379 9.378 9.453 168.812 170.141zM444.265 309.15l1.477-1.477-9.452-9.378-170.141-168.812-9.452-9.378 9.378 9.452 168.812 170.141zM440.621 312.795l1.477-1.477-9.452-9.379-170.141-168.811-9.453-9.379 9.379 9.453 168.811 170.141zM436.984 316.431l1.477-1.477-9.452-9.379-170.141-168.811-9.452-9.379 9.378 9.452 168.812 170.141zM433.351 320.077l1.477-1.477-9.452-9.378L255.235 140.41l-9.452-9.378 9.378 9.452 168.812 170.141zM429.701 323.715l1.477-1.477-9.452-9.379-170.141-168.811-9.453-9.379 9.379 9.453 168.811 170.141zM426.07 327.356l1.477-1.478-9.452-9.378-170.141-168.812-9.452-9.378 9.378 9.452 168.812 170.141zM422.424 330.992l1.477-1.477-9.453-9.378-170.141-168.812-9.452-9.378 9.379 9.452L413.045 321.54zM418.783 334.632l1.477-1.477-9.452-9.379-170.141-168.811-9.452-9.379 9.378 9.453L409.404 325.18zM415.142 338.264l1.477-1.477-9.452-9.379-170.141-168.811-9.452-9.379 9.378 9.452 168.812 170.141zM411.506 341.91l1.477-1.477-9.453-9.378-170.141-168.812-9.452-9.378 9.379 9.452 168.811 170.141zM407.869 345.546l1.477-1.477-9.452-9.379-170.141-168.811-9.453-9.379 9.379 9.453L398.49 336.094zM404.23 349.186l1.477-1.478-9.452-9.378-170.141-168.812-9.452-9.378 9.378 9.452 168.812 170.141zM400.59 352.826l1.477-1.477-9.453-9.378-170.141-168.812-9.452-9.378 9.379 9.452 168.811 170.141zM396.947 356.468l1.477-1.477-9.452-9.379-170.141-168.811-9.452-9.379 9.378 9.452zM393.314 360.114l1.477-1.477-9.452-9.378-170.141-168.812-9.452-9.378 9.378 9.452 168.812 170.141zM389.672 363.751l1.477-1.477-9.453-9.379-170.141-168.811-9.452-9.379 9.379 9.453 168.811 170.141zM386.035 367.393l1.477-1.478-9.452-9.378-170.141-168.812-9.453-9.378 9.379 9.452L376.656 357.94zM382.396 371.03l1.477-1.477-9.452-9.378L204.28 191.363l-9.452-9.378 9.378 9.452 168.812 170.141zM378.754 374.658l1.477-1.477-9.453-9.378-170.141-168.812-9.452-9.378 9.379 9.452 168.811 170.141z"/><path fill="#18f0bf" d="m482.215 270.829 1.707-1.707-5.901-5.815-106.208-104.673-5.901-5.815 5.815 5.901L476.4 264.928zM478.574 274.468l1.707-1.706-5.9-5.815-106.209-104.673-5.9-5.815 5.815 5.9 104.672 106.209zM474.936 278.109l1.706-1.707-5.9-5.815-106.209-104.672-5.9-5.816 5.815 5.901 104.673 106.208zM471.295 281.749l1.707-1.707-5.901-5.815-106.208-104.673-5.901-5.815 5.815 5.901L465.48 275.848zM467.656 285.386l1.707-1.706-5.9-5.815-106.209-104.673-5.9-5.815 5.815 5.9 104.672 106.209zM464.018 289.026l1.706-1.707-5.9-5.815-106.209-104.672-5.9-5.816 5.815 5.901 104.673 106.208zM460.375 292.664l1.707-1.707-5.901-5.815-106.208-104.673-5.901-5.815 5.815 5.901L454.56 286.763zM456.74 296.312l1.707-1.707-5.9-5.815-106.209-104.672-5.9-5.815 5.815 5.9 104.672 106.209zM453.102 299.942l1.706-1.707-5.9-5.815-106.209-104.672-5.9-5.816 5.815 5.901 104.673 106.208zM449.461 303.582l1.707-1.707-5.901-5.815-106.208-104.673-5.901-5.815 5.815 5.901 104.673 106.208zM445.813 307.217l1.706-1.706-5.9-5.815L335.41 195.023l-5.9-5.815 5.815 5.9 104.673 106.209zM442.182 310.864l1.706-1.707-5.9-5.815-106.209-104.673-5.9-5.815 5.815 5.901 104.673 106.208zM438.53 314.495l1.706-1.707-5.9-5.815L328.127 202.3l-5.9-5.815 5.815 5.901 104.672 106.208zM434.91 318.147l1.707-1.707-5.901-5.815-106.208-104.672-5.901-5.816 5.816 5.901 104.672 106.209zM431.26 321.777l1.707-1.707-5.901-5.815-106.208-104.672-5.901-5.816 5.815 5.901 104.673 106.208zM427.621 325.421l1.707-1.706-5.901-5.815-106.208-104.673-5.901-5.815 5.816 5.9 104.672 106.209zM423.985 329.059l1.706-1.706-5.9-5.816-106.209-104.672-5.9-5.815 5.815 5.9 104.672 106.209zM420.344 332.7l1.707-1.707-5.901-5.815-106.208-104.673-5.901-5.815 5.815 5.901 104.673 106.208zM416.701 336.341l1.707-1.706-5.9-5.815-106.209-104.673-5.9-5.815 5.815 5.9 104.672 106.209zM413.065 339.979l1.706-1.707-5.9-5.815-106.209-104.672-5.9-5.815 5.815 5.9L407.25 334.079zM409.43 343.613l1.706-1.707-5.9-5.815-106.209-104.673-5.9-5.815 5.815 5.901 104.673 106.208zM405.793 347.253l1.707-1.706-5.901-5.815-106.208-104.673-5.901-5.815 5.815 5.9 104.673 106.209zM402.147 350.897l1.706-1.707-5.9-5.815-106.209-104.672-5.9-5.816 5.815 5.901 104.673 106.209zM398.508 354.535l1.707-1.707-5.901-5.815L288.106 242.34l-5.901-5.815 5.815 5.901 104.673 106.208zM394.871 358.172l1.707-1.706-5.901-5.815-106.208-104.673-5.901-5.815 5.816 5.9 104.672 106.209zM391.231 361.813l1.706-1.707-5.9-5.815-106.209-104.672-5.9-5.816 5.815 5.901 104.673 106.209zM387.59 365.453l1.707-1.707-5.901-5.815-106.208-104.673-5.901-5.815 5.815 5.901 104.673 106.208zM383.953 369.09l1.707-1.706-5.901-5.815-106.208-104.673-5.901-5.815 5.816 5.9L378.138 363.19zM380.311 372.732l1.706-1.707-5.9-5.815-106.209-104.672-5.9-5.816 5.815 5.901 104.673 106.208zM376.674 376.371l1.707-1.707-5.901-5.815-106.208-104.673-5.901-5.815 5.815 5.901L370.859 370.47z"/></svg>