<svg xmlns="http://www.w3.org/2000/svg" width="1184" height="620" fill="none"><mask id="a" width="1184" height="1184" x="0" y="-282" maskUnits="userSpaceOnUse" style="mask-type:alpha"><path fill="#fff" d="M604.653-282c21.504 67.045 50.675 131.485 87.9 192.35h.357c110.195 179.882 280.607 311.352 490.11 384.223v29.868c-209.503 72.872-379.915 204.342-490.11 384.224-37.515 60.864-66.739 125.303-88.06 192.346h-26.855c-21.504-67.043-50.675-131.482-87.899-192.346C379.903 528.787 209.496 397.318 0 324.445v-29.876c209.494-72.872 379.88-204.34 489.739-384.218C527.255-150.515 556.48-214.955 577.801-282z"/></mask><g mask="url(#a)"><g filter="url(#b)"><ellipse cx="399.382" cy="186.047" fill="#dceeeb" rx="399.382" ry="186.047" transform="matrix(.9032 -.4292 .3635 .9316 -157.472 609.648)"/></g><g filter="url(#c)"><ellipse cx="367.619" cy="266.349" fill="#c190ff" rx="367.619" ry="266.349" transform="matrix(.9032 -.4292 .3635 .9316 343.788 193.354)"/></g></g><defs><filter id="b" width="1398.79" height="1152.21" x="-428.523" y="35.44" color-interpolation-filters="sRGB" filterUnits="userSpaceOnUse"><feFlood flood-opacity="0" result="BackgroundImageFix"/><feBlend in="SourceGraphic" in2="BackgroundImageFix" result="shape"/><feGaussianBlur result="effect1_foregroundBlur_5686_4831" stdDeviation="166.163"/></filter><filter id="c" width="1356.55" height="1252.83" x="94.359" y="-342.725" color-interpolation-filters="sRGB" filterUnits="userSpaceOnUse"><feFlood flood-opacity="0" result="BackgroundImageFix"/><feBlend in="SourceGraphic" in2="BackgroundImageFix" result="shape"/><feGaussianBlur result="effect1_foregroundBlur_5686_4831" stdDeviation="166.163"/></filter></defs></svg>