<svg width="84" height="84" xmlns="http://www.w3.org/2000/svg"><g fill="#898d9a"><path d="M58.09 20.9a18.27 18.27 0 00-13.51-3.95c-10.08 1.09-17.4 10.19-16.3 20.27.53 4.88 2.93 9.27 6.76 12.35 3.3 2.65 7.32 4.06 11.49 4.06.67 0 1.34-.04 2.02-.11 4.88-.53 9.27-2.93 12.35-6.76a18.27 18.27 0 003.95-13.51c-.53-4.88-2.93-9.27-6.76-12.35zM44.8 18.94c.6-.07 1.2-.1 1.8-.1 3.72 0 7.3 1.26 10.24 3.62 2.53 2.04 4.36 4.72 5.33 7.75-.11.03-.21.08-.3.15l-1.4 1.08c-4.71 3.61-9.17 7.02-11.53 6.51-.38-.08-.93-.3-1.44-1.24-.04-.07-.09-.2-.17-.37-2.68-6.08-5.84-8.47-9.39-7.09-1.52.59-4.31 2.04-7.62 3.95.93-7.38 6.79-13.43 14.48-14.26zm14.54 26.57a16.266 16.266 0 01-11.01 6.02c-4.36.47-8.63-.78-12.04-3.52A16.266 16.266 0 0130.27 37c-.05-.48-.07-.96-.08-1.43 3.67-2.15 6.9-3.86 8.47-4.48 2.37-.92 4.67 1.11 6.84 6.03.11.24.19.42.24.51.66 1.24 1.6 2 2.78 2.26.3.06.6.1.92.1 3.16 0 7.23-3.12 12.25-6.97l.99-.76c.07.4.15.8.19 1.21.47 4.35-.78 8.63-3.53 12.04z"/><path d="M80.68 22.04v-.07c0-.1-.01-.2-.04-.3 0-.02 0-.03-.01-.05 0-.01-.01-.01-.01-.02-.01-.01-.01-.03-.01-.04-.04-.1-.1-.18-.17-.26-.02-.02-.04-.03-.05-.05-.07-.07-.14-.12-.22-.17-.03-.01-.05-.03-.07-.04-.1-.04-.2-.08-.31-.09h-.04l-9.3-1a.994.994 0 00-1.1.89 1 1 0 00.89 1.1l5.24.57a72.54 72.54 0 00-8.37 4.18 22.123 22.123 0 00-6.59-8.77 22.114 22.114 0 00-16.34-4.78c-5.91.64-11.21 3.54-14.93 8.17-3.54 4.4-5.22 9.87-4.83 15.48-2.58 1.78-5.25 3.67-7.97 5.59-4.19 2.96-8.52 6.02-12.67 8.81-.46.31-.58.93-.27 1.39.18.27.49.42.81.42.19 0 .38-.05.56-.17 4.17-2.8 8.51-5.86 12.71-8.83 2.41-1.7 4.77-3.37 7.08-4.97.5 2.93 1.57 5.67 3.13 8.13-1.02.91-2.71 2.52-3.77 3.57l-.8-.91a1 1 0 00-1.38-.11c-2.79 2.28-5.57 4.66-8.26 7.06l-1.13 1c-2.64 2.34-4.38 3.89-6.93 6.38-.98.96-1.03 2.51-.1 3.54l4.04 4.49c.5.56 1.2.84 1.91.84.59 0 1.18-.2 1.66-.61 1.05-.91 1.92-1.63 2.76-2.33 1.29-1.07 2.5-2.08 4.15-3.57 3.09-2.78 6.19-5.63 9.21-8.5a1 1 0 00.06-1.39l-.84-.96c.94-.85 2.47-2.22 2.52-2.27.04-.04.64-.57 1.32-1.19.14.12.27.25.41.37 3.99 3.21 8.85 4.91 13.9 4.91.81 0 1.63-.04 2.44-.13 5.91-.64 11.21-3.54 14.93-8.17a22.114 22.114 0 004.78-16.34c-.16-1.46-.46-2.88-.88-4.26 2.97-1.74 5.91-3.22 8.92-4.45l-4.21 5.41a.992.992 0 00.18 1.4c.18.14.4.21.61.21.3 0 .59-.13.79-.39l6.38-8.21c.03-.04.05-.09.08-.14.01-.02.03-.04.04-.06.05-.09.08-.2.09-.31zM18.6 65.02c-1.62 1.46-2.82 2.46-4.09 3.52-.84.7-1.72 1.44-2.79 2.35-.23.2-.57.17-.77-.06l-4.04-4.49a.55.55 0 01.02-.77c2.51-2.46 4.24-3.99 6.86-6.31l1.13-1c2.43-2.17 4.94-4.31 7.46-6.39l.87.99 2.97 3.38.86.98a558.8 558.8 0 01-8.48 7.8zm8.45-10.86l-.1-.11-1.6-1.82c.95-.95 2.59-2.5 3.61-3.43.55.71 1.13 1.4 1.77 2.04-.64.57-1.16 1.05-1.19 1.07-.04.04-1.55 1.4-2.49 2.25zm35.29-6.24a20.166 20.166 0 01-13.59 7.44c-5.37.58-10.66-.96-14.87-4.35-1.55-1.25-2.89-2.7-3.99-4.29a20.09 20.09 0 01-3.45-9.3c-.58-5.38.96-10.66 4.35-14.87 3.39-4.21 8.22-6.85 13.59-7.44.74-.08 1.49-.12 2.22-.12 4.59 0 9.02 1.55 12.65 4.47 4.21 3.39 6.86 8.21 7.44 13.59.58 5.38-.96 10.66-4.35 14.87z"/></g></svg>
