<svg width="853" height="312" viewBox="0 0 853 312" fill="none" xmlns="http://www.w3.org/2000/svg">
<g clip-path="url(#clip0_4645_4610)">
<g opacity="0.2" clip-path="url(#clip1_4645_4610)">
<path d="M112.157 136.759C110.43 136.511 108.956 135.9 107.725 134.933C106.769 134.18 105.971 133.183 105.238 131.82C104.926 131.238 104.649 130.767 104.623 130.767C104.599 130.767 104.384 131.139 104.152 131.593C102.492 134.847 99.7552 136.517 95.8224 136.674C92.6616 136.798 90.176 135.898 88.1661 133.904C85.8799 131.632 85.0653 128.716 85.6479 124.888C85.6871 124.632 85.6009 124.624 82.1878 124.585H78.6875V130.202V135.818H75.0205H71.3535V122.408V109H79.3626H87.3716L87.3717 111.906L87.3718 114.812L83.063 114.89L78.7542 114.967L78.715 116.85L78.6758 118.733H82.5989C86.0532 118.733 86.5317 118.733 86.603 118.942C86.65 119.059 86.6836 119.77 86.6836 120.528C86.6836 121.281 86.7306 121.901 86.7839 121.898C86.8388 121.893 87.1239 121.564 87.4169 121.168C88.2763 120.007 90.0911 118.741 91.6173 118.237C94.2184 117.378 97.7732 117.585 100.055 118.734C101.948 119.687 103.494 121.365 104.215 123.25C104.346 123.591 104.497 123.878 104.548 123.878C104.603 123.878 104.831 123.467 105.062 122.966C105.597 121.801 106.697 120.352 107.552 119.684C109.172 118.421 110.464 117.934 112.454 117.838C114.7 117.729 116.101 118.11 117.442 119.201C117.748 119.449 118.032 119.651 118.074 119.651C118.114 119.651 118.166 117.258 118.185 114.333L118.216 109.017H129.317H140.418V112.518V116.02H136.434C133.169 116.02 132.422 116.02 132.294 116.206C132.199 116.322 132.154 116.741 132.178 117.296L132.217 118.2L140.974 118.277L149.73 118.355L150.017 118.689C150.355 119.077 152.373 121.265 152.743 121.643C153.036 121.938 152.814 122.14 154.982 119.646C155.566 118.971 156.174 118.392 156.332 118.354C156.49 118.354 158.54 118.277 160.887 118.354C164 118.354 165.154 118.432 165.154 118.54C165.154 118.626 164.942 118.921 164.684 119.2C164.262 119.658 162.041 122.12 159.835 124.581C159.387 125.077 158.762 125.764 158.447 126.099C157.533 127.073 157.534 127.066 158.235 127.86C158.575 128.248 159.037 128.767 159.26 129.021C159.483 129.277 160.183 130.048 160.815 130.739C163.419 133.582 165.354 135.748 165.354 135.817C165.354 135.894 163.208 135.894 160.586 135.894L155.819 135.887L155.286 135.251C154.057 133.776 152.876 132.491 152.739 132.481C152.658 132.475 151.89 133.242 151.034 134.189L149.476 135.906H133.846H118.216L118.177 135.277C118.153 134.936 118.106 134.649 118.062 134.649C118.023 134.649 117.649 134.951 117.236 135.332C115.856 136.583 113.912 137.199 112.15 136.943L112.157 136.759ZM141.963 133.738C142.534 133.086 143.039 132.519 143.083 132.483C143.13 132.483 143.612 131.908 144.16 131.295C144.707 130.674 145.456 129.843 145.824 129.441C147.209 127.93 147.453 127.648 147.684 127.299C147.921 126.942 147.919 126.934 147.456 126.442C146.334 125.243 141.96 120.382 141.204 119.495C141.008 119.262 140.798 119.122 140.737 119.185C140.674 119.262 140.597 120.612 140.56 122.221L140.489 125.151H136.456H132.422V126.867V128.582H136.489H140.556V131.544C140.556 134.381 140.603 134.98 140.821 134.896C140.875 134.896 141.387 134.321 141.959 133.668L141.963 133.738ZM150.227 132.925C150.961 132.092 151.816 131.133 152.127 130.792L152.694 130.172L153.043 130.567C153.235 130.785 153.672 131.258 154.013 131.624C154.354 131.989 155.022 132.731 155.497 133.276C155.973 133.819 156.421 134.31 156.494 134.363C156.565 134.441 157.873 134.464 159.395 134.464C161.523 134.464 162.16 134.464 162.156 134.301C162.153 134.208 161.928 133.89 161.656 133.595C159.67 131.405 158.803 130.446 158.027 129.582C157.537 129.039 156.823 128.245 156.441 127.822C155.659 126.957 155.64 127.1 156.69 125.946C157.022 125.581 157.662 124.867 158.111 124.36C159.779 122.478 160.911 121.215 161.46 120.619C161.771 120.285 162.026 119.928 162.027 119.84C162.027 119.716 161.414 119.677 159.394 119.677H156.761L155.958 120.568C155.516 121.057 154.707 121.978 154.158 122.613C153.61 123.25 153.093 123.769 153.01 123.769C152.927 123.769 152.469 123.342 151.991 122.812C151.513 122.284 150.87 121.586 150.562 121.26C150.254 120.934 149.814 120.443 149.585 120.17L149.169 119.673H146.398C144.269 119.673 143.626 119.673 143.628 119.836C143.629 119.93 143.853 120.24 144.127 120.535C145.019 121.485 145.935 122.497 147.226 123.958C147.923 124.747 148.806 125.725 149.189 126.133C149.572 126.536 149.887 126.951 149.89 127.046C149.892 127.139 149.068 128.123 148.06 129.227C144.7 132.906 143.471 134.327 143.547 134.449C143.578 134.526 144.791 134.526 146.247 134.526L148.893 134.449L150.227 132.935L150.227 132.925ZM139.065 132.615C139.088 131.634 139.07 130.699 139.026 130.536L138.955 130.241H134.924H130.892L130.853 127.038L130.814 123.834H134.8C138.037 123.834 138.815 123.834 138.94 123.648C139.043 123.524 139.082 122.871 139.057 121.633L139.017 119.802L135.017 119.725L131.017 119.647L130.978 117.171L130.938 114.693H135.008H139.078V112.513V110.334H132.144H125.21V122.422V134.511H132.111H139.012L139.051 132.727L139.065 132.615ZM96.7268 131.939C97.0198 131.862 97.4914 131.559 97.8508 131.218L98.4704 130.628H101.513C104.971 130.628 104.67 130.76 104.379 129.373L104.213 128.581H98.0261C93.4264 128.581 91.815 128.586 91.7436 128.697C91.6088 128.914 91.9402 129.929 92.3413 130.529C92.7824 131.189 93.4801 131.707 94.3336 132.005C95.0379 132.253 95.6557 132.237 96.727 131.927L96.7268 131.939ZM115.976 131.381C116.59 131.062 117.189 130.399 117.587 129.596C117.932 128.905 117.958 128.736 117.952 127.263C117.946 125.937 117.897 125.554 117.644 124.922C116.51 122.079 113.099 121.77 111.407 124.356C111.056 124.891 110.825 125.6 110.688 126.553C110.4 128.574 111.371 130.584 113.024 131.381C113.596 131.66 113.827 131.691 114.642 131.645C115.166 131.645 115.765 131.489 115.976 131.381ZM98.5327 124.308C98.5797 123.998 98.0721 123.039 97.6699 122.685C97.0071 122.103 96.3654 121.873 95.3558 121.861C94.2194 121.861 93.5899 122.102 92.87 122.858C92.5112 123.239 91.8889 124.266 91.8889 124.481C91.8889 124.559 97.8336 124.652 98.3561 124.613C98.4266 124.607 98.5092 124.471 98.5327 124.308Z" fill="#181E15"/>
</g>
<g opacity="0.2">
<path fill-rule="evenodd" clip-rule="evenodd" d="M16.3779 32.5248C17.3826 32.4949 18.2211 32.835 18.875 33.5346C18.9216 33.5856 18.9654 33.6386 19.0098 33.6918C19.1141 33.6829 19.2179 33.6723 19.3223 33.6723H19.3271C20.828 33.6745 22.0708 34.5309 22.9189 36.1498C23.1819 36.6516 23.3668 37.1517 23.4922 37.558C24.2329 37.3286 24.6765 37.192 24.6885 37.1879C24.8146 37.1503 25.0803 37.1049 25.3086 37.1635C25.3141 37.1649 25.3197 37.1659 25.3252 37.1674C25.3445 37.1729 25.3632 37.1799 25.3818 37.1869C25.4003 37.194 25.418 37.2026 25.4355 37.2114C25.4816 37.2344 25.5256 37.2613 25.5625 37.2983C25.7973 37.5331 28.1497 39.8189 28.1797 39.8481C28.1837 39.8481 31.0254 39.8915 31.1738 39.9037C31.2784 39.9125 31.3967 39.9735 31.4668 40.0805C31.4953 40.1235 31.5174 40.1737 31.5254 40.2319C31.5558 40.4502 34.7631 62.1428 35.6719 68.2895C35.8216 69.3019 35.9087 69.8927 35.9092 69.8959L25.2314 72.5512L0.595703 68.2895C0.595703 68.2895 3.53449 45.5597 3.64453 44.7494C3.79107 43.69 3.82678 43.6553 4.9502 43.3022C4.99381 43.2882 6.54758 42.8071 8.7666 42.1196C9.00414 40.4173 9.84223 38.2183 10.9434 36.4682C12.5087 33.9806 14.4396 32.5804 16.3779 32.5248ZM19.3145 45.3959C19.2942 45.3859 18.2256 44.8644 16.1562 44.9975C10.7333 45.3395 8.27537 49.1329 8.51172 52.8764C8.79256 57.3252 13.2373 57.166 13.4082 59.8735C13.4491 60.5276 13.0429 61.4527 11.9062 61.5248C10.1656 61.6345 7.99121 59.9926 7.99121 59.9926L7.15918 63.5307C7.15918 63.5307 9.31982 65.8466 13.2441 65.599C16.5135 65.3925 18.7828 62.7761 18.542 58.9516C18.2355 54.0899 12.7768 53.6364 12.6455 51.561C12.621 51.18 12.6471 49.6624 15.0518 49.5102C16.68 49.4077 18.0551 50.0288 18.0742 50.0375L19.3145 45.3959ZM16.417 33.8149C13.4251 33.9015 10.8147 38.5758 10.1475 41.6908C11.2042 41.3644 12.3521 41.008 13.5254 40.6449C13.9017 38.6661 14.8461 36.6149 16.0771 35.2934C16.5521 34.7838 17.0582 34.3926 17.582 34.1205C17.2546 33.9052 16.872 33.8049 16.417 33.8149ZM18.418 35.1567C17.8476 35.3921 17.3655 35.8036 17.0215 36.1733C16.0957 37.1671 15.3418 38.6831 14.9443 40.2055C16.3575 39.7679 17.7666 39.3318 19.0576 38.9321C19.0709 37.8605 18.954 36.276 18.418 35.1567ZM19.7578 35.0043C20.2151 36.1848 20.3323 37.551 20.3467 38.5326C21.0461 38.3161 21.6915 38.1163 22.2588 37.9408C21.9535 36.948 21.2287 35.2831 19.7578 35.0043Z" fill="#181E15"/>
<path d="M49.9702 55.1145C48.7424 54.4481 48.1115 53.8864 48.1115 53.1142C48.1115 52.1317 48.9879 51.5005 50.3567 51.5005C51.95 51.5005 53.3726 52.167 53.3726 52.167L54.4946 48.7282C54.4946 48.7282 53.4629 47.9208 50.426 47.9208C46.1999 47.9208 43.271 50.3418 43.271 53.7454C43.271 55.6751 44.6386 57.1489 46.4631 58.2008C47.9364 59.0424 48.4627 59.6394 48.4627 60.5162C48.4627 61.4282 47.7261 62.1651 46.3585 62.1651C44.3203 62.1651 42.3956 61.112 42.3956 61.112L41.2031 64.5508C41.2031 64.5508 42.9814 65.7438 45.9731 65.7438C50.3225 65.7438 53.4442 63.6036 53.4442 59.744C53.4431 57.6754 51.8652 56.2017 49.9702 55.1145Z" fill="#181E15"/>
<path d="M67.296 47.8864C65.1564 47.8864 63.4728 48.9042 62.1757 50.4474L62.1052 50.4121L63.9639 40.6938H59.1234L54.4238 65.4285H59.2643L60.8775 56.9736C61.5084 53.7804 63.1567 51.8165 64.7005 51.8165C65.7873 51.8165 66.2091 52.5534 66.2091 53.6064C66.2091 54.2728 66.1386 55.0802 65.9987 55.7466L64.1753 65.4297H69.016L70.9094 55.4304C71.1202 54.3774 71.2609 53.1152 71.2609 52.2725C71.2589 49.5353 69.821 47.8864 67.296 47.8864Z" fill="#181E15"/>
<path d="M82.2032 47.8863C76.3803 47.8863 72.5234 53.1492 72.5234 59.008C72.5234 62.7618 74.8377 65.7788 79.1874 65.7788C84.9042 65.7788 88.7624 60.6569 88.7624 54.6571C88.7624 51.1842 86.7276 47.8863 82.2032 47.8863ZM79.8183 62.0612C78.1696 62.0612 77.468 60.658 77.468 58.9033C77.468 56.132 78.9066 51.6061 81.5369 51.6061C83.2556 51.6061 83.8158 53.0798 83.8158 54.5184C83.8158 57.5 82.3793 62.0612 79.8183 62.0612Z" fill="#181E15"/>
<path d="M101.141 47.8863C97.8742 47.8863 96.0201 50.7634 96.0201 50.7634H95.9508L96.2315 48.1672H91.9525C91.7424 49.9219 91.3556 52.5874 90.9708 54.5877L87.6035 72.305H92.4441L93.7759 65.1476H93.8819C93.8819 65.1476 94.875 65.7788 96.723 65.7788C102.405 65.7788 106.122 59.9553 106.122 54.0602C106.122 50.7987 104.683 47.8863 101.141 47.8863ZM96.5116 62.1306C95.2552 62.1306 94.5115 61.429 94.5115 61.429L95.3185 56.9031C95.8801 53.8861 97.458 51.8858 99.142 51.8858C100.615 51.8858 101.071 53.2539 101.071 54.5525C101.071 57.6752 99.212 62.1306 96.5116 62.1306Z" fill="#181E15"/>
<path d="M113.032 40.9397C111.49 40.9397 110.262 42.1678 110.262 43.7462C110.262 45.1848 111.173 46.1673 112.541 46.1673H112.611C114.12 46.1673 115.417 45.1495 115.452 43.3607C115.452 41.9574 114.505 40.9397 113.032 40.9397Z" fill="#181E15"/>
<path d="M106.264 65.4286H111.103L114.401 48.273H109.525L106.264 65.4286Z" fill="#181E15"/>
<path d="M126.712 48.238H123.344L123.519 47.4306C123.8 45.7817 124.782 44.3079 126.395 44.3079C127.256 44.3079 127.938 44.5535 127.938 44.5535L128.885 40.7645C128.885 40.7645 128.043 40.3437 126.254 40.3437C124.535 40.3437 122.818 40.8349 121.52 41.9573C119.871 43.3607 119.099 45.3951 118.714 47.4306L118.574 48.238H116.329L115.627 51.8872H117.873L115.312 65.4298H120.153L122.713 51.8872H126.045L126.712 48.238Z" fill="#181E15"/>
<path d="M138.357 48.2733C138.357 48.2733 135.331 55.8988 133.973 60.0613H133.902C133.81 58.7208 132.709 48.2733 132.709 48.2733H127.623L130.536 64.0255C130.607 64.3758 130.571 64.5873 130.431 64.8329C129.868 65.92 128.922 66.9731 127.8 67.7452C126.888 68.4116 125.871 68.8323 125.064 69.1132L126.397 73.2184C127.379 73.0081 129.413 72.2007 131.131 70.587C133.342 68.5173 135.375 65.3241 137.479 60.9733L143.407 48.2722H138.357V48.2733Z" fill="#181E15"/>
</g>
<g opacity="0.2">
<path fill-rule="evenodd" clip-rule="evenodd" d="M219.616 278.527L219.67 278.598L216.602 283.515L216.397 283.273L216.254 283.114L215.974 282.82L215.745 282.593C214.601 281.493 212.409 279.805 209.76 279.86C206.284 279.925 203.63 282.771 203.63 286.085C203.63 288.997 205.405 292.241 210.129 292.314C212.845 292.348 214.699 290.429 215.649 289.046L215.832 288.768C215.941 288.598 216.197 288.177 216.554 287.583L224.317 274.517H230.598V297.702H224.817V294.224L220.212 294.205L219.598 294.209L219.43 294.216L219.4 294.221L219.404 294.224L219.28 294.361L219.132 294.514L218.924 294.717L218.748 294.879L218.546 295.056L218.317 295.248C216.701 296.566 213.32 298.633 208.399 298.156C203.457 297.684 197.41 293.784 197.41 285.975C197.41 282.267 200.205 274.267 209.816 274.052C215.733 273.921 219.15 277.941 219.616 278.527ZM290.192 274.032C293.355 274.032 296.348 275.245 298.653 277.475C300.13 278.908 301.176 280.591 301.763 282.414L301.761 274.517H307.187L316.209 287.401V274.517H322.224V297.718H316.939L307.774 284.792V297.718H301.761L301.762 289.765C301.204 291.579 300.234 293.21 298.888 294.574C296.588 296.935 293.457 298.215 290.158 298.215C286.702 298.215 283.739 296.999 281.418 294.624L281.418 297.718H268.441V274.521H274.412V292.591L279.808 292.593C278.589 290.659 277.974 288.423 277.974 285.882C277.974 282.665 279.233 279.708 281.567 277.446C283.898 275.179 286.826 274.032 290.192 274.032ZM170.938 274.517C174.836 274.517 177.561 275.004 180.117 277.288C181.953 278.925 183.114 281.144 183.53 283.864L183.529 274.517H196.887V279.621L189.538 279.629V283.42L195.901 283.414V288.403L189.538 288.41V292.615H196.887V297.702H183.529L183.531 288.453C183.12 290.99 181.981 293.135 180.144 294.846C177.525 297.256 175.213 297.718 171.76 297.718H162.547V274.517H170.938ZM247.182 274.508V280.054H242.522V297.718H236.517V280.054H231.852V274.508H247.182ZM254.423 274.515V283.325H260.603V274.515H266.608V297.718H260.603V288.84H254.423V297.718H248.421V274.515H254.423ZM170.938 279.506H168.553V292.622H170.965C175.561 292.622 177.733 290.604 177.733 286.038C177.733 281.861 175.348 279.506 170.938 279.506ZM290.226 279.805C286.701 279.805 283.932 282.533 283.932 285.945C283.932 289.623 286.894 292.436 290.158 292.436C293.558 292.436 296.325 289.747 296.325 285.945C296.325 282.533 293.558 279.805 290.226 279.805ZM224.936 284.123L221.838 289.374H224.936V284.123Z" fill="#181E15"/>
</g>
<g opacity="0.2">
<path d="M627.33 297.084C625.404 296.982 623.967 296.202 623.126 294.801C622.562 293.861 622.391 292.624 622.649 291.361C622.935 289.96 623.905 288.699 625.395 287.791C626.251 287.27 626.984 286.946 628.476 286.429C628.851 286.299 629.175 286.18 629.196 286.163C629.226 286.14 629.23 286.057 629.215 285.788C629.172 285.023 629.302 283.832 629.521 282.972C629.89 281.525 630.6 280.357 631.542 279.649C632.218 279.14 633.105 278.758 633.988 278.594C634.475 278.503 635.291 278.504 635.75 278.595C637.715 278.984 638.818 280.476 638.384 282.158C638.293 282.512 638.004 283.093 637.759 283.415C637.132 284.238 636.189 284.97 634.857 285.667C634.69 285.755 634.142 286.02 633.64 286.257C633.137 286.494 632.711 286.703 632.691 286.722C632.663 286.75 632.67 286.83 632.724 287.1C632.974 288.35 633.394 289.406 634.111 290.586C634.397 291.056 634.791 291.648 634.836 291.676C634.901 291.715 635.166 291.293 635.339 290.875C635.553 290.358 635.675 289.674 635.615 289.334C635.572 289.091 635.437 288.834 635.265 288.668C635.185 288.592 635.12 288.519 635.12 288.507C635.119 288.495 635.788 288.489 636.606 288.493L638.092 288.5L638.084 288.686C638.072 288.94 637.976 289.481 637.876 289.866C637.591 290.95 637.056 291.877 636.13 292.889C636.02 293.008 635.931 293.125 635.931 293.149C635.931 293.173 636.084 293.339 636.272 293.518C637.442 294.635 639.516 295.924 641.204 296.583C641.368 296.648 641.502 296.713 641.501 296.729C641.501 296.747 640.526 296.76 638.653 296.765L635.806 296.772L635.644 296.682C635.313 296.499 634.58 295.916 633.877 295.275C633.728 295.14 633.586 295.029 633.563 295.029C633.54 295.029 633.374 295.124 633.196 295.239C632.281 295.833 631.189 296.367 630.265 296.67C629.213 297.016 628.346 297.138 627.33 297.085V297.084ZM629.728 294.655C630.154 294.58 630.678 294.427 631.159 294.238C631.643 294.048 632.243 293.757 632.265 293.702C632.273 293.68 632.162 293.498 632.019 293.296C631.356 292.366 630.649 291.059 630.173 289.886C629.998 289.454 629.67 288.496 629.608 288.234C629.588 288.15 629.552 288.074 629.528 288.065C629.462 288.04 628.918 288.325 628.448 288.632C626.777 289.723 625.977 291.054 626.155 292.446C626.234 293.064 626.432 293.515 626.794 293.895C627.462 294.599 628.507 294.869 629.728 294.655ZM632.563 284.981C633.181 284.624 634.162 283.759 634.71 283.086C635.412 282.225 635.786 281.421 635.786 280.77C635.786 280.397 635.732 280.23 635.557 280.058C635.383 279.887 635.187 279.816 634.887 279.816C633.996 279.816 633.034 280.856 632.614 282.273C632.402 282.987 632.351 283.371 632.35 284.243C632.348 284.909 632.359 285.057 632.41 285.057C632.421 285.057 632.49 285.023 632.563 284.981ZM647.287 297.068C645.82 296.922 644.853 296.706 643.763 296.281C642.278 295.702 641.352 294.984 640.569 293.808C640.335 293.456 639.959 292.717 639.807 292.309C639.128 290.489 638.979 288.198 639.384 285.809C639.793 283.39 640.726 281.059 642.013 279.236C642.848 278.055 644.09 276.81 645.373 275.871C647.49 274.319 649.927 273.366 652.635 273.031C653.457 272.929 653.917 272.903 654.887 272.903C656.354 272.904 657.472 273.014 658.948 273.303C659.89 273.488 661.389 273.886 661.418 273.96C661.433 273.997 660.483 276.997 660.443 277.038C660.431 277.05 660.285 276.954 660.12 276.824C658.785 275.775 657.401 275.137 656.003 274.925C655.556 274.857 654.716 274.857 654.278 274.924C652.317 275.223 650.498 276.457 648.884 278.585C648.36 279.276 647.782 280.202 647.333 281.072C646.724 282.25 646.305 283.292 645.882 284.686C644.533 289.119 644.465 292.217 645.679 293.893C646.178 294.584 646.909 295.024 647.836 295.192C648.369 295.289 649.661 295.231 649.79 295.104C649.81 295.084 650.441 293.14 651.191 290.784C652.424 286.913 652.558 286.477 652.572 286.258C652.59 285.963 652.535 285.7 652.4 285.446C652.278 285.216 651.955 284.903 651.689 284.757C651.574 284.695 651.48 284.633 651.479 284.622C651.479 284.61 653.547 284.6 656.076 284.6C658.605 284.6 660.674 284.61 660.673 284.622C660.673 284.633 660.561 284.694 660.424 284.755C659.709 285.078 659.19 285.561 658.881 286.193C658.814 286.33 658.236 288.1 657.367 290.826L655.96 295.239L655.554 295.43C653.898 296.213 651.873 296.777 649.853 297.017C649.482 297.062 647.598 297.099 647.287 297.068H647.287ZM604.968 296.745C604.958 296.731 605.02 296.68 605.104 296.632C605.603 296.349 606.164 295.761 606.402 295.271C606.47 295.13 612.777 275.346 612.916 274.835C612.941 274.745 612.961 274.556 612.962 274.415C612.964 273.983 612.828 273.672 612.507 273.374C612.42 273.292 612.348 273.214 612.348 273.199C612.348 273.16 623.361 273.163 623.866 273.202C624.959 273.288 626.054 273.574 626.891 273.993C628.32 274.709 629.176 275.796 629.439 277.228C629.513 277.627 629.527 278.514 629.467 278.943C629.222 280.693 628.417 282.549 627.321 283.892C625.545 286.067 622.642 287.458 619.078 287.841C617.948 287.962 616.525 287.992 615.517 287.917C615.226 287.895 614.981 287.883 614.974 287.89C614.938 287.926 612.664 295.111 612.638 295.271C612.558 295.766 612.817 296.322 613.263 296.613C613.351 296.671 613.415 296.73 613.406 296.745C613.383 296.781 604.99 296.781 604.967 296.745L604.968 296.745ZM617.468 286.073C618.296 285.928 619.026 285.626 619.731 285.138C620.073 284.901 620.777 284.209 621.067 283.824C621.793 282.861 622.327 281.725 622.758 280.229C623.032 279.275 623.149 278.549 623.149 277.8C623.149 277.223 623.096 276.878 622.948 276.491C622.73 275.918 622.284 275.464 621.718 275.239C621.232 275.045 620.817 274.994 619.819 275.006L619.067 275.014L617.317 280.5C616.356 283.517 615.574 286.001 615.58 286.018C615.587 286.036 615.708 286.066 615.849 286.085C615.99 286.104 616.124 286.124 616.148 286.13C616.258 286.156 617.233 286.114 617.468 286.073V286.073Z" fill="#181E15"/>
</g>
<g opacity="0.2">
<path fill-rule="evenodd" clip-rule="evenodd" d="M120.572 191.401C120.572 191.401 119.136 190.507 118.249 190.16C118.249 190.16 115.5 188.877 114.955 188.266C114.955 188.266 113.884 187.249 114.511 186.068C114.511 186.068 114.774 185.295 115.906 185.295C115.906 185.295 117.379 185.376 117.379 186.597V188.318H122.66L122.651 185.783C122.651 185.783 123.057 181.631 116.431 181.448C116.431 181.448 111.219 181.103 109.724 183.931C109.724 183.931 109.137 184.562 109.137 186.76V188.348C109.137 188.348 109.077 190.18 110.006 191.36C110.006 191.36 110.531 192.134 111.824 192.988C111.824 192.988 114.449 194.413 116.025 195.229C116.025 195.229 117.616 196.144 117.407 197.6C117.407 197.6 117.277 199.095 115.741 199.034C115.741 199.034 114.336 198.97 114.336 197.504V195.784H108.709V198.283C108.709 198.283 108.551 203.062 115.782 203.062C115.782 203.062 122.692 203.203 123.014 198.157V196.122C123.013 196.122 123.258 193.03 120.572 191.401ZM93.5354 182.043L91.767 193.209H91.3535L89.6644 182.143H80.8431L80.401 202.364H85.624L85.6866 187.128H86.0974L88.8659 202.362H94.3606L97.095 187.134H97.4588L97.585 202.364H102.836L102.27 182.043H93.5354ZM62.4442 182.127L58.9693 202.341H64.592L66.6504 186.668H67.1128L69.1703 202.341H74.7921L71.3181 182.127H62.4442ZM180.426 191.123V194.105H181.869V197.306C181.869 198.87 180.541 198.899 180.541 198.899C178.928 198.899 178.989 197.412 178.989 197.412V186.341C178.989 185.2 180.421 185.139 180.421 185.139C181.795 185.139 181.804 186.499 181.804 186.499V188.183H187.098C187.271 184.896 186.621 184.101 186.621 184.101C185.308 181.129 180.34 181.292 180.34 181.292C172.706 181.292 173.553 187.194 173.553 187.194V197.899C173.717 203.435 181.24 202.873 181.367 202.868C184.713 202.495 185.723 201.423 185.723 201.423C186.653 200.727 186.893 199.763 186.893 199.763C187.159 199.202 187.225 197.412 187.225 197.412V191.123H180.426ZM162.879 194.413H162.648L157.276 182.048H150.848V202.366H156.08L155.767 190.004H156L161.566 202.366H167.798V182.046H162.501L162.879 194.413ZM138.079 197.304C138.079 197.304 138.154 198.971 136.62 198.971C136.62 198.971 135.006 199.059 135.006 197.345L134.99 182.06H129.252V197.224C129.252 197.224 128.663 202.963 136.701 202.963C136.701 202.963 143.686 203.046 143.686 197.487V182.061H138.079V197.304ZM51.5055 191.401C51.5055 191.401 50.0715 190.507 49.1827 190.161C49.1827 190.161 46.4363 188.879 45.891 188.267C45.891 188.267 44.8199 187.248 45.448 186.07C45.448 186.07 45.7096 185.296 46.8406 185.296C46.8406 185.296 48.3151 185.377 48.3151 186.598V188.319H53.598L53.5878 185.783C53.5878 185.783 53.9912 181.631 47.3674 181.449C47.3674 181.449 46.8682 181.416 46.136 181.453C46.136 181.453 42.1232 181.671 40.6883 183.889C40.68 183.905 40.668 183.917 40.6598 183.932C40.6598 183.932 40.074 184.562 40.074 186.761V188.349C40.074 188.349 40.0132 190.181 40.9425 191.361C40.9425 191.361 41.4675 192.135 42.7606 192.989C42.7606 192.989 45.3854 194.414 46.9612 195.229C46.9612 195.229 48.5537 196.143 48.3427 197.601C48.3427 197.601 48.2129 199.096 46.6776 199.034C46.6776 199.034 45.273 198.971 45.273 197.505V195.784H39.6448V198.285C39.6448 198.285 39.4873 203.064 46.7181 203.064C46.7181 203.064 53.6256 203.205 53.9507 198.159V196.126C53.9507 196.124 54.192 193.03 51.5055 191.401Z" fill="#181E15"/>
</g>
<g opacity="0.2">
<path d="M464.45 253.469C466.081 253.472 467.711 253.461 469.342 253.474C469.334 258.124 469.336 262.774 469.34 267.424C471.304 267.423 473.267 267.425 475.231 267.423V271.571C471.639 271.573 468.047 271.566 464.456 271.574C464.443 265.539 464.454 259.504 464.45 253.469Z" fill="#181E15"/>
<path d="M494.689 253.464C496.318 253.471 497.945 253.467 499.573 253.467C499.574 258.119 499.573 262.771 499.574 267.422C501.54 267.428 503.505 267.414 505.47 267.429C505.462 268.81 505.468 270.189 505.468 271.569C501.874 271.57 498.28 271.571 494.686 271.569C494.69 265.534 494.682 259.499 494.689 253.464Z" fill="#181E15"/>
<path d="M481.884 256.897C483.066 256.677 484.33 256.709 485.457 257.15C486.241 257.455 486.903 257.978 487.543 258.501C487.552 258.013 487.544 257.526 487.553 257.039C489.052 257.047 490.552 257.04 492.05 257.042C492.045 261.878 492.06 266.714 492.044 271.55C490.517 271.597 488.987 271.557 487.459 271.569C487.459 271.118 487.461 270.667 487.457 270.218C486.255 271.277 484.659 271.937 483.02 271.916C481.111 271.95 479.153 271.246 477.882 269.843C476.554 268.402 476.008 266.433 475.996 264.537C475.956 262.876 476.456 261.203 477.43 259.83C478.457 258.356 480.067 257.241 481.884 256.897ZM483.311 260.939C482.252 261.144 481.335 261.884 480.92 262.844C480.24 264.421 480.71 266.518 482.245 267.469C483.658 268.331 485.677 267.985 486.77 266.786C488.11 265.378 487.953 262.918 486.458 261.67C485.615 260.948 484.4 260.699 483.311 260.939Z" fill="#181E15"/>
<path d="M516.6 258.053C517.967 256.96 519.835 256.577 521.568 256.847C522.865 257.016 523.996 257.742 524.89 258.634C524.899 258.105 524.894 257.575 524.894 257.045C526.347 257.044 527.798 257.04 529.25 257.048C529.246 261.375 529.25 265.701 529.249 270.029C529.226 271.659 528.648 273.317 527.46 274.5C526.085 275.894 524.082 276.557 522.124 276.647C520.111 276.742 517.993 276.326 516.363 275.13C515.184 274.288 514.378 272.977 514.196 271.571C515.886 271.58 517.577 271.557 519.266 271.581C519.567 271.916 519.827 272.315 520.255 272.514C520.868 272.806 521.582 272.781 522.247 272.725C523.101 272.632 524.015 272.268 524.442 271.503C524.813 270.873 524.651 270.127 524.694 269.438C523.448 270.442 521.864 271.148 520.216 271.088C518.632 271.067 517.064 270.429 515.97 269.319C514.482 267.861 513.838 265.754 513.91 263.739C513.97 261.607 514.85 259.415 516.6 258.053ZM520.869 260.601C519.731 260.771 518.835 261.675 518.53 262.721C518.15 263.983 518.302 265.496 519.258 266.489C520.43 267.743 522.667 267.636 523.863 266.469C525.207 265.223 525.247 262.98 524.095 261.606C523.327 260.703 522.021 260.427 520.869 260.601Z" fill="#181E15"/>
<path d="M534.499 257.957C536.02 256.92 537.992 256.526 539.815 256.906C540.922 257.135 541.865 257.782 542.697 258.495C542.69 258.012 542.691 257.528 542.691 257.045C544.202 257.045 545.713 257.034 547.224 257.051V271.566C545.693 271.575 544.161 271.571 542.631 271.568C542.633 271.117 542.633 270.665 542.63 270.214C542.122 270.632 541.584 271.026 540.975 271.3C539.381 272.068 537.48 272.08 535.802 271.571C534.286 271.105 532.984 270.057 532.217 268.713C531.306 267.143 531.053 265.287 531.206 263.513C531.433 261.328 532.622 259.222 534.499 257.957ZM538.414 260.957C537.177 261.212 536.172 262.215 535.897 263.4C535.547 264.849 536.028 266.566 537.343 267.429C538.836 268.391 541.048 267.962 542.112 266.586C543.235 265.179 543.055 262.962 541.712 261.746C540.847 260.96 539.557 260.679 538.414 260.957Z" fill="#181E15"/>
<path d="M509.026 250.795C510.366 250.421 511.923 251.181 512.358 252.471C512.724 253.474 512.4 254.679 511.56 255.371C510.757 256.068 509.518 256.249 508.543 255.799C507.466 255.323 506.842 254.116 507.035 252.997C507.166 251.967 507.984 251.057 509.026 250.795ZM507.448 257.047C508.96 257.038 510.47 257.047 511.982 257.042C511.984 261.885 511.984 266.729 511.982 271.572C510.47 271.569 508.96 271.577 507.448 271.567C507.454 266.728 507.453 261.887 507.448 257.047Z" fill="#181E15"/>
<path d="M435.06 243.71H435.575C436.073 246.217 436.516 248.735 437.002 251.244C437.093 251.652 437.146 252.069 437.152 252.488C434.337 252.942 431.749 254.658 430.319 257.121C430.229 257.373 429.946 257.456 429.731 257.29C427.388 255.951 425.059 254.587 422.717 253.245C422.575 253.133 422.297 253.037 422.402 252.809C422.527 252.45 422.767 252.145 422.969 251.827C424.41 249.613 426.345 247.723 428.582 246.309C430.552 245.042 432.776 244.213 435.06 243.71Z" fill="#181E15"/>
<path d="M438.761 245.835C443.372 245.398 448.125 246.739 451.805 249.536C452.159 249.82 452.554 250.066 452.846 250.416C453.001 250.604 452.784 250.789 452.679 250.932C451.062 252.782 449.45 254.636 447.837 256.488C447.629 256.716 447.451 256.975 447.209 257.167C446.973 257.295 446.801 257.068 446.628 256.947C444.807 255.422 442.388 254.639 440.015 254.762C439.612 254.775 439.217 254.869 438.815 254.86C438.687 254.732 438.647 254.558 438.621 254.387C438.277 252.017 437.919 249.65 437.568 247.281C437.515 246.889 437.419 246.498 437.441 246.102C437.825 245.847 438.322 245.911 438.761 245.835Z" fill="#181E15"/>
<path d="M436.121 258.011C438.029 257.728 440.042 258.289 441.538 259.496C442.964 260.631 443.925 262.335 444.122 264.143C444.316 265.703 443.96 267.327 443.123 268.662C442.188 270.177 440.654 271.314 438.925 271.766C437.381 272.169 435.696 272.05 434.237 271.399C432.65 270.702 431.341 269.406 430.638 267.829C429.827 266.025 429.831 263.876 430.655 262.076C431.618 259.911 433.756 258.316 436.121 258.011ZM431.851 261.226C432.093 261.112 432.33 260.992 432.573 260.88C432.268 261.572 432.078 262.325 432.142 263.085C432.772 263.387 433.437 263.626 434.038 263.986C433.354 263.894 432.682 263.724 432.005 263.591C431.485 264.171 431.169 264.9 431.011 265.657C430.887 265.431 430.77 265.202 430.643 264.978C430.644 266.335 431.103 267.679 431.91 268.771C431.858 268.522 431.811 268.271 431.771 268.02C432.369 268.482 433.009 268.925 433.766 269.085C434.25 268.575 434.685 268.012 435.224 267.557C434.914 268.185 434.538 268.778 434.202 269.393C434.603 270.038 435.182 270.551 435.835 270.935C435.587 270.995 435.339 271.061 435.086 271.103C435.761 271.251 436.443 271.391 437.137 271.402C437.797 271.374 438.45 271.266 439.087 271.094C438.842 271.043 438.596 270.998 438.35 270.949C438.991 270.563 439.589 270.08 439.976 269.433C439.746 268.774 439.251 268.228 439.016 267.565C439.528 268.043 439.966 268.593 440.462 269.089C441.201 268.899 441.86 268.497 442.43 267.999C442.397 268.259 442.361 268.519 442.322 268.78C443.088 267.655 443.57 266.331 443.562 264.963C443.447 265.198 443.323 265.428 443.196 265.658C443.037 264.905 442.72 264.182 442.209 263.598C441.536 263.726 440.866 263.876 440.191 263.996C440.761 263.589 441.466 263.427 442.06 263.062C442.147 262.311 441.928 261.569 441.634 260.885C441.865 260.993 442.095 261.104 442.323 261.219C441.532 260.101 440.358 259.278 439.056 258.855C439.256 259.047 439.457 259.239 439.654 259.436C438.88 259.337 438.09 259.424 437.367 259.716C437.272 260.395 437.259 261.091 437.087 261.757C436.99 261.08 436.922 260.399 436.844 259.718C436.125 259.434 435.338 259.329 434.57 259.44C434.749 259.245 434.934 259.055 435.116 258.862C433.811 259.289 432.673 260.137 431.851 261.226Z" fill="#181E15"/>
<path d="M434.23 264.032C435.191 263.342 436.145 262.637 437.114 261.956C438.066 262.66 439.04 263.336 439.991 264.044C439.618 265.169 439.249 266.295 438.884 267.422C437.701 267.425 436.519 267.42 435.336 267.425C434.958 266.296 434.583 265.168 434.23 264.032Z" fill="#181E15"/>
<path d="M419.289 253.062C419.434 252.973 419.581 253.109 419.712 253.159C422.104 254.44 424.499 255.713 426.892 256.99C427.133 257.083 427.229 257.358 427.057 257.563C425.737 259.983 425.573 262.974 426.591 265.531C426.733 265.748 426.521 265.949 426.316 266.012C424.035 266.89 421.752 267.76 419.47 268.636C419.114 268.766 418.769 268.935 418.398 269.02C418.284 268.969 418.202 268.89 418.153 268.778C416.181 263.823 416.534 258.027 419.059 253.329C419.108 253.212 419.185 253.123 419.289 253.062Z" fill="#181E15"/>
<path d="M452.201 253.562C452.487 253.392 452.73 253.753 452.922 253.921C456.691 257.601 458.761 262.927 458.431 268.169C458.39 268.223 458.308 268.328 458.267 268.381C455.548 268.294 452.828 268.118 450.109 268.009C449.883 267.979 449.583 268.03 449.428 267.823C449.389 267.429 449.425 267.034 449.406 266.64C449.287 264.206 448.181 261.835 446.385 260.175C446.155 260.01 446.274 259.71 446.453 259.56C448.377 257.569 450.262 255.537 452.201 253.562Z" fill="#181E15"/>
<path d="M424.139 268.015C424.332 267.952 424.551 267.807 424.75 267.928C424.845 268.051 424.908 268.194 424.978 268.334C425.958 270.486 427.797 272.233 429.988 273.141C430.351 273.302 430.746 273.382 431.097 273.57C431.166 273.763 431.101 273.966 431.047 274.155C430.216 276.781 429.398 279.411 428.572 282.039C428.424 282.069 428.279 282.068 428.133 282.036C423.09 280.505 418.806 276.714 416.668 271.926C416.585 271.72 416.598 271.494 416.578 271.278C419.092 270.177 421.623 269.112 424.139 268.015Z" fill="#181E15"/>
<path d="M446.767 269.026C446.979 268.903 447.226 268.956 447.456 268.965C450.116 269.185 452.78 269.372 455.44 269.593C455.65 269.576 455.77 269.79 455.733 269.978C455.363 275.257 452.559 280.298 448.285 283.445C448.134 283.543 447.97 283.611 447.81 283.688C446.179 281.535 444.604 279.341 442.985 277.179C442.84 276.975 442.669 276.777 442.605 276.531C442.645 276.377 442.796 276.298 442.906 276.199C444.841 274.773 446.175 272.584 446.592 270.231C446.669 269.832 446.677 269.422 446.767 269.026Z" fill="#181E15"/>
<path d="M439.763 275.09C439.935 274.931 440.177 274.987 440.289 275.184C441.732 277.298 443.155 279.427 444.594 281.544C444.751 281.775 444.916 282.003 445.033 282.26C444.919 282.566 444.591 282.693 444.34 282.866C441.879 284.402 439.055 285.359 436.161 285.627C434.967 285.608 433.769 285.594 432.577 285.645C431.54 285.509 430.502 285.35 429.493 285.071C429.324 285.04 429.206 284.912 429.08 284.81C429.858 282.09 430.592 279.357 431.362 276.635C431.395 276.405 431.637 276.274 431.846 276.381C434.509 277.133 437.473 276.623 439.763 275.09Z" fill="#181E15"/>
</g>
<g opacity="0.2">
<path d="M736.333 223.247C729.678 228.176 720.032 230.806 711.727 230.806C700.083 230.806 689.6 226.478 681.669 219.28C681.046 218.714 681.604 217.942 682.352 218.383C690.911 223.387 701.494 226.398 712.425 226.398C719.798 226.398 727.908 224.865 735.365 221.684C736.492 221.203 737.434 222.426 736.333 223.247Z" fill="#181E15"/>
<path d="M739.099 220.067C738.251 218.975 733.476 219.551 731.332 219.807C730.679 219.887 730.58 219.316 731.168 218.905C734.971 216.215 741.212 216.992 741.94 217.893C742.668 218.8 741.751 225.086 738.176 228.087C737.628 228.548 737.105 228.302 737.349 227.691C738.151 225.677 739.951 221.164 739.099 220.067Z" fill="#181E15"/>
<path d="M731.483 199.915V197.3C731.483 196.905 731.782 196.639 732.141 196.639H743.791C744.165 196.639 744.464 196.91 744.464 197.3V199.54C744.459 199.915 744.145 200.406 743.586 201.182L737.55 209.843C739.793 209.788 742.161 210.124 744.195 211.276C744.653 211.536 744.778 211.917 744.813 212.293V215.083C744.813 215.463 744.394 215.909 743.955 215.679C740.371 213.79 735.611 213.585 731.648 215.699C731.244 215.919 730.82 215.478 730.82 215.098V212.448C730.82 212.022 730.825 211.296 731.249 210.65L738.243 200.571H732.156C731.782 200.571 731.483 200.306 731.483 199.915Z" fill="#181E15"/>
<path d="M688.986 216.23H685.442C685.103 216.205 684.834 215.949 684.809 215.624V197.346C684.809 196.98 685.113 196.689 685.492 196.689H688.796C689.14 196.704 689.415 196.97 689.439 197.301V199.69H689.504C690.367 197.381 691.987 196.304 694.17 196.304C696.388 196.304 697.774 197.381 698.771 199.69C699.628 197.381 701.578 196.304 703.666 196.304C705.152 196.304 706.777 196.92 707.769 198.302C708.89 199.84 708.661 202.074 708.661 204.033L708.656 215.569C708.656 215.934 708.352 216.23 707.973 216.23H704.434C704.08 216.205 703.796 215.919 703.796 215.569V205.881C703.796 205.11 703.866 203.186 703.696 202.455C703.432 201.228 702.639 200.882 701.612 200.882C700.755 200.882 699.858 201.458 699.494 202.38C699.13 203.301 699.165 204.844 699.165 205.881V215.569C699.165 215.934 698.861 216.23 698.482 216.23H694.943C694.584 216.205 694.305 215.919 694.305 215.569L694.3 205.881C694.3 203.842 694.634 200.842 692.116 200.842C689.569 200.842 689.669 203.767 689.669 205.881V215.569C689.669 215.934 689.365 216.23 688.986 216.23Z" fill="#181E15"/>
<path d="M754.493 196.304C759.752 196.304 762.599 200.842 762.599 206.612C762.599 212.187 759.453 216.61 754.493 216.61C749.329 216.61 746.518 212.072 746.518 206.417C746.518 200.727 749.364 196.304 754.493 196.304ZM754.523 200.036C751.911 200.036 751.747 203.612 751.747 205.841C751.747 208.075 751.712 212.844 754.493 212.844C757.24 212.844 757.37 208.997 757.37 206.652C757.37 205.11 757.305 203.266 756.841 201.804C756.442 200.531 755.65 200.036 754.523 200.036Z" fill="#181E15"/>
<path d="M769.416 216.23H765.887C765.533 216.205 765.249 215.919 765.249 215.569L765.244 197.286C765.274 196.95 765.568 196.689 765.927 196.689H769.212C769.521 196.704 769.775 196.915 769.845 197.2V199.995H769.91C770.902 197.496 772.293 196.304 774.74 196.304C776.33 196.304 777.881 196.88 778.878 198.458C779.805 199.92 779.805 202.38 779.805 204.148V215.654C779.765 215.974 779.471 216.23 779.122 216.23H775.568C775.244 216.205 774.975 215.964 774.94 215.654V205.726C774.94 203.727 775.169 200.802 772.721 200.802C771.859 200.802 771.066 201.383 770.673 202.265C770.174 203.382 770.109 204.494 770.109 205.726V215.569C770.104 215.934 769.795 216.23 769.416 216.23Z" fill="#181E15"/>
<path d="M722.197 207.499V206.728C719.635 206.728 716.928 207.279 716.928 210.315C716.928 211.852 717.721 212.894 719.082 212.894C720.079 212.894 720.971 212.278 721.534 211.276C722.232 210.044 722.197 208.887 722.197 207.499ZM725.771 216.18C725.537 216.391 725.198 216.406 724.934 216.265C723.757 215.284 723.548 214.828 722.9 213.891C720.956 215.885 719.58 216.481 717.058 216.481C714.077 216.481 711.754 214.632 711.754 210.931C711.754 208.04 713.314 206.072 715.532 205.11C717.457 204.259 720.143 204.108 722.197 203.873V203.412C722.197 202.566 722.262 201.564 721.768 200.832C721.335 200.176 720.507 199.906 719.779 199.906C718.429 199.906 717.222 200.602 716.928 202.045C716.868 202.365 716.634 202.681 716.315 202.696L712.875 202.325C712.586 202.26 712.267 202.025 712.347 201.579C713.14 197.391 716.903 196.129 720.273 196.129C721.998 196.129 724.251 196.59 725.612 197.902C727.336 199.52 727.172 201.679 727.172 204.028V209.578C727.172 211.246 727.86 211.978 728.508 212.879C728.737 213.2 728.787 213.585 728.498 213.826C727.775 214.432 726.489 215.559 725.781 216.19L725.771 216.18Z" fill="#181E15"/>
<path d="M675.732 207.499V206.728C673.17 206.728 670.463 207.279 670.463 210.315C670.463 211.852 671.256 212.894 672.617 212.894C673.614 212.894 674.506 212.278 675.069 211.276C675.767 210.044 675.732 208.887 675.732 207.499ZM679.306 216.18C679.072 216.391 678.733 216.406 678.469 216.265C677.293 215.284 677.083 214.828 676.435 213.891C674.491 215.885 673.115 216.481 670.593 216.481C667.612 216.481 665.289 214.632 665.289 210.931C665.289 208.04 666.849 206.072 669.068 205.11C670.992 204.259 673.679 204.108 675.732 203.873V203.412C675.732 202.566 675.797 201.564 675.304 200.832C674.87 200.176 674.042 199.906 673.315 199.906C671.964 199.906 670.757 200.602 670.463 202.045C670.403 202.365 670.169 202.681 669.85 202.696L666.411 202.325C666.122 202.26 665.802 202.025 665.882 201.579C666.675 197.391 670.438 196.129 673.808 196.129C675.533 196.129 677.786 196.59 679.147 197.902C680.872 199.52 680.707 201.679 680.707 204.028V209.578C680.707 211.246 681.395 211.978 682.043 212.879C682.272 213.2 682.322 213.585 682.033 213.826C681.31 214.432 680.024 215.559 679.316 216.19L679.306 216.18Z" fill="#181E15"/>
</g>
<g opacity="0.2">
<path d="M343.376 47.3481C342.44 45.4782 341.342 43.5895 339.201 43.5895C338.791 43.5895 338.383 43.6584 338.007 43.8322L337.28 42.3542C338.166 41.582 339.599 40.9697 341.44 40.9697C344.305 40.9697 345.775 42.3705 346.942 44.1587C347.635 42.6321 347.964 40.5705 347.964 38.0151C347.964 31.6338 345.998 28.3572 341.407 28.3572C336.882 28.3572 334.927 31.6338 334.927 38.0151C334.927 44.3627 336.882 47.6057 341.407 47.6057C342.126 47.6057 342.777 47.5254 343.376 47.3481ZM344.497 49.5751C343.506 49.845 342.452 49.9941 341.407 49.9941C335.382 49.9941 329.482 45.1132 329.482 38.0151C329.482 30.8497 335.382 25.9678 341.407 25.9678C347.533 25.9678 353.375 30.8145 353.375 38.0151C353.375 42.0203 351.534 45.2751 348.859 47.3788C349.723 48.6939 350.613 49.5671 351.852 49.5671C353.205 49.5671 353.75 48.5062 353.842 47.674H355.603C355.706 48.7821 355.16 53.3871 350.238 53.3871C347.256 53.3871 345.68 51.6327 344.497 49.5751ZM357.249 43.486V35.2804C357.249 34.3457 356.909 33.9306 355.851 33.9306H354.726V31.7502H362.08V43.3825C362.08 45.3435 363.125 46.2083 364.717 46.2083C366.024 46.2083 367.331 45.6214 368.036 44.2815V35.2804C368.036 34.3457 367.695 33.9306 366.638 33.9306H365.445V31.7502H372.868V43.9348C372.868 45.1483 373.311 45.7016 374.674 45.7016H374.913V47.9519L368.275 49.0248V46.7056H368.138C366.854 48.2971 365.047 49.371 362.467 49.371C359.568 49.371 357.249 47.883 357.249 43.486ZM384.571 47.1906C387.185 47.1906 388.179 44.8813 388.231 40.2317C388.282 35.6836 387.185 33.4819 384.571 33.4819C382.286 33.4819 380.854 35.6846 380.854 40.2317C380.854 44.8823 382.263 47.1906 384.571 47.1906ZM384.571 49.371C379.843 49.371 375.579 45.7006 375.579 40.2317C375.579 34.8653 379.74 31.2995 384.571 31.2995C389.606 31.2995 393.642 34.9337 393.642 40.2317C393.642 45.7006 389.606 49.371 384.571 49.371ZM393.792 49.0248V46.8438H394.508C396.282 46.8438 396.452 46.3247 396.452 44.7669V35.2804C396.452 34.3457 395.975 33.9306 394.884 33.9306H393.929V31.7502H400.669L401.01 35.3161H401.147C401.897 32.7533 403.909 31.403 405.795 31.403C407.353 31.403 408.568 32.3035 408.568 34.1273C408.568 35.3963 407.967 36.7471 406.285 36.7471C404.772 36.7471 404.477 35.7079 403.226 35.7079C402.113 35.7079 401.248 36.7818 401.248 38.3618V44.7669C401.248 46.3247 401.624 46.8438 403.364 46.8438H404.352V49.0248H393.792ZM416.23 46.4862C418.379 46.4862 419.265 44.4207 419.265 42.3448V39.5739C417.697 41.2234 414.047 41.2813 414.047 44.224C414.047 45.6664 414.89 46.4862 416.23 46.4862ZM419.368 46.4743C418.481 48.205 416.662 49.371 414.116 49.371C411.161 49.371 409.251 47.7775 409.251 44.974C409.251 39.3322 416.992 40.8315 419.265 37.0933V36.6886C419.265 33.8157 418.151 33.366 416.924 33.366C413.48 33.366 415.048 37.126 411.876 37.126C410.354 37.126 409.762 36.1928 409.762 35.1427C409.762 33.0192 412.263 31.2995 416.958 31.2995C421.402 31.2995 424.13 32.5462 424.13 37.0354V44.2013C424.13 45.3088 424.528 45.9096 425.483 45.9096C425.892 45.9096 426.233 45.7942 426.494 45.6095L427.063 47.0162C426.597 47.7438 425.357 49.0248 423.004 49.0248C420.959 49.0248 419.674 48.0554 419.504 46.4743H419.368Z" fill="#181E15"/>
</g>
<g opacity="0.2">
<path d="M222.548 45.9268C222.976 45.9528 223.407 45.9668 223.842 45.9668L223.84 45.9678C223.406 45.9678 222.975 45.9527 222.548 45.9268ZM221.279 45.8105C221.529 45.8409 221.779 45.8671 222.031 45.8887C221.779 45.8671 221.529 45.8409 221.279 45.8105ZM226.051 45.8516C226.013 45.8555 225.975 45.8595 225.937 45.8633C225.975 45.8595 226.013 45.8555 226.051 45.8516ZM218.253 45.2129C219.198 45.4734 220.169 45.6702 221.162 45.7969C220.169 45.6702 219.198 45.4735 218.253 45.2129ZM227.339 45.6758C227.174 45.7035 227.007 45.7291 226.841 45.7529C227.007 45.7291 227.173 45.7035 227.339 45.6758ZM217.201 44.8936C217.479 44.9861 217.759 45.0732 218.041 45.1543C217.759 45.0732 217.479 44.9861 217.201 44.8936ZM223.844 5.02051C234.877 5.02066 243.821 14.0225 243.821 25.001C243.821 36.0367 234.877 44.9784 223.844 44.9785C212.808 44.9785 203.863 36.0368 203.863 25.001C203.863 13.9625 212.808 5.02051 223.844 5.02051ZM215.826 44.3799C216.252 44.556 216.684 44.7198 217.123 44.8682C216.684 44.7197 216.252 44.5561 215.826 44.3799ZM223.843 6.29785C217.163 6.35006 210.366 9.72521 208.158 16.9277C207.695 18.4366 207.402 19.7156 207.402 21.168C207.402 24.537 209.32 24.7109 209.32 26.2812C209.32 27.0942 208.681 27.6738 207.928 27.6738C206.592 27.6738 205.547 26.1646 205.547 23.6074C205.547 21.2832 206.157 19.41 206.24 19.1377C206.243 19.1223 206.231 19.0806 206.18 19.0635C206.129 19.0448 206.088 19.063 206.076 19.0801C206.061 19.1072 205.141 21.721 205.139 25.002C205.136 31.7389 208.565 38.5319 215.77 40.7383C217.278 41.2047 218.557 41.4951 220.009 41.4951C223.376 41.495 223.495 39.5209 225.063 39.5205C225.876 39.5205 226.516 40.1605 226.516 40.9727C226.515 42.2519 225.004 43.2969 222.449 43.2969C220.125 43.2969 218.246 42.7054 217.982 42.6035C217.956 42.5919 217.911 42.6218 217.896 42.6602C217.875 42.7115 217.9 42.762 217.927 42.7773C218.578 43.0693 220.765 43.7021 223.845 43.7021C230.521 43.702 237.374 40.332 239.525 33.0732C239.987 31.6219 240.278 30.2858 240.278 28.8936C240.278 25.4678 238.362 25.35 238.362 23.7822C238.362 22.9093 238.943 22.3262 239.759 22.3262C241.091 22.3265 242.13 23.8957 242.136 26.4561C242.142 28.823 241.444 30.8891 241.44 30.9248C241.44 30.9582 241.452 30.982 241.503 31C241.569 31.0213 241.601 30.9974 241.609 30.9795C241.62 30.9551 242.575 28.3905 242.541 25.001C242.479 18.3777 239.174 11.5246 231.911 9.31738C230.402 8.85097 229.123 8.56348 227.675 8.56348C224.305 8.56355 224.188 10.4791 222.62 10.4795C221.752 10.4795 221.168 9.83996 221.168 9.08691C221.168 7.74926 222.737 6.70349 225.234 6.70605C227.908 6.70609 229.675 7.4447 229.707 7.44727C229.724 7.45054 229.76 7.44382 229.784 7.3877C229.802 7.34065 229.785 7.30153 229.767 7.28613C229.662 7.2031 226.947 6.27392 223.843 6.29785ZM230.927 13.6719C232.263 13.6719 232.962 14.6016 232.962 15.6465C232.962 17.6217 231.277 19.3627 228.896 21.165C229.069 21.6272 229.35 22.029 229.754 22.2344C229.754 22.2344 230.533 21.9564 231.304 21.9863C231.997 22.0129 232.956 22.2612 233.004 22.9062C233.107 24.3686 229.801 23.7858 229.769 23.7822C228.49 24.1288 226.049 25.5804 226.049 29.2998C226.049 31.7979 227.617 34.1191 230.058 34.1191C231.913 34.1191 233.496 32.6253 233.553 30.4746C233.553 29.0822 232.901 27.7324 231.509 27.7324C230.812 27.7326 230.111 28.2311 230.061 28.9756C229.985 30.1042 230.986 30.2868 230.986 31.0459C230.986 31.5641 230.581 31.7977 230.171 31.7979C229.013 31.7979 228.14 30.6367 228.14 29.1846C228.14 27.443 229.649 25.9902 231.623 25.9902C234.18 25.9903 235.516 28.196 235.517 30.5752C235.516 33.1896 233.252 35.9198 229.942 35.9199C225.932 35.9199 223.901 32.5504 223.9 29.5303C223.9 25.2915 226.805 23.4899 228.023 22.8506C227.793 22.6769 227.618 22.4444 227.444 22.1543C226.049 23.1436 224.783 24.0152 222.114 25.5273C221.995 27.3887 221.809 29.4172 221.346 30.8096C220.357 33.7731 218.322 35.9209 215.652 35.9209C213.388 35.9209 212.285 34.2958 212.285 32.5508C212.285 31.2748 213.042 29.6499 214.374 28.4287C216.058 26.9191 217.917 25.9898 220.474 24.6514C220.534 24.305 220.59 23.9552 220.646 23.5498C220.007 24.1289 219.079 24.3613 218.322 24.3613C217.104 24.3612 216.118 23.3157 215.885 22.2109C214.26 22.097 213.041 20.932 212.981 19.0732C212.981 17.7374 213.505 16.5762 214.374 16.5762C214.724 16.5763 214.84 16.865 214.84 17.0977C214.84 17.3313 214.55 18.0843 214.55 18.8408C214.55 19.5965 214.897 20.582 215.829 20.582C215.829 17.5655 218.033 13.6724 220.646 13.6719C222.388 13.6719 222.621 14.9519 222.621 15.5312C222.621 18.2612 219.892 21.2812 217.684 22.0371C217.743 22.2708 217.976 22.9102 218.672 22.9102C219.545 22.9101 220.59 22.0969 221.113 21.4551C221.346 20.2356 222.216 18.4916 223.375 18.4912C223.844 18.4912 224.074 18.8414 224.074 19.2471C224.074 20.1191 223.119 21.2511 222.423 22.0068C222.252 22.8557 222.198 23.5123 222.198 23.7666C224.229 22.5471 225.353 21.86 226.864 20.7578C226.744 20.3522 226.745 19.8858 226.745 19.4229C226.745 16.6929 228.545 13.6722 230.927 13.6719ZM220.276 26.5166C217.662 27.796 214.201 30.1792 214.2 32.6738C214.2 33.6023 214.782 34.1594 215.651 34.1201C218.636 33.9858 219.812 29.9998 220.276 26.5166ZM223.842 4.03223C212.672 4.03311 203.509 12.8185 202.906 23.8438C203.507 12.8029 212.649 4.03234 223.84 4.03223H223.842ZM225.453 4.09375C235.901 4.88849 244.206 13.3381 244.777 23.8438C244.203 13.3526 235.879 4.88986 225.453 4.09375ZM220.616 15.2354C219.461 14.8502 217.569 18.4921 217.569 20.4092C219.485 19.3643 221.982 15.6909 220.616 15.2354ZM231.04 15.2793C230.159 14.844 228.545 17.1568 228.545 19.541C230.287 18.0288 232.044 15.7825 231.04 15.2793Z" fill="#181E15"/>
</g>
<g opacity="0.2">
<path d="M552.078 7.25786C563.666 7.25786 573.057 16.6458 573.057 28.2256C573.057 39.8055 563.666 49.1934 552.078 49.1934C540.49 49.1934 531.096 39.8054 531.096 28.2256C531.096 16.6458 540.49 7.2579 552.078 7.25786ZM559.553 9.10551C555.189 9.12092 550.374 10.9891 546.858 13.8936C543.258 16.8752 540.436 21.9024 540.455 27.1221C540.482 35.019 546.48 39.9345 552.243 39.9151C559.359 39.892 563.569 34.0523 563.554 28.7207C563.534 23.3932 560.636 19.5407 554.248 17.9844C554.233 17.9188 554.221 17.7762 554.221 17.6416C554.209 13.6162 557.247 10.0642 561.063 9.27446C560.705 9.15126 560.115 9.10553 559.553 9.10551Z" fill="#181E15"/>
<path d="M586.606 36.9074L580.191 21.6102H584.382L588.383 31.7685L592.261 21.6102H596.263L590.037 36.9074H586.606Z" fill="#181E15"/>
<path d="M607.427 29.1802C607.427 28.5446 607.353 27.9398 607.203 27.3658C607.057 26.7918 606.833 26.2988 606.536 25.8866C606.239 25.4705 605.881 25.143 605.457 24.9004C605.033 24.6538 604.535 24.5306 603.965 24.5306C603.394 24.5306 602.893 24.6538 602.473 24.9004C602.049 25.143 601.687 25.4705 601.394 25.8866C601.097 26.2988 600.873 26.7918 600.727 27.3658C600.576 27.9398 600.503 28.5446 600.503 29.1802C600.503 29.8389 600.576 30.4514 600.727 31.0138C600.873 31.5763 601.089 32.0694 601.374 32.4931C601.66 32.9169 602.022 33.252 602.458 33.4986C602.889 33.7412 603.394 33.8645 603.965 33.8645C604.535 33.8645 605.033 33.7412 605.457 33.4986C605.881 33.252 606.239 32.9169 606.536 32.4931C606.833 32.0694 607.057 31.5763 607.203 31.0138C607.353 30.4514 607.427 29.8389 607.427 29.1802ZM611.301 29.197C611.301 30.1947 611.147 31.1732 610.842 32.1362C610.534 33.0993 610.079 33.9583 609.474 34.7211C608.872 35.4838 608.109 36.0963 607.188 36.5625C606.266 37.0286 605.191 37.2597 603.965 37.2597C602.735 37.2597 601.66 37.0285 600.742 36.5625C599.821 36.0964 599.058 35.4838 598.452 34.7211C597.851 33.9583 597.396 33.0993 597.088 32.1362C596.783 31.1732 596.629 30.1947 596.629 29.197C596.629 28.2031 596.783 27.2323 597.088 26.277C597.396 25.3255 597.851 24.4742 598.452 23.723C599.058 22.9718 599.821 22.3708 600.742 21.9163C601.66 21.4617 602.735 21.2306 603.965 21.2306C605.191 21.2306 606.262 21.4617 607.172 21.9163C608.082 22.3708 608.845 22.9718 609.458 23.723C610.075 24.4742 610.534 25.3255 610.842 26.277C611.147 27.2323 611.301 28.2031 611.301 29.197Z" fill="#181E15"/>
<path d="M623.133 24.979C622.373 24.6824 621.668 24.5322 621.012 24.5322C620.342 24.5322 619.76 24.6633 619.278 24.9174C618.792 25.1715 618.391 25.5145 618.075 25.9498C617.759 26.3851 617.524 26.8743 617.366 27.4175C617.208 27.9568 617.127 28.5154 617.127 29.0894C617.127 29.725 617.196 30.3336 617.335 30.9191C617.47 31.5008 617.682 32.0132 617.967 32.4485C618.248 32.8838 618.607 33.2343 619.039 33.5002C619.47 33.7621 619.983 33.8969 620.573 33.8969C621.059 33.8969 621.552 33.7622 622.057 33.5002C622.562 33.2343 622.921 32.9185 623.133 32.5602L623.133 24.979ZM623.449 36.9094L623.291 35.7383C622.932 36.139 622.458 36.4934 621.864 36.7977C621.275 37.1058 620.577 37.26 619.775 37.26C618.723 37.26 617.79 37.0366 616.992 36.5935C616.186 36.1505 615.511 35.5573 614.964 34.8177C614.417 34.078 613.996 33.219 613.711 32.2444C613.43 31.2736 613.287 30.2566 613.287 29.1972C613.287 28.2034 613.434 27.2287 613.727 26.2772C614.023 25.3257 614.471 24.4744 615.072 23.7232C615.677 22.972 616.429 22.3711 617.339 21.9165C618.245 21.4619 619.312 21.2308 620.534 21.2308C621.336 21.2308 622.204 21.3809 623.133 21.6738V15.7413H627.069V36.9094H623.449Z" fill="#181E15"/>
<path d="M638.156 29.7363C637.732 29.7587 637.292 29.7981 636.845 29.8481C636.398 29.9021 635.974 29.9714 635.569 30.0561C634.713 30.2255 634.123 30.5146 633.792 30.9267C633.464 31.3428 633.298 31.7896 633.298 32.2789C633.298 32.7835 633.483 33.1919 633.857 33.5C634.231 33.8044 634.756 33.9584 635.438 33.9584C635.951 33.9584 636.448 33.8544 636.926 33.6426C637.404 33.4307 637.816 33.1649 638.156 32.849V29.7363ZM638.472 36.8977L638.318 35.7535C637.89 36.2235 637.35 36.5933 636.691 36.8591C636.032 37.125 635.311 37.2598 634.524 37.2598C633.865 37.2598 633.229 37.1479 632.628 36.9246C632.019 36.7052 631.483 36.3853 631.016 35.9731C630.55 35.5609 630.172 35.0563 629.887 34.4515C629.598 33.8467 629.455 33.1648 629.455 32.4021C629.455 31.6432 629.602 30.9691 629.902 30.3874C630.199 29.8057 630.6 29.3164 631.113 28.912C631.622 28.5113 632.208 28.1839 632.867 27.9297C633.522 27.6756 634.216 27.4828 634.937 27.3556C635.446 27.2517 636.005 27.1745 636.61 27.1205C637.215 27.0666 637.72 27.0205 638.125 26.978V26.7546C638.125 25.9071 637.909 25.3061 637.47 24.9441C637.034 24.5858 636.433 24.4048 635.669 24.4048C635.222 24.4048 634.794 24.4587 634.389 24.5666C633.985 24.6706 633.626 24.8017 633.306 24.9595C632.986 25.1214 632.705 25.2793 632.458 25.4372C632.215 25.5952 632.019 25.7377 631.868 25.8648L630.565 23.1066C630.735 22.9565 630.993 22.7792 631.344 22.5673C631.695 22.3554 632.115 22.1474 632.616 21.9471C633.113 21.7466 633.672 21.5772 634.297 21.4386C634.921 21.2999 635.596 21.2306 636.313 21.2306C637.161 21.2306 637.936 21.3424 638.634 21.5658C639.331 21.7891 639.937 22.1359 640.446 22.6135C640.951 23.0874 641.348 23.6883 641.637 24.4202C641.922 25.1483 642.065 26.0305 642.065 27.0667V36.8977H638.472Z" fill="#181E15"/>
<path d="M654.231 19.2311C654.104 19.1696 653.857 19.0771 653.487 18.9613C653.113 18.8459 652.623 18.788 652.007 18.788C651.459 18.788 650.997 18.9538 650.626 19.2811C650.256 19.6085 650.071 20.144 650.071 20.8836V21.6117H653.375V24.7859H650.102V36.9089H646.162V24.7859H644.131V21.6117H646.162V20.7873C646.162 19.7934 646.29 18.9537 646.544 18.2641C646.798 17.5784 647.153 17.016 647.608 16.5845C648.063 16.1492 648.599 15.8295 649.212 15.6292C649.828 15.4287 650.495 15.3287 651.216 15.3287C652.168 15.3287 652.955 15.4173 653.579 15.5984C654.204 15.7796 654.57 15.8989 654.674 15.9644L654.231 19.2311Z" fill="#181E15"/>
<path d="M664.968 29.1802C664.968 28.5446 664.891 27.9398 664.744 27.3658C664.598 26.7918 664.374 26.2988 664.077 25.8866C663.78 25.4705 663.422 25.143 662.998 24.9004C662.574 24.6538 662.076 24.5306 661.506 24.5306C660.935 24.5306 660.434 24.6538 660.014 24.9004C659.59 25.143 659.228 25.4705 658.931 25.8866C658.638 26.2988 658.414 26.7918 658.264 27.3658C658.117 27.9398 658.044 28.5446 658.044 29.1802C658.044 29.8389 658.117 30.4514 658.264 31.0138C658.414 31.5763 658.63 32.0694 658.915 32.4931C659.201 32.9169 659.563 33.252 659.995 33.4986C660.43 33.7412 660.935 33.8645 661.506 33.8645C662.076 33.8645 662.574 33.7412 662.998 33.4986C663.422 33.252 663.78 32.9169 664.077 32.4931C664.374 32.0694 664.598 31.5763 664.744 31.0138C664.891 30.4514 664.968 29.8389 664.968 29.1802ZM668.842 29.197C668.842 30.1947 668.688 31.1732 668.379 32.1362C668.075 33.0993 667.62 33.9583 667.015 34.7211C666.413 35.4838 665.65 36.0963 664.729 36.5625C663.807 37.0286 662.732 37.2597 661.506 37.2597C660.276 37.2597 659.201 37.0285 658.283 36.5625C657.362 36.0964 656.599 35.4838 655.993 34.7211C655.392 33.9583 654.937 33.0993 654.629 32.1362C654.32 31.1732 654.17 30.1947 654.17 29.197C654.17 28.2031 654.32 27.2323 654.629 26.277C654.937 25.3255 655.392 24.4742 655.993 23.723C656.599 22.9718 657.362 22.3708 658.283 21.9163C659.201 21.4617 660.276 21.2306 661.506 21.2306C662.732 21.2306 663.803 21.4617 664.713 21.9163C665.623 22.3708 666.386 22.9718 666.999 23.723C667.616 24.4742 668.075 25.3255 668.379 26.277C668.688 27.2323 668.842 28.2031 668.842 29.197Z" fill="#181E15"/>
<path d="M681.066 36.9084V28.1831C681.066 27.0198 680.823 26.1184 680.337 25.4827C679.847 24.851 679.173 24.5312 678.302 24.5312C677.689 24.5312 677.122 24.6892 676.605 25.0089C676.085 25.3248 675.634 25.6753 675.252 26.0567V36.9084H671.316V21.6112H674.905L675.094 22.817C675.711 22.3124 676.401 21.9194 677.176 21.6459C677.947 21.3686 678.726 21.2337 679.508 21.2337C680.314 21.2337 681.054 21.3531 681.732 21.5958C682.411 21.8424 682.993 22.2276 683.479 22.7553C683.968 23.2831 684.342 23.9726 684.608 24.8163C684.87 25.6638 685.005 26.6808 685.005 27.8634V36.9084H681.066Z" fill="#181E15"/>
<path d="M697.255 27.4212C697.213 26.8934 697.101 26.4312 696.92 26.0421C696.739 25.6492 696.515 25.3333 696.249 25.0906C695.983 24.844 695.698 24.6668 695.39 24.5474C695.077 24.4319 694.765 24.3741 694.445 24.3741C693.763 24.3741 693.115 24.6282 692.498 25.1369C691.882 25.6453 691.519 26.4042 691.411 27.4212H697.255ZM691.319 30.2449C691.403 31.5353 691.804 32.4676 692.529 33.0377C693.25 33.6079 694.187 33.8968 695.332 33.8968C695.864 33.8968 696.365 33.8468 696.831 33.7542C697.298 33.6581 697.714 33.5384 698.076 33.3883C698.439 33.2418 698.747 33.0917 699.002 32.9453C699.256 32.7952 699.445 32.6564 699.576 32.5293L700.625 35.7381C700.474 35.8421 700.235 35.9847 699.908 36.1657C699.58 36.3469 699.171 36.5125 698.685 36.6742C698.2 36.8322 697.625 36.967 696.97 37.0864C696.315 37.2019 695.594 37.2597 694.811 37.2597C693.813 37.2597 692.868 37.1018 691.966 36.7859C691.068 36.4662 690.278 35.9731 689.603 35.3067C688.925 34.6402 688.385 33.812 687.984 32.8181C687.579 31.8242 687.379 30.6378 687.379 29.2625C687.379 27.972 687.564 26.8279 687.934 25.834C688.304 24.8401 688.813 24.0042 689.457 23.3262C690.104 22.652 690.856 22.132 691.712 21.7699C692.572 21.4116 693.485 21.2306 694.46 21.2306C695.436 21.2306 696.334 21.3924 697.163 21.7082C697.988 22.0241 698.701 22.5172 699.306 23.1837C699.908 23.8501 700.386 24.713 700.732 25.7723C701.083 26.8279 701.257 28.0876 701.257 29.5476V30.2448L691.319 30.2449Z" fill="#181E15"/>
</g>
<g opacity="0.2">
<path d="M755.176 71.1457C755.176 69.7982 756.267 68.7083 757.61 68.7083C758.958 68.7083 760.053 69.7982 760.053 71.1457C760.053 72.4914 758.958 73.5825 757.61 73.5825C756.267 73.5825 755.176 72.4914 755.176 71.1457Z" fill="#181E15"/>
<path d="M793.66 87.3593C793.66 86.0113 794.751 84.9202 796.094 84.9202C797.441 84.9202 798.536 86.0113 798.536 87.3593C798.536 88.7039 797.441 89.7961 796.094 89.7961C794.751 89.7961 793.66 88.7039 793.66 87.3593Z" fill="#181E15"/>
<path d="M715.144 86.3066C713.043 86.3066 711.583 84.6437 711.583 82.2675C711.583 79.892 713.043 78.2302 715.144 78.2302C717.256 78.2302 718.732 79.892 718.732 82.2675C718.732 84.6812 717.287 86.3066 715.144 86.3066ZM715.144 74.6805C710.7 74.6805 707.475 77.8721 707.475 82.2675C707.475 86.6629 710.7 89.854 715.144 89.854C719.605 89.854 722.843 86.6629 722.843 82.2675C722.843 77.8721 719.605 74.6805 715.144 74.6805Z" fill="#181E15"/>
<path d="M750.451 82.6447C750.278 82.3207 750.08 82.0463 749.869 81.8286L749.735 81.6865L749.876 81.5513C750.08 81.337 750.288 81.0829 750.49 80.7884L754.411 74.9773H749.65L746.704 79.5229C746.537 79.7666 746.2 79.8896 745.696 79.8896H745.025V71.2958C745.025 69.5769 743.95 69.343 742.79 69.343H740.803L740.806 89.6282H745.025V83.5434H745.42C745.901 83.5434 746.228 83.5988 746.378 83.8593L748.705 88.2374C749.355 89.4255 750.003 89.6282 751.222 89.6282H754.455L752.047 85.6585L750.451 82.6447Z" fill="#181E15"/>
<path d="M770.931 74.648C768.785 74.648 767.416 75.5981 766.649 76.4015L766.393 76.6597L766.302 76.3086C766.077 75.448 765.317 74.9743 764.174 74.9743H762.283L762.295 89.6252H766.485V82.8728C766.485 82.2126 766.571 81.6396 766.746 81.1169C767.213 79.5349 768.513 78.5513 770.139 78.5513C771.447 78.5513 771.958 79.2392 771.958 81.017V87.3981C771.958 88.9154 772.662 89.6252 774.186 89.6252H776.18L776.173 80.3071C776.173 76.6049 774.361 74.648 770.932 74.648" fill="#181E15"/>
<path d="M757.666 74.9805H755.68L755.693 86.3085H755.692V89.6285H757.812C757.838 89.6285 757.86 89.6313 757.886 89.6313L758.874 89.6285H759.857V89.6227H759.863L759.872 77.2048C759.872 75.7065 759.153 74.9805 757.667 74.9805" fill="#181E15"/>
<path d="M731.602 86.3066C729.502 86.3066 728.039 84.6437 728.039 82.2675C728.039 79.892 729.502 78.2302 731.602 78.2302C733.71 78.2302 735.19 79.892 735.19 82.2675C735.19 84.6812 733.746 86.3066 731.602 86.3066ZM731.602 74.6805C727.154 74.6805 723.928 77.8721 723.928 82.2675C723.928 86.6629 727.154 89.854 731.602 89.854C736.058 89.854 739.302 86.6629 739.302 82.2675C739.302 77.8721 736.058 74.6805 731.602 74.6805Z" fill="#181E15"/>
<path d="M821.41 86.3078C819.31 86.3078 817.846 84.645 817.846 82.2688C817.846 79.8932 819.31 78.2315 821.41 78.2315C823.518 78.2315 824.999 79.8932 824.999 82.2688C824.999 84.6825 823.554 86.3078 821.41 86.3078ZM821.41 74.6817C816.962 74.6817 813.736 77.8734 813.736 82.2688C813.736 86.6642 816.962 89.8553 821.41 89.8553C825.866 89.8553 829.11 86.6642 829.11 82.2688C829.11 77.8734 825.866 74.6817 821.41 74.6817Z" fill="#181E15"/>
<path d="M785.003 85.6628C782.713 85.6628 781.897 83.6708 781.897 81.804C781.897 80.9816 782.106 78.301 784.783 78.301C786.114 78.301 787.887 78.6811 787.887 81.9421C787.887 85.0177 786.318 85.6628 785.003 85.6628ZM790.062 74.9424C789.267 74.9424 788.655 75.2583 788.348 75.8353L788.233 76.0594L788.038 75.8914C787.362 75.308 786.15 74.6161 784.18 74.6161C780.263 74.6161 777.625 77.549 777.625 81.9138C777.625 86.2734 780.354 89.3201 784.259 89.3201C785.593 89.3201 786.647 89.0099 787.483 88.3792L787.806 88.1372V88.5444C787.806 90.5012 786.537 91.5807 784.235 91.5807C783.117 91.5807 782.098 91.3093 781.418 91.0632C780.529 90.7958 780.008 91.017 779.647 91.9059L779.315 92.7261L778.844 93.924L779.136 94.0788C780.609 94.8579 782.526 95.3229 784.259 95.3229C787.828 95.3229 791.994 93.5024 791.994 88.3792L792.009 74.9424H790.063" fill="#181E15"/>
<path d="M699.537 86.1401L696.126 86.1367V82.0723C696.126 81.2036 696.464 80.752 697.211 80.648H699.537C701.197 80.648 702.27 81.6917 702.271 83.3799C702.27 85.1127 701.224 86.1391 699.537 86.1402V86.1401ZM696.126 75.1759V74.1062C696.126 73.17 696.524 72.7247 697.396 72.6675H699.141C700.638 72.6675 701.534 73.5604 701.534 75.054C701.534 76.193 700.921 77.522 699.196 77.522H696.126V75.1759ZM703.893 79.2323L703.276 78.8869L703.814 78.4283C704.44 77.8917 705.49 76.6857 705.49 74.6018C705.49 71.4136 703.008 69.3556 699.168 69.3556H694.786V69.3545H694.287C693.148 69.3961 692.237 70.319 692.225 71.4609V89.5582H694.236C694.241 89.5594 694.243 89.5582 694.244 89.5594L699.255 89.5582C703.524 89.5582 706.279 87.2421 706.279 83.6548C706.279 81.7234 705.389 80.0721 703.892 79.2323" fill="#181E15"/>
<path d="M847.829 74.6961C846.091 74.6961 844.41 75.5076 843.331 76.8684L843.028 77.2519L842.789 76.8228C842.013 75.4123 840.678 74.6961 838.821 74.6961C836.873 74.6961 835.567 75.7791 834.96 76.4231L834.563 76.8516L834.41 76.2879C834.189 75.4764 833.464 75.0294 832.366 75.0294H830.605L830.588 89.6237H834.589V83.1813C834.589 82.617 834.659 82.0585 834.801 81.4746C835.184 79.918 836.233 78.2436 837.998 78.4111C839.086 78.5151 839.617 79.3531 839.617 80.9721V89.6237H843.647V83.1813C843.647 82.4761 843.713 81.9482 843.872 81.4186C844.197 79.9325 845.292 78.4088 846.995 78.4088C848.227 78.4088 848.682 79.1042 848.682 80.9721V87.4901C848.682 88.9646 849.342 89.6237 850.821 89.6237H852.704L852.707 80.3067C852.707 76.5848 851.063 74.6961 847.828 74.6961" fill="#181E15"/>
<path d="M811.421 84.5567C811.409 84.5711 809.688 86.3807 807.421 86.3807C805.355 86.3807 803.269 85.1175 803.269 82.2978C803.269 79.8633 804.887 78.1617 807.202 78.1617C807.954 78.1617 808.81 78.4303 808.943 78.882L808.963 78.9582C809.271 79.9823 810.205 80.0372 810.389 80.0372L812.581 80.0395V78.1295C812.581 75.6101 809.366 74.6963 807.202 74.6963C802.576 74.6963 799.219 77.9071 799.219 82.3285C799.219 86.7481 802.539 89.9543 807.118 89.9543C811.09 89.9543 813.25 87.3517 813.27 87.3257L813.386 87.1848L811.65 84.3142L811.421 84.5568" fill="#181E15"/>
</g>
</g>
<defs>
<clipPath id="clip0_4645_4610">
<rect width="852.708" height="311.936" fill="white"/>
</clipPath>
<clipPath id="clip1_4645_4610">
<rect width="94" height="42" fill="white" transform="translate(71.3535 102)"/>
</clipPath>
</defs>
</svg>
