<svg xmlns="http://www.w3.org/2000/svg" fill="#181e15" viewBox="0 0 150 36"><path d="M20.57 0c5.03 0 9.14 4.2 9.14 9.22a9.2 9.2 0 0 1-8.9 9.21H7.72l7.9-4.25H0l14.2-7.64H6.37l9.54-5.12C17.62.52 19.16 0 20.57 0M43 1.2c3.62 0 6.7 2 7.14 5.43h-3.45c-.23-1.78-1.74-2.6-3.73-2.6-2.55 0-4.02.71-4.02 1.89 0 3.1 11.44-.4 11.44 6.46 0 4.1-3.74 5.12-7.33 5.12-4.5 0-7.68-2.23-7.76-5.97h3.39c.06 2.03 1.8 3.14 4.37 3.14 2.36 0 4.03-.64 4.03-2.29 0-2.87-11.44.25-11.44-6.32 0-3.36 3.43-4.86 7.37-4.86m62.62 9.24c0 2.79 1.82 4.13 4.18 4.13s4.18-1.34 4.18-4.13V1.55h3.2v8.89c0 4.4-3.02 7.06-7.37 7.06-4.36 0-7.37-2.65-7.37-7.06V1.55h3.19v8.89zM126.2 1.2c3.6 0 6.69 2 7.13 5.43h-3.46c-.22-1.78-1.73-2.6-3.72-2.6-2.55 0-4.03.71-4.03 1.89 0 3.1 11.44-.4 11.44 6.46 0 4.1-3.73 5.12-7.32 5.12-4.51 0-7.68-2.23-7.76-5.97h3.38c.07 2.03 1.8 3.14 4.38 3.14 2.35 0 4.03-.64 4.03-2.29 0-2.87-11.44.25-11.44-6.32 0-3.36 3.43-4.86 7.37-4.86M65.08 4.4H55v3.41h8.82v2.85H55v3.64h10.2v2.84H51.81V1.55h13.27zm10.91 8.85 4.29-11.7h4.7v15.6h-3.12V6.2l-4.05 10.93h-3.65l-4.05-10.9v10.9H67V1.55h4.7z"/><path fill-rule="evenodd" d="M95.18 1.55c3.1 0 5.8 1.03 5.8 4.28 0 1.98-.92 2.87-2.33 3.28h1.94v8.04h-3.2v-5.7h-7.01v5.7h-3.2V1.55zm-4.8 7.04h4.8c1.53 0 2.59-.58 2.59-2.1 0-1.5-1.06-2.09-2.6-2.09h-4.8z" clip-rule="evenodd"/><path d="M138.19 7.81h8.62V1.55h3.2v15.6h-3.2v-6.49h-8.62v6.48h-3.2V1.55h3.2zM44.55 33.65h-1.8l-.79-2.09h-4.1l-.77 2.1h-1.75l3.63-9.3h1.99zm-3.16-3.64-1.48-4-1.47 4zm9.88 3.66h-1.61v-4.21c0-.99-.38-1.74-1.64-1.74-.58 0-.95.1-1.29.29v5.66h-1.62v-6.6a7.5 7.5 0 0 1 3.19-.73c2 0 2.98 1.11 2.98 3zm12.43-.02h-1.8l-.78-2.09H57l-.77 2.1H54.5l3.63-9.3h2zm-3.15-3.64-1.49-4-1.47 4zm6.86 3.79c-1.92 0-3.77-1.12-3.77-3.72a3.56 3.56 0 0 1 3.68-3.71c.56 0 .9.04 1.17.14v-2.46h1.62v9.09c-.64.36-1.64.65-2.7.65m-.01-1.39c.4 0 .84-.05 1.08-.15v-4.31c-.27-.13-.6-.23-1.11-.23-1.22 0-2.1.86-2.1 2.32s.84 2.37 2.13 2.37M78 30.07c0 2.04-1.3 3.72-3.52 3.72-2.4 0-3.59-1.8-3.59-3.7 0-2.1 1.36-3.73 3.6-3.73 2.1 0 3.51 1.61 3.51 3.71m-3.5 2.36c1.16 0 1.86-.95 1.86-2.36 0-1.31-.68-2.35-1.9-2.35-1.23 0-1.93.93-1.93 2.3 0 1.27.6 2.41 1.96 2.41m5.93-8.39v2.55q.51-.23 1.38-.25c1.4 0 3.45.8 3.45 3.58 0 2.8-2.05 3.87-3.72 3.87a6 6 0 0 1-2.74-.6v-9.14zm1.15 8.39c1.18-.01 2.05-.93 2.05-2.4 0-1.24-.65-2.31-2.02-2.31q-.75.02-1.18.25v4.25c.27.14.68.21 1.15.21m10.77-2.71c0 .26 0 .62-.05.87h-4.92c.2 1.1.9 1.77 2.36 1.77.87 0 1.53-.2 2.13-.54l.01 1.4a4.4 4.4 0 0 1-2.33.56c-2.42 0-3.8-1.43-3.8-3.78 0-2 1.34-3.64 3.39-3.64 2.33 0 3.21 1.8 3.21 3.36m-1.55-.44c-.07-.86-.59-1.57-1.66-1.57-1 0-1.6.59-1.76 1.56zm12.19-4.56-.03 1.67a3.8 3.8 0 0 0-2.37-.67c-1.9 0-3.17 1.18-3.17 3.2 0 2.32 1.57 3.35 3.24 3.35.82 0 1.62-.16 2.35-.67l.03 1.65c-.47.32-1.27.56-2.53.57-3.4.04-4.93-2.3-4.93-4.87a4.7 4.7 0 0 1 4.89-4.8c1.2 0 2 .2 2.51.56zm7.59 5.35c0 2.04-1.32 3.72-3.53 3.72-2.4 0-3.6-1.8-3.6-3.7 0-2.1 1.37-3.73 3.6-3.73 2.1 0 3.52 1.61 3.52 3.71m-3.52 2.36c1.17 0 1.87-.95 1.87-2.36 0-1.31-.68-2.35-1.9-2.35-1.23 0-1.93.93-1.93 2.3 0 1.27.6 2.41 1.96 2.41m10.21 1.24h-1.61v-4.35c0-.95-.4-1.6-1.41-1.6-.53 0-.91.08-1.26.23v5.72h-1.61v-6.69a8 8 0 0 1 2.97-.64q1.34 0 2.07.58c.7-.35 1.43-.58 2.3-.57 1.74 0 2.83.98 2.83 2.97v4.35h-1.61v-4.31c0-.96-.42-1.64-1.4-1.64-.89.02-1.4.37.13.49.13 1.1zm8.21-7.33c1.85 0 3.66.98 3.66 3.67 0 2.46-1.7 3.8-3.7 3.8a5 5 0 0 1-1.14-.13V36h-1.62v-9.01c.68-.33 1.8-.66 2.8-.66m0 6.1c1.21 0 2.03-.9 2.03-2.4s-.8-2.31-2.02-2.32c-.43 0-.87.07-1.18.23v4.27c.31.17.74.23 1.17.23m7.15 1.36c-1.78 0-3.04-.78-3.04-2.4s1.36-2.21 2.92-2.21c.71 0 1.07.05 1.43.15v-.2c0-.84-.47-1.43-1.66-1.43-.73 0-1.52.25-2.08.54v-1.42a6 6 0 0 1 2.34-.48c2.07 0 3 1.06 3 2.98v3.81c-.85.42-1.71.64-2.9.65m.06-1.37q.83-.01 1.25-.25v-1.51a4 4 0 0 0-1.2-.17c-1.1 0-1.53.4-1.53.9 0 .53.38 1.04 1.49 1.04zm10.11 1.25h-1.62v-4.21c0-.99-.37-1.74-1.64-1.74-.57 0-.94.1-1.29.29v5.66h-1.62v-6.6a7.5 7.5 0 0 1 3.2-.73c2 0 2.97 1.11 2.97 3zm3.74-2.26 1.76-4.95H150l-3.71 9.49h-1.75l1.17-2.71-2.86-6.78h1.74q.94 2.44 1.93 4.95"/></svg>